{
.appVersion = "3134";
.formatVersion = 3;
DisplayStrings = (
"Aa Bb Cc Dd Ee Ff Gg Hh Ii Jj Kk Ll Mm Nn Oo Pp Qq Rr Ss Tt Uu Vv Ww Xx Yy Zz
!@#&
1234567890

For one thing, time is the very thing that we are least willing to allow.

The shining
Positive & Negative
Prostitusi"
);
customParameters = (
{
name = vendorID;
value = AMMP;
},
{
name = panose;
value = (
0,
0,
5,
0,
0,
0,
0,
0,
0,
0
);
},
{
name = unicodeRanges;
value = (
0,
1,
2,
29
);
},
{
name = codePageRanges;
value = (
"1252",
"1250",
"1254",
"1257",
"1258",
"bit 29"
);
},
{
name = blueScale;
value = 0.037;
},
{
name = glyphOrder;
value = (
.notdef,
space,
A,
Aacute,
Abreve,
uni1EAE,
uni1EB6,
uni1EB0,
uni1EB2,
uni1EB4,
uni01CD,
Acircumflex,
uni1EA4,
uni1EAC,
uni1EA6,
uni1EA8,
uni1EAA,
Adieresis,
uni1EA0,
Agrave,
uni1EA2,
Amacron,
Aogonek,
Aring,
Atilde,
AE,
B,
C,
Cacute,
Ccaron,
Ccedilla,
Cdotaccent,
D,
Eth,
Dcaron,
Dcroat,
E,
Eacute,
Ecaron,
Ecircumflex,
uni1EBE,
uni1EC6,
uni1EC0,
uni1EC2,
uni1EC4,
Edieresis,
Edotaccent,
uni1EB8,
Egrave,
uni1EBA,
Emacron,
Eogonek,
uni1EBC,
F,
G,
Gbreve,
uni0122,
Gdotaccent,
H,
Hbar,
I,
Iacute,
uni01CF,
Icircumflex,
Idieresis,
Idotaccent,
uni1ECA,
Igrave,
uni1EC8,
Imacron,
Iogonek,
Itilde,
J,
K,
uni0136,
L,
Lacute,
Lcaron,
uni013B,
Lslash,
M,
N,
Nacute,
Ncaron,
uni0145,
Eng,
Ntilde,
O,
Oacute,
uni01D1,
Ocircumflex,
uni1ED0,
uni1ED8,
uni1ED2,
uni1ED4,
uni1ED6,
Odieresis,
uni1ECC,
Ograve,
uni1ECE,
Ohorn,
uni1EDA,
uni1EE2,
uni1EDC,
uni1EDE,
uni1EE0,
Ohungarumlaut,
Omacron,
Oslash,
Otilde,
OE,
P,
Thorn,
Q,
R,
Racute,
Rcaron,
uni0156,
S,
Sacute,
Scaron,
Scedilla,
uni0218,
uni1E9E,
T,
Tbar,
Tcaron,
uni0162,
uni021A,
U,
Uacute,
uni01D3,
Ucircumflex,
Udieresis,
uni01D7,
uni01D9,
uni01DB,
uni01D5,
uni1EE4,
Ugrave,
uni1EE6,
Uhorn,
uni1EE8,
uni1EF0,
uni1EEA,
uni1EEC,
uni1EEE,
Uhungarumlaut,
Umacron,
Uogonek,
Uring,
Utilde,
V,
W,
Wacute,
Wcircumflex,
Wdieresis,
Wgrave,
X,
Y,
Yacute,
Ycircumflex,
Ydieresis,
uni1EF4,
Ygrave,
uni1EF6,
uni1EF8,
Z,
Zacute,
Zcaron,
Zdotaccent,

glyphs = (
{
glyphname = .notdef;
layers = (
{
hints = (
{
horizontal = 1;
place = (0, 10);
place = (0, 10);
type = Stem;
},
{
horizontal = 1;
place = (466, 10);
place = (466, 10);
type = Stem;
},
{
place = (136, 10);
place = (136, 10);
type = Stem;
},
{
place = (540, 10);
place = (540, 10);
type = Stem;
}
);
layerId = m01;
shapes = (
{
closed = 1;
nodes = (
(136,0,l),
(550,0,l),
(550,476,l),
(136,476,l)
);
},
{
closed = 1;
nodes = (
(146,10,l),
(146,466,l),
(540,466,l),
(540,10,l)
);
}
);
width = 686;
}
);
note = ".notdef";
},
{
glyphname = A;
kernLeft = A;
kernRight = A;
lastChange = "2022-12-21 08:58:12 +0000";
layers = (
{
hints = (
{
horizontal = 1;
place = (0, 21);
target = up;
type = BottomGhost;
},
{
horizontal = 1;
place = (187, 61);
place = (187, 61);
type = Stem;
},
{
horizontal = 1;
place = (697, -20);
target = down;
type = TopGhost;
},
{
place = (36, 580);
place = (36, 580);
type = Stem;
}
);
layerId = m01;
shapes = (
{
closed = 1;
nodes = (
(537,0,l),
(616,0,l),
(530,230,o),
(451,452,o),
(349,675,cs),
(342,688,o),
(332,697,o),
(312,697,cs),
(308,697,o),
(300,697,o),
(296,697,c),
(36,0,l),
(114,0,l),
(181,187,l),
(471,187,l)
);
},
{
closed = 1;
nodes = (
(202,248,l),
(326,596,l),
(449,248,l)
);
}
);
width = 652;
}
);
note = A;
unicode = 65;
},
{
glyphname = Aacute;
kernLeft = A;
kernRight = A;
layers = (
{
hints = (
{
horizontal = 1;
place = (0, 21);
target = up;
type = BottomGhost;
},
{
horizontal = 1;
place = (187, 61);
place = (187, 61);
type = Stem;
},
{
horizontal = 1;
place = (697, -20);
target = down;
type = TopGhost;
},
{
horizontal = 1;
place = (760, 141);
place = (760, 141);
type = Stem;
},
{
place = (36, 580);
place = (36, 580);
type = Stem;
}
);
layerId = m01;
shapes = (
{
closed = 1;
nodes = (
(482,901,l),
(408,901,l),
(300,760,l),
(353,760,l)
);
},
{
closed = 1;
nodes = (
(537,0,l),
(616,0,l),
(355,697,l),
(296,697,l),
(36,0,l),
(114,0,l),
(181,187,l),
(471,187,l)
);
},
{
closed = 1;
nodes = (
(202,248,l),
(326,596,l),
(449,248,l)
);
}
);
width = 652;
}
);
note = Aacute;
unicode = 193;
},
{
glyphname = Abreve;
kernLeft = A;
kernRight = A;
layers = (
{
hints = (
{
horizontal = 1;
place = (0, 21);
target = up;
type = BottomGhost;
},
{
horizontal = 1;
place = (187, 61);
place = (187, 61);
type = Stem;
},
{
horizontal = 1;
place = (697, -20);
target = down;
type = TopGhost;
},
{
horizontal = 1;
place = (770, 42);
place = (770, 42);
type = Stem;
},
{
place = (175, 50);
place = (175, 50);
type = Stem;
},
{
place = (427, 50);
place = (427, 50);
type = Stem;
}
);
layerId = m01;
shapes = (
{
closed = 1;
nodes = (
(423,770,o),
(477,814,o),
(477,901,c),
(427,901,l),
(427,844,o),
(389,812,o),
(326,812,cs),
(265,812,o),
(225,842,o),
(225,901,c),
(175,901,l),
(175,816,o),
(225,770,o),
(326,770,cs)
);
},
{
closed = 1;
nodes = (
(537,0,l),
(616,0,l),
(355,697,l),
(296,697,l),
(36,0,l),
(114,0,l),
(181,187,l),
(471,187,l)
);
},
{
closed = 1;
nodes = (
(202,248,l),
(326,596,l),
(449,248,l)
);
}
);
width = 652;
}
);
note = Abreve;
unicode = 258;
},
{
glyphname = uni1EAE;
kernLeft = A;
kernRight = A;
layers = (
{
hints = (
{
horizontal = 1;
place = (0, 21);
target = up;
type = BottomGhost;
},
{
horizontal = 1;
place = (187, 61);
place = (187, 61);
type = Stem;
},
{
horizontal = 1;
place = (697, -20);
target = down;
type = TopGhost;
},
{
horizontal = 1;
place = (770, 42);
place = (770, 42);
type = Stem;
},
{
horizontal = 1;
place = (964, 141);
place = (964, 141);
type = Stem;
},
{
place = (175, 50);
place = (175, 50);
type = Stem;
},
{
place = (427, 50);
place = (427, 50);
type = Stem;
}
);
layerId = m01;
shapes = (
{
closed = 1;
nodes = (
(482,1105,l),
(408,1105,l),
(300,964,l),
(353,964,l)
);
},
{
closed = 1;
nodes = (
(423,770,o),
(477,814,o),
(477,901,c),
(427,901,l),
(427,844,o),
(389,812,o),
(326,812,cs),
(265,812,o),
(225,842,o),
(225,901,c),
(175,901,l),
(175,816,o),
(225,770,o),
(326,770,cs)
);
},
{
closed = 1;
nodes = (
(537,0,l),
(616,0,l),
(355,697,l),
(296,697,l),
(36,0,l),
(114,0,l),
(181,187,l),
(471,187,l)
);
},
{
closed = 1;
nodes = (
(202,248,l),
(326,596,l),
(449,248,l)
);
}
);
width = 652;
}
);
note = uni1EAE;
unicode = 7854;
},
{
glyphname = uni1EB6;
kernLeft = A;
kernRight = A;
layers = (
{
hints = (
{
horizontal = 1;
place = (-173, 101);
place = (-173, 101);
type = Stem;
},
{
horizontal = 1;
place = (0, 21);
target = up;
type = BottomGhost;
},
{
horizontal = 1;
place = (187, 61);
place = (187, 61);
type = Stem;
},
{
horizontal = 1;
place = (697, -20);
target = down;
type = TopGhost;
},
{
horizontal = 1;
place = (770, 42);
place = (770, 42);
type = Stem;
},
{
place = (175, 50);
place = (175, 50);
type = Stem;
},
{
place = (286, 80);
place = (286, 80);
type = Stem;
},
{
place = (427, 50);
place = (427, 50);
type = Stem;
}
);
layerId = m01;
shapes = (
{
closed = 1;
nodes = (
(423,770,o),
(477,814,o),
(477,901,c),
(427,901,l),
(427,844,o),
(389,812,o),
(326,812,cs),
(265,812,o),
(225,842,o),
(225,901,c),
(175,901,l),
(175,816,o),
(225,770,o),
(326,770,cs)
);
},
{
closed = 1;
nodes = (
(616,0,l),
(355,697,l),
(296,697,l),
(36,0,l),
(114,0,l),
(181,187,l),
(471,187,l),
(537,0,l)
);
},
{
closed = 1;
nodes = (
(202,248,l),
(326,596,l),
(449,248,l)
);
},
{
closed = 1;
nodes = (
(286,-173,l),
(366,-173,l),
(366,-72,l),
(286,-72,l)
);
}
);
width = 652;
}
);
note = uni1EB6;
unicode = 7862;
},
{
glyphname = uni1EB0;
kernLeft = A;
kernRight = A;
layers = (
{
hints = (
{
horizontal = 1;
place = (0, 21);
target = up;
type = BottomGhost;
},
{
horizontal = 1;
place = (187, 61);
place = (187, 61);
type = Stem;
},
{
horizontal = 1;
place = (697, -20);
target = down;
type = TopGhost;
},
{
horizontal = 1;
place = (770, 42);
place = (770, 42);
type = Stem;
},
{
horizontal = 1;
place = (964, 141);
place = (964, 141);
type = Stem;
},
{
place = (175, 50);
place = (175, 50);
type = Stem;
},
{
place = (427, 50);
place = (427, 50);
type = Stem;
}
);
layerId = m01;
shapes = (
{
closed = 1;
nodes = (
(353,964,l),
(249,1105,l),
(175,1105,l),
(299,964,l)
);
},
{
closed = 1;
nodes = (
(423,770,o),
(477,814,o),
(477,901,c),
(427,901,l),
(427,844,o),
(389,812,o),
(326,812,cs),
(265,812,o),
(225,842,o),
(225,901,c),
(175,901,l),
(175,816,o),
(225,770,o),
(326,770,cs)
);
},
{
closed = 1;
nodes = (
(537,0,l),
(616,0,l),
(355,697,l),
(296,697,l),
(36,0,l),
(114,0,l),
(181,187,l),
(471,187,l)
);
},
{
closed = 1;
nodes = (
(202,248,l),
(326,596,l),
(449,248,l)
);
}
);
width = 652;
}
);
note = uni1EB0;
unicode = 7856;
},
{
glyphname = uni1EB2;
kernLeft = A;
kernRight = A;
layers = (
{
hints = (
{
horizontal = 1;
place = (0, 21);
target = up;
type = BottomGhost;
},
{
horizontal = 1;
place = (187, 61);
place = (187, 61);
type = Stem;
},
{
horizontal = 1;
place = (697, -20);
target = down;
type = TopGhost;
},
{
horizontal = 1;
place = (770, 42);
place = (770, 42);
type = Stem;
},
{
horizontal = 1;
place = (1086, 40);
place = (1086, 40);
type = Stem;
},
{
place = (175, 50);
place = (175, 50);
type = Stem;
},
{
place = (388, 47);
place = (388, 47);
type = Stem;
},
{
place = (427, 50);
place = (427, 50);
type = Stem;
}
);
layerId = m01;
shapes = (
{
closed = 1;
nodes = (
(388,993,o),
(346,985,o),
(308,979,c),
(320,940,l),
(369,950,o),
(435,961,o),
(435,1028,cs),
(435,1092,o),
(376,1126,o),
(296,1126,cs),
(281,1126,l),
(281,1086,l),
(296,1086,ls),
(343,1086,o),
(388,1071,o),
(388,1030,cs)
);
},
{
closed = 1;
nodes = (
(423,770,o),
(477,814,o),
(477,901,c),
(427,901,l),
(427,844,o),
(389,812,o),
(326,812,cs),
(265,812,o),
(225,842,o),
(225,901,c),
(175,901,l),
(175,816,o),
(225,770,o),
(326,770,cs)
);
},
{
closed = 1;
nodes = (
(537,0,l),
(616,0,l),
(355,697,l),
(296,697,l),
(36,0,l),
(114,0,l),
(181,187,l),
(471,187,l)
);
},
{
closed = 1;
nodes = (
(202,248,l),
(326,596,l),
(449,248,l)
);
}
);
width = 652;
}
);
note = uni1EB2;
unicode = 7858;
},
{
glyphname = uni1EB4;
kernLeft = A;
kernRight = A;
layers = (
{
hints = (
{
horizontal = 1;
place = (0, 21);
target = up;
type = BottomGhost;
},
{
horizontal = 1;
place = (187, 61);
place = (187, 61);
type = Stem;
},
{
horizontal = 1;
place = (697, -20);
target = down;
type = TopGhost;
},
{
horizontal = 1;
place = (770, 42);
place = (770, 42);
type = Stem;
},
{
horizontal = 1;
place = (978, 45);
place = (978, 45);
type = Stem;
},
{
horizontal = 1;
place = (1065, 44);
place = (1065, 44);
type = Stem;
},
{
place = (167, 41);
place = (167, 41);
type = Stem;
},
{
place = (441, 43);
place = (441, 43);
type = Stem;
},
{
place = (175, 50);
place = (175, 50);
type = Stem;
},
{
place = (427, 50);
place = (427, 50);
type = Stem;
}
);
layerId = m01;
shapes = (
{
closed = 1;
nodes = (
(311,1065,o),
(312,978,o),
(395,978,cs),
(448,978,o),
(484,1026,o),
(484,1105,c),
(441,1105,l),
(441,1054,o),
(421,1023,o),
(395,1023,cs),
(341,1023,o),
(335,1109,o),
(260,1109,cs),
(203,1109,o),
(167,1064,o),
(167,987,c),
(208,987,l),
(208,1036,o),
(227,1065,o),
(258,1065,cs)
);
},
{
closed = 1;
nodes = (
(265,812,o),
(225,842,o),
(225,901,c),
(175,901,l),
(175,816,o),
(225,770,o),
(326,770,cs),
(423,770,o),
(477,814,o),
(477,901,c),
(427,901,l),
(427,844,o),
(389,812,o),
(326,812,cs)
);
},
{
closed = 1;
nodes = (
(537,0,l),
(616,0,l),
(355,697,l),
(296,697,l),
(36,0,l),
(114,0,l),
(181,187,l),
(471,187,l)
);
},
{
closed = 1;
nodes = (
(202,248,l),
(326,596,l),
(449,248,l)
);
}
);
width = 652;
}
);
note = uni1EB4;
unicode = 7860;
},
{
glyphname = uni01CD;
kernLeft = A;
kernRight = A;
layers = (
{
hints = (
{
horizontal = 1;
place = (0, 21);
target = up;
type = BottomGhost;
},
{
horizontal = 1;
place = (187, 61);
place = (187, 61);
type = Stem;
},
{
horizontal = 1;
place = (697, -20);
target = down;
type = TopGhost;
},
{
place = (36, 580);
place = (36, 580);
type = Stem;
}
);
layerId = m01;
shapes = (
{
closed = 1;
nodes = (
(475,901,l),
(418,901,l),
(326,806,l),
(234,901,l),
(177,901,l),
(326,748,l)
);
},
{
closed = 1;
nodes = (
(537,0,l),
(616,0,l),
(355,697,l),
(296,697,l),
(36,0,l),
(114,0,l),
(181,187,l),
(471,187,l)
);
},
{
closed = 1;
nodes = (
(202,248,l),
(326,596,l),
(449,248,l)
);
}
);
width = 652;
}
);
note = uni01CD;
unicode = 461;
},
{
glyphname = Acircumflex;
kernLeft = A;
kernRight = A;
layers = (
{
hints = (
{
horizontal = 1;
place = (0, 21);
target = up;
type = BottomGhost;
},
{
horizontal = 1;
place = (187, 61);
place = (187, 61);
type = Stem;
},
{
horizontal = 1;
place = (697, -20);
target = down;
type = TopGhost;
},
{
place = (36, 580);
place = (36, 580);
type = Stem;
}
);
layerId = m01;
shapes = (
{
closed = 1;
nodes = (
(326,850,l),
(418,752,l),
(475,752,l),
(326,911,l),
(177,752,l),
(235,752,l)
);
},
{
closed = 1;
nodes = (
(537,0,l),
(616,0,l),
(355,697,l),
(296,697,l),
(36,0,l),
(114,0,l),
(181,187,l),
(471,187,l)
);
},
{
closed = 1;
nodes = (
(202,248,l),
(326,596,l),
(449,248,l)
);
}
);
width = 652;
}
);
note = Acircumflex;
unicode = 194;
},
{
glyphname = uni1EA4;
kernLeft = A;
kernRight = A;
layers = (
{
hints = (
{
horizontal = 1;
place = (0, 21);
target = up;
type = BottomGhost;
},
{
horizontal = 1;
place = (187, 61);
place = (187, 61);
type = Stem;
},
{
horizontal = 1;
place = (697, -20);
target = down;
type = TopGhost;
},
{
horizontal = 1;
place = (949, 141);
place = (949, 141);
type = Stem;
},
{
place = (36, 580);
place = (36, 580);
type = Stem;
}
);
layerId = m01;
shapes = (
{
closed = 1;
nodes = (
(482,1090,l),
(408,1090,l),
(300,949,l),
(353,949,l)
);
},
{
closed = 1;
nodes = (
(326,850,l),
(418,752,l),
(475,752,l),
(326,911,l),
(177,752,l),
(235,752,l)
);
},
{
closed = 1;
nodes = (
(537,0,l),
(616,0,l),
(355,697,l),
(296,697,l),
(36,0,l),
(114,0,l),
(181,187,l),
(471,187,l)
);
},
{
closed = 1;
nodes = (
(202,248,l),
(326,596,l),
(449,248,l)
);
}
);
width = 652;
}
);
note = uni1EA4;
unicode = 7844;
},
{
glyphname = uni1EAC;
kernLeft = A;
kernRight = A;
layers = (
{
hints = (
{
horizontal = 1;
place = (-173, 101);
place = (-173, 101);
type = Stem;
},
{
horizontal = 1;
place = (0, 21);
target = up;
type = BottomGhost;
},
{
horizontal = 1;
place = (187, 61);
place = (187, 61);
type = Stem;
},
{
horizontal = 1;
place = (697, -20);
target = down;
type = TopGhost;
},
{
place = (286, 80);
place = (286, 80);
type = Stem;
}
);
layerId = m01;
shapes = (
{
closed = 1;
nodes = (
(326,850,l),
(418,752,l),
(475,752,l),
(326,911,l),
(177,752,l),
(235,752,l)
);
},
{
closed = 1;
nodes = (
(616,0,l),
(355,697,l),
(296,697,l),
(36,0,l),
(114,0,l),
(181,187,l),
(471,187,l),
(537,0,l)
);
},
{
closed = 1;
nodes = (
(202,248,l),
(326,596,l),
(449,248,l)
);
},
{
closed = 1;
nodes = (
(286,-173,l),
(366,-173,l),
(366,-72,l),
(286,-72,l)
);
}
);
width = 652;
}
);
note = uni1EAC;
unicode = 7852;
},
{
glyphname = uni1EA6;
kernLeft = A;
kernRight = A;
layers = (
{
hints = (
{
horizontal = 1;
place = (0, 21);
target = up;
type = BottomGhost;
},
{
horizontal = 1;
place = (187, 61);
place = (187, 61);
type = Stem;
},
{
horizontal = 1;
place = (697, -20);
target = down;
type = TopGhost;
},
{
horizontal = 1;
place = (949, 141);
place = (949, 141);
type = Stem;
},
{
place = (36, 580);
place = (36, 580);
type = Stem;
}
);
layerId = m01;
shapes = (
{
closed = 1;
nodes = (
(353,949,l),
(249,1090,l),
(175,1090,l),
(299,949,l)
);
},
{
closed = 1;
nodes = (
(177,752,l),
(235,752,l),
(326,850,l),
(418,752,l),
(475,752,l),
(326,911,l)
);
},
{
closed = 1;
nodes = (
(537,0,l),
(616,0,l),
(355,697,l),
(296,697,l),
(36,0,l),
(114,0,l),
(181,187,l),
(471,187,l)
);
},
{
closed = 1;
nodes = (
(202,248,l),
(326,596,l),
(449,248,l)
);
}
);
width = 652;
}
);
note = uni1EA6;
unicode = 7846;
},
{
glyphname = uni1EA8;
kernLeft = A;
kernRight = A;
layers = (
{
hints = (
{
horizontal = 1;
place = (0, 21);
target = up;
type = BottomGhost;
},
{
horizontal = 1;
place = (187, 61);
place = (187, 61);
type = Stem;
},
{
horizontal = 1;
place = (697, -20);
target = down;
type = TopGhost;
},
{
horizontal = 1;
place = (1071, 40);
place = (1071, 40);
type = Stem;
},
{
place = (388, 47);
place = (388, 47);
type = Stem;
}
);
layerId = m01;
shapes = (
{
closed = 1;
nodes = (
(388,978,o),
(346,970,o),
(308,964,c),
(320,925,l),
(369,935,o),
(435,946,o),
(435,1013,cs),
(435,1077,o),
(376,1111,o),
(296,1111,cs),
(281,1111,l),
(281,1071,l),
(296,1071,ls),
(343,1071,o),
(388,1056,o),
(388,1015,cs)
);
},
{
closed = 1;
nodes = (
(326,850,l),
(418,752,l),
(475,752,l),
(326,911,l),
(177,752,l),
(235,752,l)
);
},
{
closed = 1;
nodes = (
(537,0,l),
(616,0,l),
(355,697,l),
(296,697,l),
(36,0,l),
(114,0,l),
(181,187,l),
(471,187,l)
);
},
{
closed = 1;
nodes = (
(202,248,l),
(326,596,l),
(449,248,l)
);
}
);
width = 652;
}
);
note = uni1EA8;
unicode = 7848;
},
{
glyphname = uni1EAA;
kernLeft = A;
kernRight = A;
layers = (
{
hints = (
{
horizontal = 1;
place = (0, 21);
target = up;
type = BottomGhost;
},
{
horizontal = 1;
place = (187, 61);
place = (187, 61);
type = Stem;
},
{
horizontal = 1;
place = (697, -20);
target = down;
type = TopGhost;
},
{
horizontal = 1;
place = (963, 45);
place = (963, 45);
type = Stem;
},
{
horizontal = 1;
place = (1050, 44);
place = (1050, 44);
type = Stem;
},
{
place = (167, 41);
place = (167, 41);
type = Stem;
},
{
place = (441, 43);
place = (441, 43);
type = Stem;
}
);
layerId = m01;
shapes = (
{
closed = 1;
nodes = (
(311,1050,o),
(312,963,o),
(395,963,cs),
(448,963,o),
(484,1011,o),
(484,1090,c),
(441,1090,l),
(441,1039,o),
(421,1008,o),
(395,1008,cs),
(341,1008,o),
(335,1094,o),
(260,1094,cs),
(203,1094,o),
(167,1049,o),
(167,972,c),
(208,972,l),
(208,1021,o),
(227,1050,o),
(258,1050,cs)
);
},
{
closed = 1;
nodes = (
(177,752,l),
(235,752,l),
(326,850,l),
(418,752,l),
(475,752,l),
(326,911,l)
);
},
{
closed = 1;
nodes = (
(537,0,l),
(616,0,l),
(355,697,l),
(296,697,l),
(36,0,l),
(114,0,l),
(181,187,l),
(471,187,l)
);
},
{
closed = 1;
nodes = (
(202,248,l),
(326,596,l),
(449,248,l)
);
}
);
width = 652;
}
);
note = uni1EAA;
unicode = 7850;
},
{
glyphname = Adieresis;
kernLeft = A;
kernRight = A;
layers = (
{
hints = (
{
horizontal = 1;
place = (0, 21);
target = up;
type = BottomGhost;
},
{
horizontal = 1;
place = (187, 61);
place = (187, 61);
type = Stem;
},
{
horizontal = 1;
place = (697, -20);
target = down;
type = TopGhost;
},
{
horizontal = 1;
place = (799, 102);
place = (799, 102);
type = Stem;
},
{
place = (196, 80);
place = (196, 80);
type = Stem;
},
{
place = (376, 80);
place = (376, 80);
type = Stem;
}
);
layerId = m01;
shapes = (
{
closed = 1;
nodes = (
(276,901,l),
(196,901,l),
(196,799,l),
(276,799,l)
);
},
{
closed = 1;
nodes = (
(456,901,l),
(376,901,l),
(376,799,l),
(456,799,l)
);
},
{
closed = 1;
nodes = (
(537,0,l),
(616,0,l),
(355,697,l),
(296,697,l),
(36,0,l),
(114,0,l),
(181,187,l),
(471,187,l)
);
},
{
closed = 1;
nodes = (
(202,248,l),
(326,596,l),
(449,248,l)
);
}
);
width = 652;
}
);
note = Adieresis;
unicode = 196;
},
{
glyphname = uni1EA0;
kernLeft = A;
kernRight = A;
layers = (
{
hints = (
{
horizontal = 1;
place = (-173, 101);
place = (-173, 101);
type = Stem;
},
{
horizontal = 1;
place = (0, 21);
target = up;
type = BottomGhost;
},
{
horizontal = 1;
place = (187, 61);
place = (187, 61);
type = Stem;
},
{
horizontal = 1;
place = (697, -20);
target = down;
type = TopGhost;
},
{
place = (286, 80);
place = (286, 80);
type = Stem;
}
);
layerId = m01;
shapes = (
{
closed = 1;
nodes = (
(616,0,l),
(355,697,l),
(296,697,l),
(36,0,l),
(114,0,l),
(181,187,l),
(471,187,l),
(537,0,l)
);
},
{
closed = 1;
nodes = (
(202,248,l),
(326,596,l),
(449,248,l)
);
},
{
closed = 1;
nodes = (
(286,-173,l),
(366,-173,l),
(366,-72,l),
(286,-72,l)
);
}
);
width = 652;
}
);
note = uni1EA0;
unicode = 7840;
},
{
glyphname = Agrave;
kernLeft = A;
kernRight = A;
layers = (
{
hints = (
{
horizontal = 1;
place = (0, 21);
target = up;
type = BottomGhost;
},
{
horizontal = 1;
place = (187, 61);
place = (187, 61);
type = Stem;
},
{
horizontal = 1;
place = (697, -20);
target = down;
type = TopGhost;
},
{
horizontal = 1;
place = (760, 141);
place = (760, 141);
type = Stem;
},
{
place = (36, 580);
place = (36, 580);
type = Stem;
}
);
layerId = m01;
shapes = (
{
closed = 1;
nodes = (
(353,760,l),
(249,901,l),
(175,901,l),
(299,760,l)
);
},
{
closed = 1;
nodes = (
(537,0,l),
(616,0,l),
(355,697,l),
(296,697,l),
(36,0,l),
(114,0,l),
(181,187,l),
(471,187,l)
);
},
{
closed = 1;
nodes = (
(202,248,l),
(326,596,l),
(449,248,l)
);
}
);
width = 652;
}
);
note = Agrave;
unicode = 192;
},
{
glyphname = uni1EA2;
kernLeft = A;
kernRight = A;
layers = (
{
hints = (
{
horizontal = 1;
place = (0, 21);
target = up;
type = BottomGhost;
},
{
horizontal = 1;
place = (187, 61);
place = (187, 61);
type = Stem;
},
{
horizontal = 1;
place = (697, -20);
target = down;
type = TopGhost;
},
{
horizontal = 1;
place = (882, 40);
place = (882, 40);
type = Stem;
},
{
place = (388, 47);
place = (388, 47);
type = Stem;
}
);
layerId = m01;
shapes = (
{
closed = 1;
nodes = (
(388,789,o),
(346,781,o),
(308,775,c),
(320,736,l),
(369,746,o),
(435,757,o),
(435,824,cs),
(435,888,o),
(376,922,o),
(296,922,cs),
(281,922,l),
(281,882,l),
(296,882,ls),
(343,882,o),
(388,867,o),
(388,826,cs)
);
},
{
closed = 1;
nodes = (
(537,0,l),
(616,0,l),
(355,697,l),
(296,697,l),
(36,0,l),
(114,0,l),
(181,187,l),
(471,187,l)
);
},
{
closed = 1;
nodes = (
(202,248,l),
(326,596,l),
(449,248,l)
);
}
);
width = 652;
}
);
note = uni1EA2;
unicode = 7842;
},
{
glyphname = Amacron;
kernLeft = A;
kernRight = A;
layers = (
{
hints = (
{
horizontal = 1;
place = (0, 21);
target = up;
type = BottomGhost;
},
{
horizontal = 1;
place = (187, 61);
place = (187, 61);
type = Stem;
},
{
horizontal = 1;
place = (697, -20);
target = down;
type = TopGhost;
},
{
horizontal = 1;
place = (803, 42);
place = (803, 42);
type = Stem;
},
{
place = (36, 580);
place = (36, 580);
type = Stem;
}
);
layerId = m01;
shapes = (
{
closed = 1;
nodes = (
(460,845,l),
(190,845,l),
(190,803,l),
(460,803,l)
);
},
{
closed = 1;
nodes = (
(537,0,l),
(616,0,l),
(355,697,l),
(296,697,l),
(36,0,l),
(114,0,l),
(181,187,l),
(471,187,l)
);
},
{
closed = 1;
nodes = (
(202,248,l),
(326,596,l),
(449,248,l)
);
}
);
width = 652;
}
);
note = Amacron;
unicode = 256;
},
{
glyphname = Aogonek;
kernLeft = A;
kernRight = A;
layers = (
{
hints = (
{
horizontal = 1;
place = (-214, 45);
place = (-214, 45);
type = Stem;
},
{
horizontal = 1;
place = (0, 21);
target = up;
type = BottomGhost;
},
{
horizontal = 1;
place = (187, 61);
place = (187, 61);
type = Stem;
},
{
horizontal = 1;
place = (697, -20);
target = down;
type = TopGhost;
},
{
place = (472, 43);
place = (472, 43);
type = Stem;
}
);
layerId = m01;
shapes = (
{
closed = 1;
nodes = (
(622,-142,l),
(604,-159,o),
(584,-169,o),
(561,-169,cs),
(537,-169,o),
(515,-157,o),
(515,-124,cs),
(515,-63,o),
(581,-21,o),
(616,0,c),
(355,697,l),
(296,697,l),
(36,0,l),
(114,0,l),
(181,187,l),
(471,187,l),
(537,0,l),
(558,0,l),
(517,-26,o),
(472,-72,o),
(472,-130,cs),
(472,-182,o),
(512,-214,o),
(563,-214,cs),
(600,-214,o),
(632,-196,o),
(656,-169,c)
);
},
{
closed = 1;
nodes = (
(202,248,l),
(326,596,l),
(449,248,l)
);
}
);
width = 652;
}
);
note = Aogonek;
unicode = 260;
},
{
glyphname = Aring;
kernLeft = A;
kernRight = A;
layers = (
{
hints = (
{
horizontal = 1;
place = (0, 21);
target = up;
type = BottomGhost;
},
{
horizontal = 1;
place = (187, 61);
place = (187, 61);
type = Stem;
},
{
horizontal = 1;
place = (837, 39);
place = (837, 39);
type = Stem;
},
{
place = (229, 39);
place = (229, 39);
type = Stem;
},
{
place = (384, 39);
place = (384, 39);
type = Stem;
}
);
layerId = m01;
shapes = (
{
closed = 1;
nodes = (
(537,0,l),
(616,0,l),
(359,688,l),
(396,701,o),
(423,737,o),
(423,779,cs),
(423,833,o),
(378,876,o),
(326,876,cs),
(273,876,o),
(229,833,o),
(229,779,cs),
(229,738,o),
(255,702,o),
(293,688,c),
(36,0,l),
(114,0,l),
(181,187,l),
(471,187,l)
);
},
{
closed = 1;
nodes = (
(268,812,o),
(293,837,o),
(326,837,cs),
(360,837,o),
(384,812,o),
(384,779,cs),
(384,747,o),
(359,721,o),
(326,721,cs),
(293,721,o),
(268,747,o),
(268,779,cs)
);
},
{
closed = 1;
nodes = (
(202,248,l),
(326,596,l),
(449,248,l)
);
}
);
width = 652;
}
);
note = Aring;
unicode = 197;
},
{
glyphname = Atilde;
kernLeft = A;
kernRight = A;
layers = (
{
hints = (
{
horizontal = 1;
place = (0, 21);
target = up;
type = BottomGhost;
},
{
horizontal = 1;
place = (187, 61);
place = (187, 61);
type = Stem;
},
{
horizontal = 1;
place = (697, -20);
target = down;
type = TopGhost;
},
{
horizontal = 1;
place = (774, 45);
place = (774, 45);
type = Stem;
},
{
horizontal = 1;
place = (861, 44);
place = (861, 44);
type = Stem;
},
{
place = (167, 41);
place = (167, 41);
type = Stem;
},
{
place = (441, 43);
place = (441, 43);
type = Stem;
}
);
layerId = m01;
shapes = (
{
closed = 1;
nodes = (
(311,861,o),
(312,774,o),
(395,774,cs),
(448,774,o),
(484,822,o),
(484,901,c),
(441,901,l),
(441,850,o),
(421,819,o),
(395,819,cs),
(341,819,o),
(335,905,o),
(260,905,cs),
(203,905,o),
(167,860,o),
(167,783,c),
(208,783,l),
(208,832,o),
(227,861,o),
(258,861,cs)
);
},
{
closed = 1;
nodes = (
(537,0,l),
(616,0,l),
(355,697,l),
(296,697,l),
(36,0,l),
(114,0,l),
(181,187,l),
(471,187,l)
);
},
{
closed = 1;
nodes = (
(202,248,l),
(326,596,l),
(449,248,l)
);
}
);
width = 652;
}
);
note = Atilde;
unicode = 195;
},
{
glyphname = AE;
kernLeft = A;
layers = (
{
hints = (
{
horizontal = 1;
place = (0, 65);
place = (0, 65);
type = Stem;
},
{
horizontal = 1;
place = (167, 56);
place = (167, 56);
type = Stem;
},
{
horizontal = 1;
place = (319, 61);
place = (319, 61);
type = Stem;
},
{
horizontal = 1;
place = (634, 63);
place = (634, 63);
type = Stem;
},
{
place = (399, 73);
place = (399, 73);
type = Stem;
},
{
horizontal = 1;
place = (636, 61);
place = (636, 61);
type = Stem;
}
);
layerId = m01;
shapes = (
{
closed = 1;
nodes = (
(36,0,l),
(114,0,l),
(173,167,l),
(399,167,l),
(399,0,l),
(847,0,l),
(847,65,l),
(472,65,l),
(472,319,l),
(798,319,l),
(798,380,l),
(472,380,l),
(472,634,l),
(847,634,l),
(847,697,l),
(296,697,l)
);
},
{
closed = 1;
nodes = (
(195,223,l),
(341,636,l),
(399,636,l),
(399,223,l)
);
}
);
width = 906;
}
);
note = AE;
unicode = 198;
},
{
glyphname = B;
kernLeft = B;
kernRight = B;
lastChange = "2022-12-21 09:03:19 +0000";
layers = (
{
hints = (
{
horizontal = 1;
place = (0, 66);
place = (0, 66);
type = Stem;
},
{
horizontal = 1;
place = (331, 62);
place = (331, 62);
type = Stem;
},
{
horizontal = 1;
place = (631, 66);
place = (631, 66);
type = Stem;
},
{
place = (114, 71);
place = (114, 71);
type = Stem;
},
{
place = (500, 72);
place = (500, 72);
type = Stem;
},
{
place = (465, 71);
place = (465, 71);
type = Stem;
}
);
layerId = m01;
shapes = (
{
closed = 1;
nodes = (
(114,0,l),
(349,0,ls),
(492,0,o),
(572,70,o),
(572,195,cs),
(572,288,o),
(527,350,o),
(444,371,c),
(503,396,o),
(536,451,o),
(536,523,cs),
(536,633,o),
(459,697,o),
(328,697,cs),
(129,697,ls),
(121,697,o),
(114,690,o),
(114,682,cs)
);
},
{
closed = 1;
nodes = (
(185,393,l),
(185,631,l),
(328,631,ls),
(415,631,o),
(465,587,o),
(465,511,cs),
(465,438,o),
(419,393,o),
(342,393,cs)
);
},
{
closed = 1;
nodes = (
(185,66,l),
(185,331,l),
(363,331,ls),
(450,331,o),
(500,283,o),
(500,201,cs),
(500,114,o),
(444,66,o),
(344,66,cs)
);
}
);
width = 638;
}
);
note = B;
unicode = 66;
},
{
glyphname = C;
kernLeft = C;
kernRight = C;
lastChange = "2022-12-21 08:59:39 +0000";
layers = (
{
hints = (
{
horizontal = 1;
place = (-10, 68);
place = (-10, 68);
type = Stem;
},
{
horizontal = 1;
place = (639, 68);
place = (639, 68);
type = Stem;
},
{
place = (68, 71);
place = (68, 71);
type = Stem;
}
);
layerId = m01;
shapes = (
{
closed = 1;
nodes = (
(625,204,ls),
(616,207,o),
(609,204,o),
(605,195,cs),
(564,104,o),
(489,58,o),
(385,58,cs),
(229,58,o),
(139,164,o),
(139,350,cs),
(139,535,o),
(230,639,o),
(390,639,cs),
(495,639,o),
(566,595,o),
(605,505,cs),
(609,495,o),
(616,492,o),
(625,496,cs),
(677,516,l),
(628,643,o),
(530,707,o),
(390,707,cs),
(189,707,o),
(68,574,o),
(68,350,cs),
(68,125,o),
(187,-10,o),
(385,-10,cs),
(524,-10,o),
(627,57,o),
(679,184,c)
);
}
);
width = 729;
}
);
note = C;
unicode = 67;
},
{
glyphname = Cacute;
kernLeft = C;
kernRight = C;
layers = (
{
hints = (
{
horizontal = 1;
place = (-10, 68);
place = (-10, 68);
type = Stem;
},
{
horizontal = 1;
place = (639, 68);
place = (639, 68);
type = Stem;
},
{
horizontal = 1;
place = (760, 141);
place = (760, 141);
type = Stem;
},
{
place = (68, 71);
place = (68, 71);
type = Stem;
}
);
layerId = m01;
shapes = (
{
closed = 1;
nodes = (
(367,760,l),
(420,760,l),
(549,901,l),
(475,901,l)
);
},
{
closed = 1;
nodes = (
(524,-10,o),
(627,57,o),
(679,184,c),
(611,209,l),
(572,109,o),
(494,58,o),
(385,58,cs),
(229,58,o),
(139,164,o),
(139,350,cs),
(139,535,o),
(230,639,o),
(390,639,cs),
(500,639,o),
(574,591,o),
(611,491,c),
(677,516,l),
(628,643,o),
(530,707,o),
(390,707,cs),
(189,707,o),
(68,574,o),
(68,350,cs),
(68,125,o),
(187,-10,o),
(385,-10,cs)
);
}
);
width = 729;
}
);
note = Cacute;
unicode = 262;
},
{
glyphname = Ccaron;
kernLeft = C;
kernRight = C;
layers = (
{
hints = (
{
horizontal = 1;
place = (-10, 68);
place = (-10, 68);
type = Stem;
},
{
horizontal = 1;
place = (639, 68);
place = (639, 68);
type = Stem;
},
{
place = (68, 71);
place = (68, 71);
type = Stem;
}
);
layerId = m01;
shapes = (
{
closed = 1;
nodes = (
(393,748,l),
(542,901,l),
(485,901,l),
(393,806,l),
(301,901,l),
(244,901,l)
);
},
{
closed = 1;
nodes = (
(524,-10,o),
(627,57,o),
(679,184,c),
(611,209,l),
(572,109,o),
(494,58,o),
(385,58,cs),
(229,58,o),
(139,164,o),
(139,350,cs),
(139,535,o),
(230,639,o),
(390,639,cs),
(500,639,o),
(574,591,o),
(611,491,c),
(677,516,l),
(628,643,o),
(530,707,o),
(390,707,cs),
(189,707,o),
(68,574,o),
(68,350,cs),
(68,125,o),
(187,-10,o),
(385,-10,cs)
);
}
);
width = 729;
}
);
note = Ccaron;
unicode = 268;
},
{
glyphname = Ccedilla;
kernLeft = C;
kernRight = C;
layers = (
{
hints = (
{
horizontal = 1;
place = (-255, 42);
place = (-255, 42);
type = Stem;
},
{
horizontal = 1;
place = (-94, 30);
place = (-94, 30);
type = Stem;
},
{
horizontal = 1;
place = (-10, 68);
place = (-10, 68);
type = Stem;
},
{
horizontal = 1;
place = (639, 68);
place = (639, 68);
type = Stem;
},
{
place = (68, 71);
place = (68, 71);
type = Stem;
},
{
place = (448, 42);
place = (448, 42);
type = Stem;
}
);
layerId = m01;
shapes = (
{
closed = 1;
nodes = (
(611,209,l),
(572,109,o),
(494,58,o),
(385,58,cs),
(229,58,o),
(139,164,o),
(139,350,cs),
(139,535,o),
(230,639,o),
(390,639,cs),
(500,639,o),
(574,591,o),
(611,491,c),
(677,516,l),
(628,643,o),
(530,707,o),
(390,707,cs),
(189,707,o),
(68,574,o),
(68,350,cs),
(68,132,o),
(179,-1,o),
(366,-10,c),
(317,-94,l),
(347,-94,o),
(373,-96,o),
(393,-101,cs),
(424,-109,o),
(448,-125,o),
(448,-158,cs),
(448,-193,o),
(426,-213,o),
(389,-213,cs),
(365,-213,o),
(339,-201,o),
(323,-175,c),
(298,-208,l),
(320,-239,o),
(356,-255,o),
(387,-255,cs),
(449,-255,o),
(490,-214,o),
(490,-157,cs),
(490,-119,o),
(471,-95,o),
(438,-80,cs),
(420,-72,o),
(400,-68,o),
(374,-64,c),
(408,-9,l),
(535,-2,o),
(630,64,o),
(679,184,c)
);
}
);
width = 729;
}
);
note = Ccedilla;
unicode = 199;
},
{
glyphname = Cdotaccent;
kernLeft = C;
kernRight = C;
layers = (
{
hints = (
{
horizontal = 1;
place = (-10, 68);
place = (-10, 68);
type = Stem;
},
{
horizontal = 1;
place = (639, 68);
place = (639, 68);
type = Stem;
},
{
horizontal = 1;
place = (799, 102);
place = (799, 102);
type = Stem;
},
{
place = (68, 71);
place = (68, 71);
type = Stem;
},
{
place = (353, 80);
place = (353, 80);
type = Stem;
}
);
layerId = m01;
shapes = (
{
closed = 1;
nodes = (
(353,799,l),
(433,799,l),
(433,901,l),
(353,901,l)
);
},
{
closed = 1;
nodes = (
(524,-10,o),
(627,57,o),
(679,184,c),
(611,209,l),
(572,109,o),
(494,58,o),
(385,58,cs),
(229,58,o),
(139,164,o),
(139,350,cs),
(139,535,o),
(230,639,o),
(390,639,cs),
(500,639,o),
(574,591,o),
(611,491,c),
(677,516,l),
(628,643,o),
(530,707,o),
(390,707,cs),
(189,707,o),
(68,574,o),
(68,350,cs),
(68,125,o),
(187,-10,o),
(385,-10,cs)
);
}
);
width = 729;
}
);
note = Cdotaccent;
unicode = 266;
},
{
glyphname = D;
kernLeft = B;
kernRight = D;
lastChange = "2022-12-21 09:00:06 +0000";
layers = (
{
hints = (
{
horizontal = 1;
place = (0, 66);
place = (0, 66);
type = Stem;
},
{
horizontal = 1;
place = (631, 66);
place = (631, 66);
type = Stem;
},
{
place = (114, 71);
place = (114, 71);
type = Stem;
},
{
place = (587, 72);
place = (587, 72);
type = Stem;
}
);
layerId = m01;
shapes = (
{
closed = 1;
nodes = (
(135,697,ls),
(121,697,o),
(114,690,o),
(114,676,cs),
(114,0,l),
(302,0,ls),
(533,0,o),
(659,121,o),
(659,343,cs),
(659,568,o),
(530,697,o),
(303,697,cs)
);
},
{
closed = 1;
nodes = (
(185,66,l),
(185,631,l),
(302,631,ls),
(491,631,o),
(587,535,o),
(587,346,cs),
(587,158,o),
(491,66,o),
(296,66,cs)
);
}
);
width = 725;
}
);
note = D;
unicode = 68;
},
{
glyphname = Eth;
kernLeft = B;
kernRight = D;
layers = (
{
hints = (
{
horizontal = 1;
place = (0, 66);
place = (0, 66);
type = Stem;
},
{
horizontal = 1;
place = (325, 47);
place = (325, 47);
type = Stem;
},
{
horizontal = 1;
place = (631, 66);
place = (631, 66);
type = Stem;
},
{
place = (114, 71);
place = (114, 71);
type = Stem;
},
{
place = (587, 72);
place = (587, 72);
type = Stem;
}
);
layerId = m01;
shapes = (
{
closed = 1;
nodes = (
(114,697,l),
(114,372,l),
(40,372,l),
(40,325,l),
(114,325,l),
(114,0,l),
(302,0,ls),
(533,0,o),
(659,121,o),
(659,343,cs),
(659,568,o),
(530,697,o),
(303,697,cs)
);
},
{
closed = 1;
nodes = (
(185,66,l),
(185,325,l),
(310,325,l),
(310,372,l),
(185,372,l),
(185,631,l),
(302,631,ls),
(491,631,o),
(587,535,o),
(587,346,cs),
(587,158,o),
(491,66,o),
(296,66,cs)
);
}
);
width = 725;
}
);
note = Eth;
unicode = 208;
},
{
glyphname = Dcaron;
kernLeft = B;
kernRight = D;
layers = (
{
hints = (
{
horizontal = 1;
place = (0, 66);
place = (0, 66);
type = Stem;
},
{
horizontal = 1;
place = (631, 66);
place = (631, 66);
type = Stem;
},
{
place = (114, 71);
place = (114, 71);
type = Stem;
},
{
place = (587, 72);
place = (587, 72);
type = Stem;
}
);
layerId = m01;
shapes = (
{
closed = 1;
nodes = (
(364,748,l),
(513,901,l),
(456,901,l),
(364,806,l),
(272,901,l),
(215,901,l)
);
},
{
closed = 1;
nodes = (
(114,0,l),
(302,0,ls),
(533,0,o),
(659,121,o),
(659,343,cs),
(659,568,o),
(530,697,o),
(303,697,cs),
(114,697,l)
);
},
{
closed = 1;
nodes = (
(185,66,l),
(185,631,l),
(302,631,ls),
(491,631,o),
(587,535,o),
(587,346,cs),
(587,158,o),
(491,66,o),
(296,66,cs)
);
}
);
width = 725;
}
);
note = Dcaron;
unicode = 270;
},
{
glyphname = Dcroat;
kernLeft = B;
kernRight = D;
layers = (
{
hints = (
{
horizontal = 1;
place = (0, 66);
place = (0, 66);
type = Stem;
},
{
horizontal = 1;
place = (325, 47);
place = (325, 47);
type = Stem;
},
{
horizontal = 1;
place = (631, 66);
place = (631, 66);
type = Stem;
},
{
place = (114, 71);
place = (114, 71);
type = Stem;
},
{
place = (587, 72);
place = (587, 72);
type = Stem;
}
);
layerId = m01;
shapes = (
{
closed = 1;
nodes = (
(114,697,l),
(114,372,l),
(40,372,l),
(40,325,l),
(114,325,l),
(114,0,l),
(302,0,ls),
(533,0,o),
(659,121,o),
(659,343,cs),
(659,568,o),
(530,697,o),
(303,697,cs)
);
},
{
closed = 1;
nodes = (
(185,66,l),
(185,325,l),
(310,325,l),
(310,372,l),
(185,372,l),
(185,631,l),
(302,631,ls),
(491,631,o),
(587,535,o),
(587,346,cs),
(587,158,o),
(491,66,o),
(296,66,cs)
);
}
);
width = 725;
}
);
note = Dcroat;
unicode = 272;
},
{
glyphname = E;
kernLeft = B;
lastChange = "2022-12-21 09:00:32 +0000";
layers = (
{
hints = (
{
horizontal = 1;
place = (0, 66);
place = (0, 66);
type = Stem;
},
{
horizontal = 1;
place = (322, 66);
place = (322, 66);
type = Stem;
},
{
horizontal = 1;
place = (631, 66);
place = (631, 66);
type = Stem;
},
{
place = (114, 71);
place = (114, 71);
type = Stem;
}
);
layerId = m01;
shapes = (
{
closed = 1;
nodes = (
(114,0,l),
(571,0,l),
(571,66,l),
(185,66,l),
(185,322,l),
(532,322,l),
(532,334,o),
(532,352,o),
(532,366,cs),
(532,378,o),
(523,388,o),
(511,388,c),
(185,388,l),
(185,631,l),
(571,631,l),
(571,697,l),
(114,697,l)
);
}
);
width = 632;
}
);
note = E;
unicode = 69;
},
{
glyphname = Eacute;
kernLeft = B;
layers = (
{
hints = (
{
horizontal = 1;
place = (0, 66);
place = (0, 66);
type = Stem;
},
{
horizontal = 1;
place = (322, 66);
place = (322, 66);
type = Stem;
},
{
horizontal = 1;
place = (631, 66);
place = (631, 66);
type = Stem;
},
{
horizontal = 1;
place = (760, 141);
place = (760, 141);
type = Stem;
},
{
place = (114, 71);
place = (114, 71);
type = Stem;
}
);
layerId = m01;
shapes = (
{
closed = 1;
nodes = (
(316,760,l),
(369,760,l),
(498,901,l),
(424,901,l)
);
},
{
closed = 1;
nodes = (
(114,0,l),
(571,0,l),
(571,66,l),
(185,66,l),
(185,322,l),
(532,322,l),
(532,388,l),
(185,388,l),
(185,631,l),
(571,631,l),
(571,697,l),
(114,697,l)
);
}
);
width = 632;
}
);
note = Eacute;
unicode = 201;
},
{
glyphname = Ecaron;
kernLeft = B;
layers = (
{
hints = (
{
horizontal = 1;
place = (0, 66);
place = (0, 66);
type = Stem;
},
{
horizontal = 1;
place = (322, 66);
place = (322, 66);
type = Stem;
},
{
horizontal = 1;
place = (631, 66);
place = (631, 66);
type = Stem;
},
{
place = (114, 71);
place = (114, 71);
type = Stem;
}
);
layerId = m01;
shapes = (
{
closed = 1;
nodes = (
(342,748,l),
(491,901,l),
(434,901,l),
(342,806,l),
(250,901,l),
(193,901,l)
);
},
{
closed = 1;
nodes = (
(114,0,l),
(571,0,l),
(571,66,l),
(185,66,l),
(185,322,l),
(532,322,l),
(532,388,l),
(185,388,l),
(185,631,l),
(571,631,l),
(571,697,l),
(114,697,l)
);
}
);
width = 632;
}
);
note = Ecaron;
unicode = 282;
},
{
glyphname = Ecircumflex;
kernLeft = B;
layers = (
{
hints = (
{
horizontal = 1;
place = (0, 66);
place = (0, 66);
type = Stem;
},
{
horizontal = 1;
place = (322, 66);
place = (322, 66);
type = Stem;
},
{
horizontal = 1;
place = (631, 66);
place = (631, 66);
type = Stem;
},
{
place = (114, 71);
place = (114, 71);
type = Stem;
}
);
layerId = m01;
shapes = (
{
closed = 1;
nodes = (
(193,752,l),
(251,752,l),
(342,850,l),
(434,752,l),
(491,752,l),
(342,911,l)
);
},
{
closed = 1;
nodes = (
(114,0,l),
(571,0,l),
(571,66,l),
(185,66,l),
(185,322,l),
(532,322,l),
(532,388,l),
(185,388,l),
(185,631,l),
(571,631,l),
(571,697,l),
(114,697,l)
);
}
);
width = 632;
}
);
note = Ecircumflex;
unicode = 202;
},
{
glyphname = uni1EBE;
kernLeft = B;
layers = (
{
hints = (
{
horizontal = 1;
place = (0, 66);
place = (0, 66);
type = Stem;
},
{
horizontal = 1;
place = (322, 66);
place = (322, 66);
type = Stem;
},
{
horizontal = 1;
place = (631, 66);
place = (631, 66);
type = Stem;
},
{
horizontal = 1;
place = (949, 141);
place = (949, 141);
type = Stem;
},
{
place = (114, 71);
place = (114, 71);
type = Stem;
}
);
layerId = m01;
shapes = (
{
closed = 1;
nodes = (
(316,949,l),
(369,949,l),
(498,1090,l),
(424,1090,l)
);
},
{
closed = 1;
nodes = (
(193,752,l),
(251,752,l),
(342,850,l),
(434,752,l),
(491,752,l),
(342,911,l)
);
},
{
closed = 1;
nodes = (
(114,0,l),
(571,0,l),
(571,66,l),
(185,66,l),
(185,322,l),
(532,322,l),
(532,388,l),
(185,388,l),
(185,631,l),
(571,631,l),
(571,697,l),
(114,697,l)
);
}
);
width = 632;
}
);
note = uni1EBE;
unicode = 7870;
},
{
glyphname = uni1EC6;
kernLeft = B;
layers = (
{
hints = (
{
horizontal = 1;
place = (-173, 101);
place = (-173, 101);
type = Stem;
},
{
horizontal = 1;
place = (0, 66);
place = (0, 66);
type = Stem;
},
{
horizontal = 1;
place = (322, 66);
place = (322, 66);
type = Stem;
},
{
horizontal = 1;
place = (631, 66);
place = (631, 66);
type = Stem;
},
{
place = (114, 71);
place = (114, 71);
type = Stem;
},
{
place = (302, 80);
place = (302, 80);
type = Stem;
}
);
layerId = m01;
shapes = (
{
closed = 1;
nodes = (
(193,752,l),
(251,752,l),
(342,850,l),
(434,752,l),
(491,752,l),
(342,911,l)
);
},
{
closed = 1;
nodes = (
(114,0,l),
(571,0,l),
(571,66,l),
(185,66,l),
(185,322,l),
(532,322,l),
(532,388,l),
(185,388,l),
(185,631,l),
(571,631,l),
(571,697,l),
(114,697,l)
);
},
{
closed = 1;
nodes = (
(302,-173,l),
(382,-173,l),
(382,-72,l),
(302,-72,l)
);
}
);
width = 632;
}
);
note = uni1EC6;
unicode = 7878;
},
{
glyphname = uni1EC0;
kernLeft = B;
layers = (
{
hints = (
{
horizontal = 1;
place = (0, 66);
place = (0, 66);
type = Stem;
},
{
horizontal = 1;
place = (322, 66);
place = (322, 66);
type = Stem;
},
{
horizontal = 1;
place = (631, 66);
place = (631, 66);
type = Stem;
},
{
horizontal = 1;
place = (949, 141);
place = (949, 141);
type = Stem;
},
{
place = (114, 71);
place = (114, 71);
type = Stem;
}
);
layerId = m01;
shapes = (
{
closed = 1;
nodes = (
(315,949,l),
(369,949,l),
(265,1090,l),
(191,1090,l)
);
},
{
closed = 1;
nodes = (
(193,752,l),
(251,752,l),
(342,850,l),
(434,752,l),
(491,752,l),
(342,911,l)
);
},
{
closed = 1;
nodes = (
(114,0,l),
(571,0,l),
(571,66,l),
(185,66,l),
(185,322,l),
(532,322,l),
(532,388,l),
(185,388,l),
(185,631,l),
(571,631,l),
(571,697,l),
(114,697,l)
);
}
);
width = 632;
}
);
note = uni1EC0;
unicode = 7872;
},
{
glyphname = uni1EC2;
kernLeft = B;
layers = (
{
hints = (
{
horizontal = 1;
place = (0, 66);
place = (0, 66);
type = Stem;
},
{
horizontal = 1;
place = (322, 66);
place = (322, 66);
type = Stem;
},
{
horizontal = 1;
place = (631, 66);
place = (631, 66);
type = Stem;
},
{
horizontal = 1;
place = (1071, 40);
place = (1071, 40);
type = Stem;
},
{
place = (114, 71);
place = (114, 71);
type = Stem;
},
{
place = (404, 47);
place = (404, 47);
type = Stem;
}
);
layerId = m01;
shapes = (
{
closed = 1;
nodes = (
(336,925,l),
(385,935,o),
(451,946,o),
(451,1013,cs),
(451,1077,o),
(392,1111,o),
(312,1111,cs),
(297,1111,l),
(297,1071,l),
(312,1071,ls),
(359,1071,o),
(404,1056,o),
(404,1015,cs),
(404,978,o),
(362,970,o),
(324,964,c)
);
},
{
closed = 1;
nodes = (
(193,752,l),
(251,752,l),
(342,850,l),
(434,752,l),
(491,752,l),
(342,911,l)
);
},
{
closed = 1;
nodes = (
(114,0,l),
(571,0,l),
(571,66,l),
(185,66,l),
(185,322,l),
(532,322,l),
(532,388,l),
(185,388,l),
(185,631,l),
(571,631,l),
(571,697,l),
(114,697,l)
);
}
);
width = 632;
}
);
note = uni1EC2;
unicode = 7874;
},
{
glyphname = uni1EC4;
kernLeft = B;
layers = (
{
hints = (
{
horizontal = 1;
place = (0, 66);
place = (0, 66);
type = Stem;
},
{
horizontal = 1;
place = (322, 66);
place = (322, 66);
type = Stem;
},
{
horizontal = 1;
place = (631, 66);
place = (631, 66);
type = Stem;
},
{
horizontal = 1;
place = (963, 45);
place = (963, 45);
type = Stem;
},
{
horizontal = 1;
place = (1050, 44);
place = (1050, 44);
type = Stem;
},
{
place = (114, 71);
place = (114, 71);
type = Stem;
},
{
place = (457, 43);
place = (457, 43);
type = Stem;
},
{
place = (183, 41);
place = (183, 41);
type = Stem;
}
);
layerId = m01;
shapes = (
{
closed = 1;
nodes = (
(464,963,o),
(500,1011,o),
(500,1090,c),
(457,1090,l),
(457,1039,o),
(437,1008,o),
(411,1008,cs),
(357,1008,o),
(351,1094,o),
(276,1094,cs),
(219,1094,o),
(183,1049,o),
(183,972,c),
(224,972,l),
(224,1021,o),
(243,1050,o),
(274,1050,cs),
(327,1050,o),
(328,963,o),
(411,963,cs)
);
},
{
closed = 1;
nodes = (
(193,752,l),
(251,752,l),
(342,850,l),
(434,752,l),
(491,752,l),
(342,911,l)
);
},
{
closed = 1;
nodes = (
(114,0,l),
(571,0,l),
(571,66,l),
(185,66,l),
(185,322,l),
(532,322,l),
(532,388,l),
(185,388,l),
(185,631,l),
(571,631,l),
(571,697,l),
(114,697,l)
);
}
);
width = 632;
}
);
note = uni1EC4;
unicode = 7876;
},
{
glyphname = Edieresis;
kernLeft = B;
layers = (
{
hints = (
{
horizontal = 1;
place = (0, 66);
place = (0, 66);
type = Stem;
},
{
horizontal = 1;
place = (322, 66);
place = (322, 66);
type = Stem;
},
{
horizontal = 1;
place = (631, 66);
place = (631, 66);
type = Stem;
},
{
horizontal = 1;
place = (799, 102);
place = (799, 102);
type = Stem;
},
{
place = (114, 71);
place = (114, 71);
type = Stem;
},
{
place = (212, 80);
place = (212, 80);
type = Stem;
},
{
place = (392, 80);
place = (392, 80);
type = Stem;
}
);
layerId = m01;
shapes = (
{
closed = 1;
nodes = (
(212,799,l),
(292,799,l),
(292,901,l),
(212,901,l)
);
},
{
closed = 1;
nodes = (
(392,799,l),
(472,799,l),
(472,901,l),
(392,901,l)
);
},
{
closed = 1;
nodes = (
(114,0,l),
(571,0,l),
(571,66,l),
(185,66,l),
(185,322,l),
(532,322,l),
(532,388,l),
(185,388,l),
(185,631,l),
(571,631,l),
(571,697,l),
(114,697,l)
);
}
);
width = 632;
}
);
note = Edieresis;
unicode = 203;
},
{
glyphname = Edotaccent;
kernLeft = B;
layers = (
{
hints = (
{
horizontal = 1;
place = (0, 66);
place = (0, 66);
type = Stem;
},
{
horizontal = 1;
place = (322, 66);
place = (322, 66);
type = Stem;
},
{
horizontal = 1;
place = (631, 66);
place = (631, 66);
type = Stem;
},
{
horizontal = 1;
place = (799, 102);
place = (799, 102);
type = Stem;
},
{
place = (114, 71);
place = (114, 71);
type = Stem;
},
{
place = (302, 80);
place = (302, 80);
type = Stem;
}
);
layerId = m01;
shapes = (
{
closed = 1;
nodes = (
(302,799,l),
(382,799,l),
(382,901,l),
(302,901,l)
);
},
{
closed = 1;
nodes = (
(114,0,l),
(571,0,l),
(571,66,l),
(185,66,l),
(185,322,l),
(532,322,l),
(532,388,l),
(185,388,l),
(185,631,l),
(571,631,l),
(571,697,l),
(114,697,l)
);
}
);
width = 632;
}
);
note = Edotaccent;
unicode = 278;
},
{
glyphname = uni1EB8;
kernLeft = B;
layers = (
{
hints = (
{
horizontal = 1;
place = (-173, 101);
place = (-173, 101);
type = Stem;
},
{
horizontal = 1;
place = (0, 66);
place = (0, 66);
type = Stem;
},
{
horizontal = 1;
place = (322, 66);
place = (322, 66);
type = Stem;
},
{
horizontal = 1;
place = (631, 66);
place = (631, 66);
type = Stem;
},
{
place = (114, 71);
place = (114, 71);
type = Stem;
},
{
place = (302, 80);
place = (302, 80);
type = Stem;
}
);
layerId = m01;
shapes = (
{
closed = 1;
nodes = (
(114,0,l),
(571,0,l),
(571,66,l),
(185,66,l),
(185,322,l),
(532,322,l),
(532,388,l),
(185,388,l),
(185,631,l),
(571,631,l),
(571,697,l),
(114,697,l)
);
},
{
closed = 1;
nodes = (
(302,-173,l),
(382,-173,l),
(382,-72,l),
(302,-72,l)
);
}
);
width = 632;
}
);
note = uni1EB8;
unicode = 7864;
},
{
glyphname = Egrave;
kernLeft = B;
layers = (
{
hints = (
{
horizontal = 1;
place = (0, 66);
place = (0, 66);
type = Stem;
},
{
horizontal = 1;
place = (322, 66);
place = (322, 66);
type = Stem;
},
{
horizontal = 1;
place = (631, 66);
place = (631, 66);
type = Stem;
},
{
horizontal = 1;
place = (760, 141);
place = (760, 141);
type = Stem;
},
{
place = (114, 71);
place = (114, 71);
type = Stem;
}
);
layerId = m01;
shapes = (
{
closed = 1;
nodes = (
(315,760,l),
(369,760,l),
(265,901,l),
(191,901,l)
);
},
{
closed = 1;
nodes = (
(114,0,l),
(571,0,l),
(571,66,l),
(185,66,l),
(185,322,l),
(532,322,l),
(532,388,l),
(185,388,l),
(185,631,l),
(571,631,l),
(571,697,l),
(114,697,l)
);
}
);
width = 632;
}
);
note = Egrave;
unicode = 200;
},
{
glyphname = uni1EBA;
kernLeft = B;
layers = (
{
hints = (
{
horizontal = 1;
place = (0, 66);
place = (0, 66);
type = Stem;
},
{
horizontal = 1;
place = (322, 66);
place = (322, 66);
type = Stem;
},
{
horizontal = 1;
place = (631, 66);
place = (631, 66);
type = Stem;
},
{
horizontal = 1;
place = (882, 40);
place = (882, 40);
type = Stem;
},
{
place = (114, 71);
place = (114, 71);
type = Stem;
},
{
place = (404, 47);
place = (404, 47);
type = Stem;
}
);
layerId = m01;
shapes = (
{
closed = 1;
nodes = (
(336,736,l),
(385,746,o),
(451,757,o),
(451,824,cs),
(451,888,o),
(392,922,o),
(312,922,cs),
(297,922,l),
(297,882,l),
(312,882,ls),
(359,882,o),
(404,867,o),
(404,826,cs),
(404,789,o),
(362,781,o),
(324,775,c)
);
},
{
closed = 1;
nodes = (
(114,0,l),
(571,0,l),
(571,66,l),
(185,66,l),
(185,322,l),
(532,322,l),
(532,388,l),
(185,388,l),
(185,631,l),
(571,631,l),
(571,697,l),
(114,697,l)
);
}
);
width = 632;
}
);
note = uni1EBA;
unicode = 7866;
},
{
glyphname = Emacron;
kernLeft = B;
layers = (
{
hints = (
{
horizontal = 1;
place = (0, 66);
place = (0, 66);
type = Stem;
},
{
horizontal = 1;
place = (322, 66);
place = (322, 66);
type = Stem;
},
{
horizontal = 1;
place = (631, 66);
place = (631, 66);
type = Stem;
},
{
horizontal = 1;
place = (803, 42);
place = (803, 42);
type = Stem;
},
{
place = (114, 71);
place = (114, 71);
type = Stem;
}
);
layerId = m01;
shapes = (
{
closed = 1;
nodes = (
(206,803,l),
(476,803,l),
(476,845,l),
(206,845,l)
);
},
{
closed = 1;
nodes = (
(114,0,l),
(571,0,l),
(571,66,l),
(185,66,l),
(185,322,l),
(532,322,l),
(532,388,l),
(185,388,l),
(185,631,l),
(571,631,l),
(571,697,l),
(114,697,l)
);
}
);
width = 632;
}
);
note = Emacron;
unicode = 274;
},
{
glyphname = Eogonek;
kernLeft = B;
layers = (
{
hints = (
{
horizontal = 1;
place = (-214, 45);
place = (-214, 45);
type = Stem;
},
{
horizontal = 1;
place = (0, 66);
place = (0, 66);
type = Stem;
},
{
horizontal = 1;
place = (322, 66);
place = (322, 66);
type = Stem;
},
{
horizontal = 1;
place = (631, 66);
place = (631, 66);
type = Stem;
},
{
place = (114, 71);
place = (114, 71);
type = Stem;
},
{
place = (427, 43);
place = (427, 43);
type = Stem;
}
);
layerId = m01;
shapes = (
{
closed = 1;
nodes = (
(577,-142,l),
(559,-159,o),
(539,-169,o),
(516,-169,cs),
(492,-169,o),
(470,-157,o),
(470,-124,cs),
(470,-63,o),
(536,-21,o),
(571,0,c),
(571,66,l),
(185,66,l),
(185,322,l),
(532,322,l),
(532,388,l),
(185,388,l),
(185,631,l),
(571,631,l),
(571,697,l),
(114,697,l),
(114,0,l),
(513,0,l),
(472,-26,o),
(427,-72,o),
(427,-130,cs),
(427,-182,o),
(467,-214,o),
(518,-214,cs),
(555,-214,o),
(587,-196,o),
(611,-169,c)
);
}
);
width = 632;
}
);
note = Eogonek;
unicode = 280;
},
{
glyphname = uni1EBC;
kernLeft = B;
layers = (
{
hints = (
{
horizontal = 1;
place = (0, 66);
place = (0, 66);
type = Stem;
},
{
horizontal = 1;
place = (322, 66);
place = (322, 66);
type = Stem;
},
{
horizontal = 1;
place = (631, 66);
place = (631, 66);
type = Stem;
},
{
horizontal = 1;
place = (774, 45);
place = (774, 45);
type = Stem;
},
{
horizontal = 1;
place = (861, 44);
place = (861, 44);
type = Stem;
},
{
place = (114, 71);
place = (114, 71);
type = Stem;
},
{
place = (457, 43);
place = (457, 43);
type = Stem;
},
{
place = (183, 41);
place = (183, 41);
type = Stem;
}
);
layerId = m01;
shapes = (
{
closed = 1;
nodes = (
(464,774,o),
(500,822,o),
(500,901,c),
(457,901,l),
(457,850,o),
(437,819,o),
(411,819,cs),
(357,819,o),
(351,905,o),
(276,905,cs),
(219,905,o),
(183,860,o),
(183,783,c),
(224,783,l),
(224,832,o),
(243,861,o),
(274,861,cs),
(327,861,o),
(328,774,o),
(411,774,cs)
);
},
{
closed = 1;
nodes = (
(114,0,l),
(571,0,l),
(571,66,l),
(185,66,l),
(185,322,l),
(532,322,l),
(532,388,l),
(185,388,l),
(185,631,l),
(571,631,l),
(571,697,l),
(114,697,l)
);
}
);
width = 632;
}
);
note = uni1EBC;
unicode = 7868;
},
{
glyphname = F;
kernLeft = B;
kernRight = F;
lastChange = "2022-12-21 09:03:04 +0000";
layers = (
{
hints = (
{
horizontal = 1;
place = (0, 21);
target = up;
type = BottomGhost;
},
{
horizontal = 1;
place = (322, 66);
place = (322, 66);
type = Stem;
},
{
horizontal = 1;
place = (631, 66);
place = (631, 66);
type = Stem;
},
{
place = (114, 71);
place = (114, 71);
type = Stem;
}
);
layerId = m01;
shapes = (
{
closed = 1;
nodes = (
(114,0,l),
(151,0,l),
(185,57,l),
(185,322,l),
(537,322,l),
(537,388,l),
(185,388,l),
(185,631,l),
(572,631,ls),
(580,631,o),
(587,638,o),
(587,646,cs),
(587,697,l),
(114,697,l)
);
}
);
width = 628;
}
);
note = F;
unicode = 70;
},
{
glyphname = G;
kernLeft = C;
kernRight = G;
lastChange = "2022-12-21 09:02:44 +0000";
layers = (
{
hints = (
{
horizontal = 1;
place = (-10, 68);
place = (-10, 68);
type = Stem;
},
{
horizontal = 1;
place = (302, 58);
place = (302, 58);
type = Stem;
},
{
horizontal = 1;
place = (639, 68);
place = (639, 68);
type = Stem;
},
{
place = (68, 71);
place = (68, 71);
type = Stem;
},
{
place = (610, 67);
place = (610, 67);
type = Stem;
},
{
horizontal = 1;
place = (0, 21);
target = up;
type = BottomGhost;
}
);
layerId = m01;
shapes = (
{
closed = 1;
nodes = (
(442,302,l),
(610,302,l),
(610,280,ls),
(610,121,o),
(505,58,o),
(385,58,cs),
(212,58,o),
(139,187,o),
(139,353,cs),
(139,525,o),
(222,639,o),
(390,639,cs),
(506,639,o),
(576,586,o),
(611,491,c),
(664,510,ls),
(680,516,o),
(671,532,o),
(664,547,cs),
(615,652,o),
(524,707,o),
(390,707,cs),
(176,707,o),
(68,557,o),
(68,350,cs),
(68,142,o),
(177,-10,o),
(380,-10,cs),
(487,-10,o),
(572,32,o),
(610,109,c),
(620,0,l),
(649,0,l),
(677,44,l),
(677,360,l),
(457,360,ls),
(449,360,o),
(442,353,o),
(442,345,cs)
);
}
);
width = 766;
}
);
note = G;
unicode = 71;
},
{
glyphname = Gbreve;
kernLeft = C;
kernRight = G;
layers = (
{
hints = (
{
horizontal = 1;
place = (-10, 68);
place = (-10, 68);
type = Stem;
},
{
horizontal = 1;
place = (302, 58);
place = (302, 58);
type = Stem;
},
{
horizontal = 1;
place = (639, 68);
place = (639, 68);
type = Stem;
},
{
horizontal = 1;
place = (770, 42);
place = (770, 42);
type = Stem;
},
{
place = (68, 71);
place = (68, 71);
type = Stem;
},
{
place = (234, 50);
place = (234, 50);
type = Stem;
},
{
place = (486, 50);
place = (486, 50);
type = Stem;
},
{
place = (610, 67);
place = (610, 67);
type = Stem;
},
{
horizontal = 1;
place = (0, 21);
target = up;
type = BottomGhost;
}
);
layerId = m01;
shapes = (
{
closed = 1;
nodes = (
(482,770,o),
(536,814,o),
(536,901,c),
(486,901,l),
(486,844,o),
(448,812,o),
(385,812,cs),
(324,812,o),
(284,842,o),
(284,901,c),
(234,901,l),
(234,816,o),
(284,770,o),
(385,770,cs)
);
},
{
closed = 1;
nodes = (
(442,302,l),
(610,302,l),
(610,280,ls),
(610,121,o),
(505,58,o),
(385,58,cs),
(212,58,o),
(139,187,o),
(139,353,cs),
(139,525,o),
(222,639,o),
(390,639,cs),
(506,639,o),
(576,586,o),
(611,491,c),
(677,516,l),
(631,636,o),
(537,707,o),
(390,707,cs),
(176,707,o),
(68,557,o),
(68,350,cs),
(68,142,o),
(177,-10,o),
(380,-10,cs),
(487,-10,o),
(572,32,o),
(610,109,c),
(620,0,l),
(677,0,l),
(677,360,l),
(442,360,l)
);
}
);
width = 766;
}
);
note = Gbreve;
unicode = 286;
},
{
glyphname = uni0122;
kernLeft = C;
kernRight = G;
layers = (
{
hints = (
{
horizontal = 1;
place = (-10, 68);
place = (-10, 68);
type = Stem;
},
{
horizontal = 1;
place = (302, 58);
place = (302, 58);
type = Stem;
},
{
horizontal = 1;
place = (639, 68);
place = (639, 68);
type = Stem;
},
{
place = (68, 71);
place = (68, 71);
type = Stem;
},
{
place = (610, 67);
place = (610, 67);
type = Stem;
},
{
horizontal = 1;
place = (-221, 165);
place = (-221, 165);
type = Stem;
},
{
horizontal = 1;
place = (0, 21);
target = up;
type = BottomGhost;
}
);
layerId = m01;
shapes = (
{
closed = 1;
nodes = (
(442,302,l),
(610,302,l),
(610,280,ls),
(610,121,o),
(505,58,o),
(385,58,cs),
(212,58,o),
(139,187,o),
(139,353,cs),
(139,525,o),
(222,639,o),
(390,639,cs),
(506,639,o),
(576,586,o),
(611,491,c),
(677,516,l),
(631,636,o),
(537,707,o),
(390,707,cs),
(176,707,o),
(68,557,o),
(68,350,cs),
(68,142,o),
(177,-10,o),
(380,-10,cs),
(487,-10,o),
(572,32,o),
(610,109,c),
(620,0,l),
(677,0,l),
(677,360,l),
(442,360,l)
);
},
{
closed = 1;
nodes = (
(260,-221,l),
(304,-221,l),
(421,-56,l),
(348,-56,l)
);
}
);
width = 766;
}
);
note = uni0122;
unicode = 290;
},
{
glyphname = Gdotaccent;
kernLeft = C;
kernRight = G;
layers = (
{
hints = (
{
horizontal = 1;
place = (-10, 68);
place = (-10, 68);
type = Stem;
},
{
horizontal = 1;
place = (302, 58);
place = (302, 58);
type = Stem;
},
{
horizontal = 1;
place = (639, 68);
place = (639, 68);
type = Stem;
},
{
horizontal = 1;
place = (799, 102);
place = (799, 102);
type = Stem;
},
{
place = (68, 71);
place = (68, 71);
type = Stem;
},
{
place = (345, 80);
place = (345, 80);
type = Stem;
},
{
place = (610, 67);
place = (610, 67);
type = Stem;
},
{
horizontal = 1;
place = (0, 21);
target = up;
type = BottomGhost;
}
);
layerId = m01;
shapes = (
{
closed = 1;
nodes = (
(425,901,l),
(345,901,l),
(345,799,l),
(425,799,l)
);
},
{
closed = 1;
nodes = (
(442,302,l),
(610,302,l),
(610,280,ls),
(610,121,o),
(505,58,o),
(385,58,cs),
(212,58,o),
(139,187,o),
(139,353,cs),
(139,525,o),
(222,639,o),
(390,639,cs),
(506,639,o),
(576,586,o),
(611,491,c),
(677,516,l),
(631,636,o),
(537,707,o),
(390,707,cs),
(176,707,o),
(68,557,o),
(68,350,cs),
(68,142,o),
(177,-10,o),
(380,-10,cs),
(487,-10,o),
(572,32,o),
(610,109,c),
(620,0,l),
(677,0,l),
(677,360,l),
(442,360,l)
);
}
);
width = 766;
}
);
note = Gdotaccent;
unicode = 288;
},
{
glyphname = H;
kernLeft = B;
kernRight = H;
layers = (
{
hints = (
{
horizontal = 1;
place = (0, 21);
target = up;
type = BottomGhost;
},
{
horizontal = 1;
place = (322, 67);
place = (322, 67);
type = Stem;
},
{
horizontal = 1;
place = (697, -20);
target = down;
type = TopGhost;
},
{
place = (114, 71);
place = (114, 71);
type = Stem;
},
{
place = (547, 72);
place = (547, 72);
type = Stem;
}
);
layerId = m01;
shapes = (
{
closed = 1;
nodes = (
(114,0,l),
(185,0,l),
(185,322,l),
(547,322,l),
(547,0,l),
(619,0,l),
(619,697,l),
(547,697,l),
(547,389,l),
(185,389,l),
(185,697,l),
(114,697,l)
);
}
);
width = 733;
}
);
note = H;
unicode = 72;
},
{
glyphname = Hbar;
kernLeft = B;
kernRight = H;
layers = (
{
hints = (
{
horizontal = 1;
place = (0, 21);
target = up;
type = BottomGhost;
},
{
horizontal = 1;
place = (322, 67);
place = (322, 67);
type = Stem;
},
{
horizontal = 1;
place = (517, 42);
place = (517, 42);
type = Stem;
},
{
place = (114, 71);
place = (114, 71);
type = Stem;
},
{
place = (547, 72);
place = (547, 72);
type = Stem;
},
{
horizontal = 1;
place = (517, 180);
place = (517, 180);
type = Stem;
}
);
layerId = m01;
shapes = (
{
closed = 1;
nodes = (
(683,559,l),
(619,559,l),
(619,697,l),
(547,697,l),
(547,559,l),
(185,559,l),
(185,697,l),
(114,697,l),
(114,559,l),
(48,559,l),
(48,517,l),
(114,517,l),
(114,0,l),
(185,0,l),
(185,322,l),
(547,322,l),
(547,0,l),
(619,0,l),
(619,517,l),
(683,517,l)
);
},
{
closed = 1;
nodes = (
(547,389,l),
(185,389,l),
(185,517,l),
(547,517,l)
);
}
);
width = 733;
}
);
note = Hbar;
unicode = 294;
},
{
glyphname = I;
kernLeft = B;
kernRight = H;
layers = (
{
hints = (
{
horizontal = 1;
place = (0, 21);
target = up;
type = BottomGhost;
},
{
horizontal = 1;
place = (697, -20);
target = down;
type = TopGhost;
},
{
place = (114, 71);
place = (114, 71);
type = Stem;
}
);
layerId = m01;
shapes = (
{
closed = 1;
nodes = (
(114,0,l),
(185,0,l),
(185,697,l),
(114,697,l)
);
}
);
width = 299;
}
);
note = I;
unicode = 73;
},
{
glyphname = Iacute;
kernLeft = B;
kernRight = H;
layers = (
{
hints = (
{
horizontal = 1;
place = (0, 21);
target = up;
type = BottomGhost;
},
{
horizontal = 1;
place = (697, -20);
target = down;
type = TopGhost;
},
{
horizontal = 1;
place = (760, 141);
place = (760, 141);
type = Stem;
},
{
place = (114, 71);
place = (114, 71);
type = Stem;
}
);
layerId = m01;
shapes = (
{
closed = 1;
nodes = (
(124,760,l),
(177,760,l),
(306,901,l),
(232,901,l)
);
},
{
closed = 1;
nodes = (
(114,0,l),
(185,0,l),
(185,697,l),
(114,697,l)
);
}
);
width = 299;
}
);
note = Iacute;
unicode = 205;
},
{
glyphname = uni01CF;
layers = (
{
hints = (
{
horizontal = 1;
place = (0, 21);
target = up;
type = BottomGhost;
},
{
horizontal = 1;
place = (697, -20);
target = down;
type = TopGhost;
},
{
place = (114, 71);
place = (114, 71);
type = Stem;
}
);
layerId = m01;
shapes = (
{
closed = 1;
nodes = (
(150,748,l),
(299,901,l),
(242,901,l),
(150,806,l),
(58,901,l),
(1,901,l)
);
},
{
closed = 1;
nodes = (
(114,0,l),
(185,0,l),
(185,697,l),
(114,697,l)
);
}
);
width = 299;
}
);
note = uni01CF;
unicode = 463;
},
{
glyphname = Icircumflex;
kernLeft = B;
kernRight = H;
layers = (
{
hints = (
{
horizontal = 1;
place = (0, 21);
target = up;
type = BottomGhost;
},
{
horizontal = 1;
place = (697, -20);
target = down;
type = TopGhost;
},
{
place = (114, 71);
place = (114, 71);
type = Stem;
}
);
layerId = m01;
shapes = (
{
closed = 1;
nodes = (
(1,752,l),
(59,752,l),
(150,850,l),
(242,752,l),
(299,752,l),
(150,911,l)
);
},
{
closed = 1;
nodes = (
(114,0,l),
(185,0,l),
(185,697,l),
(114,697,l)
);
}
);
width = 299;
}
);
note = Icircumflex;
unicode = 206;
},
{
glyphname = Idieresis;
kernLeft = B;
kernRight = H;
layers = (
{
hints = (
{
horizontal = 1;
place = (0, 21);
target = up;
type = BottomGhost;
},
{
horizontal = 1;
place = (697, -20);
target = down;
type = TopGhost;
},
{
horizontal = 1;
place = (799, 102);
place = (799, 102);
type = Stem;
},
{
place = (20, 80);
place = (20, 80);
type = Stem;
},
{
place = (114, 71);
place = (114, 71);
type = Stem;
},
{
place = (200, 80);
place = (200, 80);
type = Stem;
}
);
layerId = m01;
shapes = (
{
closed = 1;
nodes = (
(20,799,l),
(100,799,l),
(100,901,l),
(20,901,l)
);
},
{
closed = 1;
nodes = (
(200,799,l),
(280,799,l),
(280,901,l),
(200,901,l)
);
},
{
closed = 1;
nodes = (
(114,0,l),
(185,0,l),
(185,697,l),
(114,697,l)
);
}
);
width = 299;
}
);
note = Idieresis;
unicode = 207;
},
{
glyphname = Idotaccent;
kernLeft = B;
kernRight = H;
layers = (
{
hints = (
{
horizontal = 1;
place = (0, 21);
target = up;
type = BottomGhost;
},
{
horizontal = 1;
place = (697, -20);
target = down;
type = TopGhost;
},
{
horizontal = 1;
place = (799, 102);
place = (799, 102);
type = Stem;
},
{
place = (110, 80);
place = (110, 80);
type = Stem;
},
{
place = (114, 71);
place = (114, 71);
type = Stem;
}
);
layerId = m01;
shapes = (
{
closed = 1;
nodes = (
(110,799,l),
(190,799,l),
(190,901,l),
(110,901,l)
);
},
{
closed = 1;
nodes = (
(114,0,l),
(185,0,l),
(185,697,l),
(114,697,l)
);
}
);
width = 299;
}
);
note = Idotaccent;
unicode = 304;
},
{
glyphname = uni1ECA;
layers = (
{
hints = (
{
horizontal = 1;
place = (-173, 101);
place = (-173, 101);
type = Stem;
},
{
horizontal = 1;
place = (0, 21);
target = up;
type = BottomGhost;
},
{
horizontal = 1;
place = (697, -20);
target = down;
type = TopGhost;
},
{
place = (114, 71);
place = (114, 71);
type = Stem;
},
{
place = (110, 80);
place = (110, 80);
type = Stem;
}
);
layerId = m01;
shapes = (
{
closed = 1;
nodes = (
(114,0,l),
(185,0,l),
(185,697,l),
(114,697,l)
);
},
{
closed = 1;
nodes = (
(110,-173,l),
(190,-173,l),
(190,-72,l),
(110,-72,l)
);
}
);
width = 299;
}
);
note = uni1ECA;
unicode = 7882;
},
{
glyphname = Igrave;
kernLeft = B;
kernRight = H;
layers = (
{
hints = (
{
horizontal = 1;
place = (0, 21);
target = up;
type = BottomGhost;
},
{
horizontal = 1;
place = (697, -20);
target = down;
type = TopGhost;
},
{
horizontal = 1;
place = (760, 141);
place = (760, 141);
type = Stem;
},
{
place = (114, 71);
place = (114, 71);
type = Stem;
}
);
layerId = m01;
shapes = (
{
closed = 1;
nodes = (
(123,760,l),
(177,760,l),
(73,901,l),
(-1,901,l)
);
},
{
closed = 1;
nodes = (
(114,0,l),
(185,0,l),
(185,697,l),
(114,697,l)
);
}
);
width = 299;
}
);
note = Igrave;
unicode = 204;
},
{
glyphname = uni1EC8;
layers = (
{
hints = (
{
horizontal = 1;
place = (0, 21);
target = up;
type = BottomGhost;
},
{
horizontal = 1;
place = (697, -20);
target = down;
type = TopGhost;
},
{
horizontal = 1;
place = (882, 40);
place = (882, 40);
type = Stem;
},
{
place = (114, 71);
place = (114, 71);
type = Stem;
},
{
place = (212, 47);
place = (212, 47);
type = Stem;
}
);
layerId = m01;
shapes = (
{
closed = 1;
nodes = (
(144,736,l),
(193,746,o),
(259,757,o),
(259,824,cs),
(259,888,o),
(200,922,o),
(120,922,cs),
(105,922,l),
(105,882,l),
(120,882,ls),
(167,882,o),
(212,867,o),
(212,826,cs),
(212,789,o),
(170,781,o),
(132,775,c)
);
},
{
closed = 1;
nodes = (
(114,0,l),
(185,0,l),
(185,697,l),
(114,697,l)
);
}
);
width = 299;
}
);
note = uni1EC8;
unicode = 7880;
},
{
glyphname = Imacron;
kernLeft = B;
kernRight = H;
layers = (
{
hints = (
{
horizontal = 1;
place = (0, 21);
target = up;
type = BottomGhost;
},
{
horizontal = 1;
place = (697, -20);
target = down;
type = TopGhost;
},
{
horizontal = 1;
place = (803, 42);
place = (803, 42);
type = Stem;
},
{
place = (114, 71);
place = (114, 71);
type = Stem;
}
);
layerId = m01;
shapes = (
{
closed = 1;
nodes = (
(14,803,l),
(284,803,l),
(284,845,l),
(14,845,l)
);
},
{
closed = 1;
nodes = (
(114,0,l),
(185,0,l),
(185,697,l),
(114,697,l)
);
}
);
width = 299;
}
);
note = Imacron;
unicode = 298;
},
{
glyphname = Iogonek;
kernLeft = B;
kernRight = H;
layers = (
{
hints = (
{
horizontal = 1;
place = (-214, 45);
place = (-214, 45);
type = Stem;
},
{
horizontal = 1;
place = (0, 21);
target = up;
type = BottomGhost;
},
{
horizontal = 1;
place = (697, -20);
target = down;
type = TopGhost;
},
{
place = (114, 71);
place = (114, 71);
type = Stem;
},
{
place = (41, 43);
place = (41, 43);
type = Stem;
}
);
layerId = m01;
shapes = (
{
closed = 1;
nodes = (
(191,-142,l),
(173,-159,o),
(153,-169,o),
(130,-169,cs),
(106,-169,o),
(84,-157,o),
(84,-124,cs),
(84,-63,o),
(150,-21,o),
(185,0,c),
(185,697,l),
(114,697,l),
(114,0,l),
(127,0,l),
(86,-26,o),
(41,-72,o),
(41,-130,cs),
(41,-182,o),
(81,-214,o),
(132,-214,cs),
(169,-214,o),
(201,-196,o),
(225,-169,c)
);
}
);
width = 299;
}
);
note = Iogonek;
unicode = 302;
},
{
glyphname = Itilde;
layers = (
{
hints = (
{
horizontal = 1;
place = (0, 21);
target = up;
type = BottomGhost;
},
{
horizontal = 1;
place = (697, -20);
target = down;
type = TopGhost;
},
{
horizontal = 1;
place = (774, 45);
place = (774, 45);
type = Stem;
},
{
horizontal = 1;
place = (861, 44);
place = (861, 44);
type = Stem;
},
{
place = (-9, 41);
place = (-9, 41);
type = Stem;
},
{
place = (114, 71);
place = (114, 71);
type = Stem;
},
{
place = (265, 43);
place = (265, 43);
type = Stem;
}
);
layerId = m01;
shapes = (
{
closed = 1;
nodes = (
(272,774,o),
(308,822,o),
(308,901,c),
(265,901,l),
(265,850,o),
(245,819,o),
(219,819,cs),
(165,819,o),
(159,905,o),
(84,905,cs),
(27,905,o),
(-9,860,o),
(-9,783,c),
(32,783,l),
(32,832,o),
(51,861,o),
(82,861,cs),
(135,861,o),
(136,774,o),
(219,774,cs)
);
},
{
closed = 1;
nodes = (
(114,0,l),
(185,0,l),
(185,697,l),
(114,697,l)
);
}
);
width = 299;
}
);
note = Itilde;
unicode = 296;
},
{
glyphname = J;
kernLeft = J;
kernRight = J;
lastChange = "2022-12-21 09:04:40 +0000";
layers = (
{
hints = (
{
horizontal = 1;
place = (-10, 67);
place = (-10, 67);
type = Stem;
},
{
horizontal = 1;
place = (631, 66);
place = (631, 66);
type = Stem;
},
{
place = (40, 70);
place = (40, 70);
type = Stem;
},
{
place = (412, 71);
place = (412, 71);
type = Stem;
}
);
layerId = m01;
shapes = (
{
closed = 1;
nodes = (
(55,206,ls),
(45,205,o),
(40,199,o),
(41,189,cs),
(56,64,o),
(139,-10,o),
(263,-10,cs),
(403,-10,o),
(483,83,o),
(483,249,cs),
(483,697,l),
(173,697,l),
(130,663,l),
(130,631,l),
(412,631,l),
(412,253,ls),
(412,122,o),
(362,57,o),
(263,57,cs),
(172,57,o),
(117,112,o),
(110,212,c)
);
}
);
width = 584;
}
);
note = J;
unicode = 74;
},
{
glyphname = K;
kernLeft = B;
kernRight = K;
lastChange = "2022-12-21 09:05:21 +0000";
layers = (
{
hints = (
{
horizontal = 1;
place = (0, 21);
target = up;
type = BottomGhost;
},
{
horizontal = 1;
place = (697, -20);
target = down;
type = TopGhost;
},
{
place = (114, 71);
place = (114, 71);
type = Stem;
}
);
layerId = m01;
shapes = (
{
closed = 1;
nodes = (
(603,0,ls),
(613,0,o),
(615,4,o),
(610,13,cs),
(376,408,l),
(660,697,l),
(566,697,l),
(185,301,l),
(185,697,l),
(150,697,l),
(114,650,l),
(114,0,l),
(185,0,l),
(185,204,l),
(327,358,l),
(536,0,l)
);
}
);
width = 711;
}
);
note = K;
unicode = 75;
},
{
glyphname = uni0136;
kernLeft = B;
kernRight = K;
layers = (
{
hints = (
{
horizontal = 1;
place = (-221, 165);
place = (-221, 165);
type = Stem;
},
{
horizontal = 1;
place = (0, 21);
target = up;
type = BottomGhost;
},
{
horizontal = 1;
place = (697, -20);
target = down;
type = TopGhost;
},
{
place = (114, 71);
place = (114, 71);
type = Stem;
}
);
layerId = m01;
shapes = (
{
closed = 1;
nodes = (
(411,443,l),
(660,697,l),
(566,697,l),
(185,301,l),
(185,697,l),
(114,697,l),
(114,0,l),
(185,0,l),
(185,211,l),
(362,393,l),
(592,0,l),
(674,0,l)
);
},
{
closed = 1;
nodes = (
(231,-221,l),
(275,-221,l),
(392,-56,l),
(319,-56,l)
);
}
);
width = 711;
}
);
note = uni0136;
unicode = 310;
},
{
glyphname = L;
kernLeft = B;
kernRight = L;
layers = (
{
hints = (
{
horizontal = 1;
place = (0, 66);
place = (0, 66);
type = Stem;
},
{
horizontal = 1;
place = (697, -20);
target = down;
type = TopGhost;
},
{
place = (114, 71);
place = (114, 71);
type = Stem;
}
);
layerId = m01;
shapes = (
{
closed = 1;
nodes = (
(114,0,l),
(503,0,l),
(503,66,l),
(185,66,l),
(185,697,l),
(114,697,l)
);
}
);
width = 537;
}
);
note = L;
unicode = 76;
},
{
glyphname = Lacute;
kernLeft = B;
kernRight = L;
layers = (
{
hints = (
{
horizontal = 1;
place = (0, 66);
place = (0, 66);
type = Stem;
},
{
horizontal = 1;
place = (697, -20);
target = down;
type = TopGhost;
},
{
horizontal = 1;
place = (760, 141);
place = (760, 141);
type = Stem;
},
{
place = (114, 71);
place = (114, 71);
type = Stem;
}
);
layerId = m01;
shapes = (
{
closed = 1;
nodes = (
(124,760,l),
(177,760,l),
(306,901,l),
(232,901,l)
);
},
{
closed = 1;
nodes = (
(114,0,l),
(503,0,l),
(503,66,l),
(185,66,l),
(185,697,l),
(114,697,l)
);
}
);
width = 537;
}
);
note = Lacute;
unicode = 313;
},
{
glyphname = Lcaron;
kernLeft = B;
kernRight = L;
layers = (
{
hints = (
{
horizontal = 1;
place = (0, 66);
place = (0, 66);
type = Stem;
},
{
horizontal = 1;
place = (697, -20);
target = down;
type = TopGhost;
},
{
place = (114, 71);
place = (114, 71);
type = Stem;
},
{
horizontal = 1;
place = (489, 208);
place = (489, 208);
type = Stem;
}
);
layerId = m01;
shapes = (
{
closed = 1;
nodes = (
(114,0,l),
(503,0,l),
(503,66,l),
(185,66,l),
(185,697,l),
(114,697,l)
);
},
{
closed = 1;
nodes = (
(337,489,l),
(379,489,l),
(467,697,l),
(395,697,l)
);
}
);
width = 537;
}
);
note = Lcaron;
unicode = 317;
},
{
glyphname = uni013B;
kernLeft = B;
kernRight = L;
layers = (
{
hints = (
{
horizontal = 1;
place = (-221, 165);
place = (-221, 165);
type = Stem;
},
{
horizontal = 1;
place = (0, 66);
place = (0, 66);
type = Stem;
},
{
horizontal = 1;
place = (697, -20);
target = down;
type = TopGhost;
},
{
place = (114, 71);
place = (114, 71);
type = Stem;
}
);
layerId = m01;
shapes = (
{
closed = 1;
nodes = (
(114,0,l),
(503,0,l),
(503,66,l),
(185,66,l),
(185,697,l),
(114,697,l)
);
},
{
closed = 1;
nodes = (
(184,-221,l),
(228,-221,l),
(345,-56,l),
(272,-56,l)
);
}
);
width = 537;
}
);
note = uni013B;
unicode = 315;
},
{
glyphname = Lslash;
layers = (
{
hints = (
{
horizontal = 1;
place = (0, 66);
place = (0, 66);
type = Stem;
},
{
horizontal = 1;
place = (697, -20);
target = down;
type = TopGhost;
},
{
place = (114, 71);
place = (114, 71);
type = Stem;
}
);
layerId = m01;
shapes = (
{
closed = 1;
nodes = (
(185,66,l),
(185,304,l),
(356,440,l),
(356,511,l),
(185,376,l),
(185,697,l),
(114,697,l),
(114,320,l),
(62,279,l),
(62,207,l),
(114,248,l),
(114,0,l),
(503,0,l),
(503,66,l)
);
}
);
width = 537;
}
);
note = Lslash;
unicode = 321;
},
{
glyphname = M;
kernLeft = B;
kernRight = H;
lastChange = "2022-12-21 09:06:07 +0000";
layers = (
{
hints = (
{
horizontal = 1;
place = (0, 21);
target = up;
type = BottomGhost;
},
{
horizontal = 1;
place = (697, -20);
target = down;
type = TopGhost;
},
{
place = (114, 71);
place = (114, 71);
type = Stem;
},
{
place = (706, 72);
place = (706, 72);
type = Stem;
},
{
horizontal = 1;
place = (604, 93);
place = (604, 93);
type = Stem;
},
{
horizontal = 1;
place = (602, 95);
place = (602, 95);
type = Stem;
}
);
layerId = m01;
shapes = (
{
closed = 1;
nodes = (
(170,0,ls),
(180,0,o),
(185,5,o),
(185,15,cs),
(185,604,l),
(411,58,l),
(481,58,l),
(706,602,l),
(706,15,ls),
(706,5,o),
(711,0,o),
(721,0,cs),
(778,0,l),
(778,697,l),
(674,697,l),
(446,141,l),
(218,697,l),
(114,697,l),
(114,0,l)
);
}
);
width = 892;
}
);
note = M;
unicode = 77;
},
{
glyphname = N;
kernLeft = B;
kernRight = H;
lastChange = "2022-12-21 09:06:25 +0000";
layers = (
{
hints = (
{
horizontal = 1;
place = (0, 21);
target = up;
type = BottomGhost;
},
{
horizontal = 1;
place = (697, -20);
target = down;
type = TopGhost;
},
{
place = (114, 71);
place = (114, 71);
type = Stem;
},
{
place = (535, 71);
place = (535, 71);
type = Stem;
}
);
layerId = m01;
shapes = (
{
closed = 1;
nodes = (
(535,697,l),
(535,124,l),
(191,697,l),
(114,697,l),
(114,0,l),
(150,0,l),
(185,50,l),
(185,576,l),
(528,0,l),
(606,0,l),
(606,697,l)
);
}
);
width = 720;
}
);
note = N;
unicode = 78;
},
{
glyphname = Nacute;
kernLeft = B;
kernRight = H;
layers = (
{
hints = (
{
horizontal = 1;
place = (0, 21);
target = up;
type = BottomGhost;
},
{
horizontal = 1;
place = (697, -20);
target = down;
type = TopGhost;
},
{
horizontal = 1;
place = (760, 141);
place = (760, 141);
type = Stem;
},
{
place = (114, 71);
place = (114, 71);
type = Stem;
},
{
place = (535, 71);
place = (535, 71);
type = Stem;
}
);
layerId = m01;
shapes = (
{
closed = 1;
nodes = (
(516,901,l),
(442,901,l),
(334,760,l),
(387,760,l)
);
},
{
closed = 1;
nodes = (
(535,697,l),
(535,124,l),
(191,697,l),
(114,697,l),
(114,0,l),
(185,0,l),
(185,576,l),
(528,0,l),
(606,0,l),
(606,697,l)
);
}
);
width = 720;
}
);
note = Nacute;
unicode = 323;
},
{
glyphname = Ncaron;
kernLeft = B;
kernRight = H;
layers = (
{
hints = (
{
horizontal = 1;
place = (0, 21);
target = up;
type = BottomGhost;
},
{
horizontal = 1;
place = (697, -20);
target = down;
type = TopGhost;
},
{
place = (114, 71);
place = (114, 71);
type = Stem;
},
{
place = (535, 71);
place = (535, 71);
type = Stem;
}
);
layerId = m01;
shapes = (
{
closed = 1;
nodes = (
(509,901,l),
(452,901,l),
(360,806,l),
(268,901,l),
(211,901,l),
(360,748,l)
);
},
{
closed = 1;
nodes = (
(535,697,l),
(535,124,l),
(191,697,l),
(114,697,l),
(114,0,l),
(185,0,l),
(185,576,l),
(528,0,l),
(606,0,l),
(606,697,l)
);
}
);
width = 720;
}
);
note = Ncaron;
unicode = 327;
},
{
glyphname = uni0145;
kernLeft = B;
kernRight = H;
layers = (
{
hints = (
{
horizontal = 1;
place = (-221, 165);
place = (-221, 165);
type = Stem;
},
{
horizontal = 1;
place = (0, 21);
target = up;
type = BottomGhost;
},
{
horizontal = 1;
place = (697, -20);
target = down;
type = TopGhost;
},
{
place = (114, 71);
place = (114, 71);
type = Stem;
},
{
place = (535, 71);
place = (535, 71);
type = Stem;
}
);
layerId = m01;
shapes = (
{
closed = 1;
nodes = (
(535,697,l),
(535,124,l),
(191,697,l),
(114,697,l),
(114,0,l),
(185,0,l),
(185,576,l),
(528,0,l),
(606,0,l),
(606,697,l)
);
},
{
closed = 1;
nodes = (
(235,-221,l),
(279,-221,l),
(396,-56,l),
(323,-56,l)
);
}
);
width = 720;
}
);
note = uni0145;
unicode = 325;
},
{
glyphname = Eng;
kernLeft = B;
kernRight = H;
layers = (
{
hints = (
{
horizontal = 1;
place = (-171, 49);
place = (-171, 49);
type = Stem;
},
{
horizontal = 1;
place = (0, 21);
target = up;
type = BottomGhost;
},
{
horizontal = 1;
place = (697, -20);
target = down;
type = TopGhost;
},
{
place = (114, 71);
place = (114, 71);
type = Stem;
},
{
place = (535, 71);
place = (535, 71);
type = Stem;
},
{
place = (538, 68);
place = (538, 68);
type = Stem;
}
);
layerId = m01;
shapes = (
{
closed = 1;
nodes = (
(535,697,l),
(535,123,l),
(191,697,l),
(114,697,l),
(114,0,l),
(185,0,l),
(185,575,l),
(528,0,ls),
(534,-10,o),
(538,-24,o),
(538,-37,cs),
(538,-81,o),
(511,-122,o),
(443,-122,cs),
(430,-122,o),
(409,-119,o),
(391,-113,c),
(389,-160,l),
(413,-167,o),
(440,-171,o),
(460,-171,cs),
(565,-171,o),
(606,-100,o),
(606,-13,cs),
(606,697,l)
);
}
);
width = 720;
}
);
note = Eng;
unicode = 330;
},
{
glyphname = Ntilde;
kernLeft = B;
kernRight = H;
layers = (
{
hints = (
{
horizontal = 1;
place = (0, 21);
target = up;
type = BottomGhost;
},
{
horizontal = 1;
place = (697, -20);
target = down;
type = TopGhost;
},
{
horizontal = 1;
place = (774, 45);
place = (774, 45);
type = Stem;
},
{
horizontal = 1;
place = (861, 44);
place = (861, 44);
type = Stem;
},
{
place = (114, 71);
place = (114, 71);
type = Stem;
},
{
place = (201, 41);
place = (201, 41);
type = Stem;
},
{
place = (475, 43);
place = (475, 43);
type = Stem;
},
{
place = (535, 71);
place = (535, 71);
type = Stem;
}
);
layerId = m01;
shapes = (
{
closed = 1;
nodes = (
(345,861,o),
(346,774,o),
(429,774,cs),
(482,774,o),
(518,822,o),
(518,901,c),
(475,901,l),
(475,850,o),
(455,819,o),
(429,819,cs),
(375,819,o),
(369,905,o),
(294,905,cs),
(237,905,o),
(201,860,o),
(201,783,c),
(242,783,l),
(242,832,o),
(261,861,o),
(292,861,cs)
);
},
{
closed = 1;
nodes = (
(535,697,l),
(535,124,l),
(191,697,l),
(114,697,l),
(114,0,l),
(185,0,l),
(185,576,l),
(528,0,l),
(606,0,l),
(606,697,l)
);
}
);
width = 720;
}
);
note = Ntilde;
unicode = 209;
},
{
glyphname = O;
kernLeft = C;
kernRight = D;
lastChange = "2022-12-21 09:07:46 +0000";
layers = (
{
hints = (
{
horizontal = 1;
place = (-10, 68);
place = (-10, 68);
type = Stem;
},
{
horizontal = 1;
place = (639, 68);
place = (639, 68);
type = Stem;
},
{
place = (67, 71);
place = (67, 71);
type = Stem;
},
{
place = (634, 71);
place = (634, 71);
type = Stem;
}
);
layerId = m01;
shapes = (
{
closed = 1;
nodes = (
(577,-10,o),
(705,133,o),
(705,348,cs),
(705,564,o),
(577,707,o),
(386,707,cs),
(195,707,o),
(67,564,o),
(67,348,cs),
(67,133,o),
(195,-10,o),
(386,-10,cs)
);
},
{
closed = 1;
nodes = (
(235,38,o),
(138,171,o),
(138,348,cs),
(138,526,o),
(235,658,o),
(386,658,cs),
(537,658,o),
(634,526,o),
(634,348,cs),
(634,171,o),
(537,38,o),
(386,38,cs)
);
}
);
width = 772;
}
);
note = O;
unicode = 79;
},
{
glyphname = Oacute;
kernLeft = C;
kernRight = D;
layers = (
{
hints = (
{
horizontal = 1;
place = (-10, 68);
place = (-10, 68);
type = Stem;
},
{
horizontal = 1;
place = (639, 68);
place = (639, 68);
type = Stem;
},
{
horizontal = 1;
place = (760, 141);
place = (760, 141);
type = Stem;
},
{
place = (67, 71);
place = (67, 71);
type = Stem;
},
{
place = (634, 71);
place = (634, 71);
type = Stem;
}
);
layerId = m01;
shapes = (
{
closed = 1;
nodes = (
(360,760,l),
(413,760,l),
(542,901,l),
(468,901,l)
);
},
{
closed = 1;
nodes = (
(577,-10,o),
(705,133,o),
(705,348,cs),
(705,564,o),
(577,707,o),
(386,707,cs),
(195,707,o),
(67,564,o),
(67,348,cs),
(67,133,o),
(195,-10,o),
(386,-10,cs)
);
},
{
closed = 1;
nodes = (
(235,58,o),
(138,171,o),
(138,348,cs),
(138,526,o),
(235,639,o),
(386,639,cs),
(537,639,o),
(634,526,o),
(634,348,cs),
(634,171,o),
(537,58,o),
(386,58,cs)
);
}
);
width = 772;
}
);
note = Oacute;
unicode = 211;
},
{
glyphname = uni01D1;
kernLeft = C;
kernRight = D;
layers = (
{
hints = (
{
horizontal = 1;
place = (-10, 68);
place = (-10, 68);
type = Stem;
},
{
horizontal = 1;
place = (639, 68);
place = (639, 68);
type = Stem;
},
{
place = (67, 71);
place = (67, 71);
type = Stem;
},
{
place = (634, 71);
place = (634, 71);
type = Stem;
}
);
layerId = m01;
shapes = (
{
closed = 1;
nodes = (
(386,748,l),
(535,901,l),
(478,901,l),
(386,806,l),
(294,901,l),
(237,901,l)
);
},
{
closed = 1;
nodes = (
(577,-10,o),
(705,133,o),
(705,348,cs),
(705,564,o),
(577,707,o),
(386,707,cs),
(195,707,o),
(67,564,o),
(67,348,cs),
(67,133,o),
(195,-10,o),
(386,-10,cs)
);
},
{
closed = 1;
nodes = (
(235,58,o),
(138,171,o),
(138,348,cs),
(138,526,o),
(235,639,o),
(386,639,cs),
(537,639,o),
(634,526,o),
(634,348,cs),
(634,171,o),
(537,58,o),
(386,58,cs)
);
}
);
width = 772;
}
);
note = uni01D1;
unicode = 465;
},
{
glyphname = Ocircumflex;
kernLeft = C;
kernRight = D;
layers = (
{
hints = (
{
horizontal = 1;
place = (-10, 68);
place = (-10, 68);
type = Stem;
},
{
horizontal = 1;
place = (639, 68);
place = (639, 68);
type = Stem;
},
{
place = (67, 71);
place = (67, 71);
type = Stem;
},
{
place = (634, 71);
place = (634, 71);
type = Stem;
}
);
layerId = m01;
shapes = (
{
closed = 1;
nodes = (
(237,752,l),
(295,752,l),
(386,850,l),
(478,752,l),
(535,752,l),
(386,911,l)
);
},
{
closed = 1;
nodes = (
(577,-10,o),
(705,133,o),
(705,348,cs),
(705,564,o),
(577,707,o),
(386,707,cs),
(195,707,o),
(67,564,o),
(67,348,cs),
(67,133,o),
(195,-10,o),
(386,-10,cs)
);
},
{
closed = 1;
nodes = (
(235,58,o),
(138,171,o),
(138,348,cs),
(138,526,o),
(235,639,o),
(386,639,cs),
(537,639,o),
(634,526,o),
(634,348,cs),
(634,171,o),
(537,58,o),
(386,58,cs)
);
}
);
width = 772;
}
);
note = Ocircumflex;
unicode = 212;
},
{
glyphname = uni1ED0;
kernLeft = C;
kernRight = D;
layers = (
{
hints = (
{
horizontal = 1;
place = (-10, 68);
place = (-10, 68);
type = Stem;
},
{
horizontal = 1;
place = (639, 68);
place = (639, 68);
type = Stem;
},
{
horizontal = 1;
place = (949, 141);
place = (949, 141);
type = Stem;
},
{
place = (67, 71);
place = (67, 71);
type = Stem;
},
{
place = (634, 71);
place = (634, 71);
type = Stem;
}
);
layerId = m01;
shapes = (
{
closed = 1;
nodes = (
(360,949,l),
(413,949,l),
(542,1090,l),
(468,1090,l)
);
},
{
closed = 1;
nodes = (
(237,752,l),
(295,752,l),
(386,850,l),
(478,752,l),
(535,752,l),
(386,911,l)
);
},
{
closed = 1;
nodes = (
(577,-10,o),
(705,133,o),
(705,348,cs),
(705,564,o),
(577,707,o),
(386,707,cs),
(195,707,o),
(67,564,o),
(67,348,cs),
(67,133,o),
(195,-10,o),
(386,-10,cs)
);
},
{
closed = 1;
nodes = (
(235,58,o),
(138,171,o),
(138,348,cs),
(138,526,o),
(235,639,o),
(386,639,cs),
(537,639,o),
(634,526,o),
(634,348,cs),
(634,171,o),
(537,58,o),
(386,58,cs)
);
}
);
width = 772;
}
);
note = uni1ED0;
unicode = 7888;
},
{
glyphname = uni1ED8;
kernLeft = C;
kernRight = D;
layers = (
{
hints = (
{
horizontal = 1;
place = (-173, 101);
place = (-173, 101);
type = Stem;
},
{
horizontal = 1;
place = (-10, 68);
place = (-10, 68);
type = Stem;
},
{
horizontal = 1;
place = (639, 68);
place = (639, 68);
type = Stem;
},
{
place = (67, 71);
place = (67, 71);
type = Stem;
},
{
place = (346, 80);
place = (346, 80);
type = Stem;
},
{
place = (634, 71);
place = (634, 71);
type = Stem;
}
);
layerId = m01;
shapes = (
{
closed = 1;
nodes = (
(237,752,l),
(295,752,l),
(386,850,l),
(478,752,l),
(535,752,l),
(386,911,l)
);
},
{
closed = 1;
nodes = (
(577,-10,o),
(705,133,o),
(705,348,cs),
(705,564,o),
(577,707,o),
(386,707,cs),
(195,707,o),
(67,564,o),
(67,348,cs),
(67,133,o),
(195,-10,o),
(386,-10,cs)
);
},
{
closed = 1;
nodes = (
(235,58,o),
(138,171,o),
(138,348,cs),
(138,526,o),
(235,639,o),
(386,639,cs),
(537,639,o),
(634,526,o),
(634,348,cs),
(634,171,o),
(537,58,o),
(386,58,cs)
);
},
{
closed = 1;
nodes = (
(346,-173,l),
(426,-173,l),
(426,-72,l),
(346,-72,l)
);
}
);
width = 772;
}
);
note = uni1ED8;
unicode = 7896;
},
{
glyphname = uni1ED2;
kernLeft = C;
kernRight = D;
layers = (
{
hints = (
{
horizontal = 1;
place = (-10, 68);
place = (-10, 68);
type = Stem;
},
{
horizontal = 1;
place = (639, 68);
place = (639, 68);
type = Stem;
},
{
horizontal = 1;
place = (949, 141);
place = (949, 141);
type = Stem;
},
{
place = (67, 71);
place = (67, 71);
type = Stem;
},
{
place = (634, 71);
place = (634, 71);
type = Stem;
}
);
layerId = m01;
shapes = (
{
closed = 1;
nodes = (
(359,949,l),
(413,949,l),
(309,1090,l),
(235,1090,l)
);
},
{
closed = 1;
nodes = (
(237,752,l),
(295,752,l),
(386,850,l),
(478,752,l),
(535,752,l),
(386,911,l)
);
},
{
closed = 1;
nodes = (
(577,-10,o),
(705,133,o),
(705,348,cs),
(705,564,o),
(577,707,o),
(386,707,cs),
(195,707,o),
(67,564,o),
(67,348,cs),
(67,133,o),
(195,-10,o),
(386,-10,cs)
);
},
{
closed = 1;
nodes = (
(235,58,o),
(138,171,o),
(138,348,cs),
(138,526,o),
(235,639,o),
(386,639,cs),
(537,639,o),
(634,526,o),
(634,348,cs),
(634,171,o),
(537,58,o),
(386,58,cs)
);
}
);
width = 772;
}
);
note = uni1ED2;
unicode = 7890;
},
{
glyphname = uni1ED4;
kernLeft = C;
kernRight = D;
layers = (
{
hints = (
{
horizontal = 1;
place = (-10, 68);
place = (-10, 68);
type = Stem;
},
{
horizontal = 1;
place = (639, 68);
place = (639, 68);
type = Stem;
},
{
horizontal = 1;
place = (1071, 40);
place = (1071, 40);
type = Stem;
},
{
place = (67, 71);
place = (67, 71);
type = Stem;
},
{
place = (448, 47);
place = (448, 47);
type = Stem;
},
{
place = (634, 71);
place = (634, 71);
type = Stem;
}
);
layerId = m01;
shapes = (
{
closed = 1;
nodes = (
(380,925,l),
(429,935,o),
(495,946,o),
(495,1013,cs),
(495,1077,o),
(436,1111,o),
(356,1111,cs),
(341,1111,l),
(341,1071,l),
(356,1071,ls),
(403,1071,o),
(448,1056,o),
(448,1015,cs),
(448,978,o),
(406,970,o),
(368,964,c)
);
},
{
closed = 1;
nodes = (
(237,752,l),
(295,752,l),
(386,850,l),
(478,752,l),
(535,752,l),
(386,911,l)
);
},
{
closed = 1;
nodes = (
(577,-10,o),
(705,133,o),
(705,348,cs),
(705,564,o),
(577,707,o),
(386,707,cs),
(195,707,o),
(67,564,o),
(67,348,cs),
(67,133,o),
(195,-10,o),
(386,-10,cs)
);
},
{
closed = 1;
nodes = (
(235,58,o),
(138,171,o),
(138,348,cs),
(138,526,o),
(235,639,o),
(386,639,cs),
(537,639,o),
(634,526,o),
(634,348,cs),
(634,171,o),
(537,58,o),
(386,58,cs)
);
}
);
width = 772;
}
);
note = uni1ED4;
unicode = 7892;
},
{
glyphname = uni1ED6;
kernLeft = C;
kernRight = D;
layers = (
{
hints = (
{
horizontal = 1;
place = (-10, 68);
place = (-10, 68);
type = Stem;
},
{
horizontal = 1;
place = (639, 68);
place = (639, 68);
type = Stem;
},
{
horizontal = 1;
place = (963, 45);
place = (963, 45);
type = Stem;
},
{
horizontal = 1;
place = (1050, 44);
place = (1050, 44);
type = Stem;
},
{
place = (67, 71);
place = (67, 71);
type = Stem;
},
{
place = (227, 41);
place = (227, 41);
type = Stem;
},
{
place = (501, 43);
place = (501, 43);
type = Stem;
},
{
place = (634, 71);
place = (634, 71);
type = Stem;
}
);
layerId = m01;
shapes = (
{
closed = 1;
nodes = (
(508,963,o),
(544,1011,o),
(544,1090,c),
(501,1090,l),
(501,1039,o),
(481,1008,o),
(455,1008,cs),
(401,1008,o),
(395,1094,o),
(320,1094,cs),
(263,1094,o),
(227,1049,o),
(227,972,c),
(268,972,l),
(268,1021,o),
(287,1050,o),
(318,1050,cs),
(371,1050,o),
(372,963,o),
(455,963,cs)
);
},
{
closed = 1;
nodes = (
(237,752,l),
(295,752,l),
(386,850,l),
(478,752,l),
(535,752,l),
(386,911,l)
);
},
{
closed = 1;
nodes = (
(577,-10,o),
(705,133,o),
(705,348,cs),
(705,564,o),
(577,707,o),
(386,707,cs),
(195,707,o),
(67,564,o),
(67,348,cs),
(67,133,o),
(195,-10,o),
(386,-10,cs)
);
},
{
closed = 1;
nodes = (
(235,58,o),
(138,171,o),
(138,348,cs),
(138,526,o),
(235,639,o),
(386,639,cs),
(537,639,o),
(634,526,o),
(634,348,cs),
(634,171,o),
(537,58,o),
(386,58,cs)
);
}
);
width = 772;
}
);
note = uni1ED6;
unicode = 7894;
},
{
glyphname = Odieresis;
kernLeft = C;
kernRight = D;
layers = (
{
hints = (
{
horizontal = 1;
place = (-10, 68);
place = (-10, 68);
type = Stem;
},
{
horizontal = 1;
place = (639, 68);
place = (639, 68);
type = Stem;
},
{
horizontal = 1;
place = (799, 102);
place = (799, 102);
type = Stem;
},
{
place = (67, 71);
place = (67, 71);
type = Stem;
},
{
place = (256, 80);
place = (256, 80);
type = Stem;
},
{
place = (436, 80);
place = (436, 80);
type = Stem;
},
{
place = (634, 71);
place = (634, 71);
type = Stem;
}
);
layerId = m01;
shapes = (
{
closed = 1;
nodes = (
(256,799,l),
(336,799,l),
(336,901,l),
(256,901,l)
);
},
{
closed = 1;
nodes = (
(436,799,l),
(516,799,l),
(516,901,l),
(436,901,l)
);
},
{
closed = 1;
nodes = (
(577,-10,o),
(705,133,o),
(705,348,cs),
(705,564,o),
(577,707,o),
(386,707,cs),
(195,707,o),
(67,564,o),
(67,348,cs),
(67,133,o),
(195,-10,o),
(386,-10,cs)
);
},
{
closed = 1;
nodes = (
(235,58,o),
(138,171,o),
(138,348,cs),
(138,526,o),
(235,639,o),
(386,639,cs),
(537,639,o),
(634,526,o),
(634,348,cs),
(634,171,o),
(537,58,o),
(386,58,cs)
);
}
);
width = 772;
}
);
note = Odieresis;
unicode = 214;
},
{
glyphname = uni1ECC;
kernLeft = C;
kernRight = D;
layers = (
{
hints = (
{
horizontal = 1;
place = (-173, 101);
place = (-173, 101);
type = Stem;
},
{
horizontal = 1;
place = (-10, 68);
place = (-10, 68);
type = Stem;
},
{
horizontal = 1;
place = (639, 68);
place = (639, 68);
type = Stem;
},
{
place = (67, 71);
place = (67, 71);
type = Stem;
},
{
place = (346, 80);
place = (346, 80);
type = Stem;
},
{
place = (634, 71);
place = (634, 71);
type = Stem;
}
);
layerId = m01;
shapes = (
{
closed = 1;
nodes = (
(577,-10,o),
(705,133,o),
(705,348,cs),
(705,564,o),
(577,707,o),
(386,707,cs),
(195,707,o),
(67,564,o),
(67,348,cs),
(67,133,o),
(195,-10,o),
(386,-10,cs)
);
},
{
closed = 1;
nodes = (
(235,58,o),
(138,171,o),
(138,348,cs),
(138,526,o),
(235,639,o),
(386,639,cs),
(537,639,o),
(634,526,o),
(634,348,cs),
(634,171,o),
(537,58,o),
(386,58,cs)
);
},
{
closed = 1;
nodes = (
(346,-173,l),
(426,-173,l),
(426,-72,l),
(346,-72,l)
);
}
);
width = 772;
}
);
note = uni1ECC;
unicode = 7884;
},
{
glyphname = Ograve;
kernLeft = C;
kernRight = D;
layers = (
{
hints = (
{
horizontal = 1;
place = (-10, 68);
place = (-10, 68);
type = Stem;
},
{
horizontal = 1;
place = (639, 68);
place = (639, 68);
type = Stem;
},
{
horizontal = 1;
place = (760, 141);
place = (760, 141);
type = Stem;
},
{
place = (67, 71);
place = (67, 71);
type = Stem;
},
{
place = (634, 71);
place = (634, 71);
type = Stem;
}
);
layerId = m01;
shapes = (
{
closed = 1;
nodes = (
(359,760,l),
(413,760,l),
(309,901,l),
(235,901,l)
);
},
{
closed = 1;
nodes = (
(577,-10,o),
(705,133,o),
(705,348,cs),
(705,564,o),
(577,707,o),
(386,707,cs),
(195,707,o),
(67,564,o),
(67,348,cs),
(67,133,o),
(195,-10,o),
(386,-10,cs)
);
},
{
closed = 1;
nodes = (
(235,58,o),
(138,171,o),
(138,348,cs),
(138,526,o),
(235,639,o),
(386,639,cs),
(537,639,o),
(634,526,o),
(634,348,cs),
(634,171,o),
(537,58,o),
(386,58,cs)
);
}
);
width = 772;
}
);
note = Ograve;
unicode = 210;
},
{
glyphname = uni1ECE;
kernLeft = C;
kernRight = D;
layers = (
{
hints = (
{
horizontal = 1;
place = (-10, 68);
place = (-10, 68);
type = Stem;
},
{
horizontal = 1;
place = (639, 68);
place = (639, 68);
type = Stem;
},
{
horizontal = 1;
place = (882, 40);
place = (882, 40);
type = Stem;
},
{
place = (67, 71);
place = (67, 71);
type = Stem;
},
{
place = (448, 47);
place = (448, 47);
type = Stem;
},
{
place = (634, 71);
place = (634, 71);
type = Stem;
}
);
layerId = m01;
shapes = (
{
closed = 1;
nodes = (
(380,736,l),
(429,746,o),
(495,757,o),
(495,824,cs),
(495,888,o),
(436,922,o),
(356,922,cs),
(341,922,l),
(341,882,l),
(356,882,ls),
(403,882,o),
(448,867,o),
(448,826,cs),
(448,789,o),
(406,781,o),
(368,775,c)
);
},
{
closed = 1;
nodes = (
(577,-10,o),
(705,133,o),
(705,348,cs),
(705,564,o),
(577,707,o),
(386,707,cs),
(195,707,o),
(67,564,o),
(67,348,cs),
(67,133,o),
(195,-10,o),
(386,-10,cs)
);
},
{
closed = 1;
nodes = (
(235,58,o),
(138,171,o),
(138,348,cs),
(138,526,o),
(235,639,o),
(386,639,cs),
(537,639,o),
(634,526,o),
(634,348,cs),
(634,171,o),
(537,58,o),
(386,58,cs)
);
}
);
width = 772;
}
);
note = uni1ECE;
unicode = 7886;
},
{
glyphname = Ohorn;
kernLeft = C;
kernRight = D;
layers = (
{
hints = (
{
horizontal = 1;
place = (-10, 68);
place = (-10, 68);
type = Stem;
},
{
horizontal = 1;
place = (501, -20);
target = down;
type = TopGhost;
},
{
horizontal = 1;
place = (697, -20);
target = down;
type = TopGhost;
},
{
place = (67, 71);
place = (67, 71);
type = Stem;
},
{
place = (634, 71);
place = (634, 71);
type = Stem;
},
{
place = (724, 53);
place = (724, 53);
type = Stem;
},
{
horizontal = 1;
place = (639, 68);
place = (639, 68);
type = Stem;
}
);
layerId = m01;
shapes = (
{
closed = 1;
nodes = (
(724,697,l),
(724,644,ls),
(724,594,o),
(707,555,o),
(660,546,c),
(607,647,o),
(510,707,o),
(386,707,cs),
(195,707,o),
(67,564,o),
(67,348,cs),
(67,133,o),
(195,-10,o),
(386,-10,cs),
(577,-10,o),
(705,133,o),
(705,348,cs),
(705,404,o),
(696,456,o),
(680,501,c),
(748,517,o),
(777,572,o),
(777,649,cs),
(777,697,l)
);
},
{
closed = 1;
nodes = (
(235,58,o),
(138,171,o),
(138,348,cs),
(138,526,o),
(235,639,o),
(386,639,cs),
(537,639,o),
(634,526,o),
(634,348,cs),
(634,171,o),
(537,58,o),
(386,58,cs)
);
}
);
width = 772;
}
);
note = Ohorn;
unicode = 416;
},
{
glyphname = uni1EDA;
kernLeft = C;
kernRight = D;
layers = (
{
hints = (
{
horizontal = 1;
place = (-10, 68);
place = (-10, 68);
type = Stem;
},
{
horizontal = 1;
place = (501, -20);
target = down;
type = TopGhost;
},
{
horizontal = 1;
place = (639, 68);
place = (639, 68);
type = Stem;
},
{
horizontal = 1;
place = (760, 141);
place = (760, 141);
type = Stem;
},
{
place = (67, 71);
place = (67, 71);
type = Stem;
},
{
place = (634, 71);
place = (634, 71);
type = Stem;
},
{
horizontal = 1;
place = (697, -20);
target = down;
type = TopGhost;
},
{
place = (724, 53);
place = (724, 53);
type = Stem;
}
);
layerId = m01;
shapes = (
{
closed = 1;
nodes = (
(542,901,l),
(468,901,l),
(360,760,l),
(413,760,l)
);
},
{
closed = 1;
nodes = (
(724,697,l),
(724,644,ls),
(724,594,o),
(707,555,o),
(660,546,c),
(607,647,o),
(510,707,o),
(386,707,cs),
(195,707,o),
(67,564,o),
(67,348,cs),
(67,133,o),
(195,-10,o),
(386,-10,cs),
(577,-10,o),
(705,133,o),
(705,348,cs),
(705,404,o),
(696,456,o),
(680,501,c),
(748,517,o),
(777,572,o),
(777,649,cs),
(777,697,l)
);
},
{
closed = 1;
nodes = (
(235,58,o),
(138,171,o),
(138,348,cs),
(138,526,o),
(235,639,o),
(386,639,cs),
(537,639,o),
(634,526,o),
(634,348,cs),
(634,171,o),
(537,58,o),
(386,58,cs)
);
}
);
width = 772;
}
);
note = uni1EDA;
unicode = 7898;
},
{
glyphname = uni1EE2;
kernLeft = C;
kernRight = D;
layers = (
{
hints = (
{
horizontal = 1;
place = (-173, 101);
place = (-173, 101);
type = Stem;
},
{
horizontal = 1;
place = (-10, 68);
place = (-10, 68);
type = Stem;
},
{
horizontal = 1;
place = (501, -20);
target = down;
type = TopGhost;
},
{
horizontal = 1;
place = (697, -20);
target = down;
type = TopGhost;
},
{
place = (67, 71);
place = (67, 71);
type = Stem;
},
{
place = (346, 80);
place = (346, 80);
type = Stem;
},
{
place = (634, 71);
place = (634, 71);
type = Stem;
},
{
place = (724, 53);
place = (724, 53);
type = Stem;
},
{
horizontal = 1;
place = (639, 68);
place = (639, 68);
type = Stem;
}
);
layerId = m01;
shapes = (
{
closed = 1;
nodes = (
(724,697,l),
(724,644,ls),
(724,594,o),
(707,555,o),
(660,546,c),
(607,647,o),
(510,707,o),
(386,707,cs),
(195,707,o),
(67,564,o),
(67,348,cs),
(67,133,o),
(195,-10,o),
(386,-10,cs),
(577,-10,o),
(705,133,o),
(705,348,cs),
(705,404,o),
(696,456,o),
(680,501,c),
(748,517,o),
(777,572,o),
(777,649,cs),
(777,697,l)
);
},
{
closed = 1;
nodes = (
(235,58,o),
(138,171,o),
(138,348,cs),
(138,526,o),
(235,639,o),
(386,639,cs),
(537,639,o),
(634,526,o),
(634,348,cs),
(634,171,o),
(537,58,o),
(386,58,cs)
);
},
{
closed = 1;
nodes = (
(346,-173,l),
(426,-173,l),
(426,-72,l),
(346,-72,l)
);
}
);
width = 772;
}
);
note = uni1EE2;
unicode = 7906;
},
{
glyphname = uni1EDC;
kernLeft = C;
kernRight = D;
layers = (
{
hints = (
{
horizontal = 1;
place = (-10, 68);
place = (-10, 68);
type = Stem;
},
{
horizontal = 1;
place = (501, -20);
target = down;
type = TopGhost;
},
{
horizontal = 1;
place = (639, 68);
place = (639, 68);
type = Stem;
},
{
horizontal = 1;
place = (760, 141);
place = (760, 141);
type = Stem;
},
{
place = (67, 71);
place = (67, 71);
type = Stem;
},
{
place = (634, 71);
place = (634, 71);
type = Stem;
},
{
horizontal = 1;
place = (697, -20);
target = down;
type = TopGhost;
},
{
place = (724, 53);
place = (724, 53);
type = Stem;
}
);
layerId = m01;
shapes = (
{
closed = 1;
nodes = (
(413,760,l),
(309,901,l),
(235,901,l),
(359,760,l)
);
},
{
closed = 1;
nodes = (
(724,697,l),
(724,644,ls),
(724,594,o),
(707,555,o),
(660,546,c),
(607,647,o),
(510,707,o),
(386,707,cs),
(195,707,o),
(67,564,o),
(67,348,cs),
(67,133,o),
(195,-10,o),
(386,-10,cs),
(577,-10,o),
(705,133,o),
(705,348,cs),
(705,404,o),
(696,456,o),
(680,501,c),
(748,517,o),
(777,572,o),
(777,649,cs),
(777,697,l)
);
},
{
closed = 1;
nodes = (
(235,58,o),
(138,171,o),
(138,348,cs),
(138,526,o),
(235,639,o),
(386,639,cs),
(537,639,o),
(634,526,o),
(634,348,cs),
(634,171,o),
(537,58,o),
(386,58,cs)
);
}
);
width = 772;
}
);
note = uni1EDC;
unicode = 7900;
},
{
glyphname = uni1EDE;
kernLeft = C;
kernRight = D;
layers = (
{
hints = (
{
horizontal = 1;
place = (-10, 68);
place = (-10, 68);
type = Stem;
},
{
horizontal = 1;
place = (501, -20);
target = down;
type = TopGhost;
},
{
horizontal = 1;
place = (639, 68);
place = (639, 68);
type = Stem;
},
{
horizontal = 1;
place = (882, 40);
place = (882, 40);
type = Stem;
},
{
place = (67, 71);
place = (67, 71);
type = Stem;
},
{
place = (448, 47);
place = (448, 47);
type = Stem;
},
{
place = (634, 71);
place = (634, 71);
type = Stem;
},
{
horizontal = 1;
place = (697, -20);
target = down;
type = TopGhost;
},
{
place = (724, 53);
place = (724, 53);
type = Stem;
}
);
layerId = m01;
shapes = (
{
closed = 1;
nodes = (
(448,789,o),
(406,781,o),
(368,775,c),
(380,736,l),
(429,746,o),
(495,757,o),
(495,824,cs),
(495,888,o),
(436,922,o),
(356,922,cs),
(341,922,l),
(341,882,l),
(356,882,ls),
(403,882,o),
(448,867,o),
(448,826,cs)
);
},
{
closed = 1;
nodes = (
(724,697,l),
(724,644,ls),
(724,594,o),
(707,555,o),
(660,546,c),
(607,647,o),
(510,707,o),
(386,707,cs),
(195,707,o),
(67,564,o),
(67,348,cs),
(67,133,o),
(195,-10,o),
(386,-10,cs),
(577,-10,o),
(705,133,o),
(705,348,cs),
(705,404,o),
(696,456,o),
(680,501,c),
(748,517,o),
(777,572,o),
(777,649,cs),
(777,697,l)
);
},
{
closed = 1;
nodes = (
(235,58,o),
(138,171,o),
(138,348,cs),
(138,526,o),
(235,639,o),
(386,639,cs),
(537,639,o),
(634,526,o),
(634,348,cs),
(634,171,o),
(537,58,o),
(386,58,cs)
);
}
);
width = 772;
}
);
note = uni1EDE;
unicode = 7902;
},
{
glyphname = uni1EE0;
kernLeft = C;
kernRight = D;
layers = (
{
hints = (
{
horizontal = 1;
place = (-10, 68);
place = (-10, 68);
type = Stem;
},
{
horizontal = 1;
place = (501, -20);
target = down;
type = TopGhost;
},
{
horizontal = 1;
place = (639, 68);
place = (639, 68);
type = Stem;
},
{
horizontal = 1;
place = (774, 45);
place = (774, 45);
type = Stem;
},
{
horizontal = 1;
place = (861, 44);
place = (861, 44);
type = Stem;
},
{
place = (67, 71);
place = (67, 71);
type = Stem;
},
{
place = (227, 41);
place = (227, 41);
type = Stem;
},
{
place = (501, 43);
place = (501, 43);
type = Stem;
},
{
place = (634, 71);
place = (634, 71);
type = Stem;
},
{
horizontal = 1;
place = (697, -20);
target = down;
type = TopGhost;
},
{
place = (724, 53);
place = (724, 53);
type = Stem;
}
);
layerId = m01;
shapes = (
{
closed = 1;
nodes = (
(371,861,o),
(372,774,o),
(455,774,cs),
(508,774,o),
(544,822,o),
(544,901,c),
(501,901,l),
(501,850,o),
(481,819,o),
(455,819,cs),
(401,819,o),
(395,905,o),
(320,905,cs),
(263,905,o),
(227,860,o),
(227,783,c),
(268,783,l),
(268,832,o),
(287,861,o),
(318,861,cs)
);
},
{
closed = 1;
nodes = (
(724,697,l),
(724,644,ls),
(724,594,o),
(707,555,o),
(660,546,c),
(607,647,o),
(510,707,o),
(386,707,cs),
(195,707,o),
(67,564,o),
(67,348,cs),
(67,133,o),
(195,-10,o),
(386,-10,cs),
(577,-10,o),
(705,133,o),
(705,348,cs),
(705,404,o),
(696,456,o),
(680,501,c),
(748,517,o),
(777,572,o),
(777,649,cs),
(777,697,l)
);
},
{
closed = 1;
nodes = (
(235,58,o),
(138,171,o),
(138,348,cs),
(138,526,o),
(235,639,o),
(386,639,cs),
(537,639,o),
(634,526,o),
(634,348,cs),
(634,171,o),
(537,58,o),
(386,58,cs)
);
}
);
width = 772;
}
);
note = uni1EE0;
unicode = 7904;
},
{
glyphname = Ohungarumlaut;
kernLeft = C;
kernRight = D;
layers = (
{
hints = (
{
horizontal = 1;
place = (-10, 68);
place = (-10, 68);
type = Stem;
},
{
horizontal = 1;
place = (639, 68);
place = (639, 68);
type = Stem;
},
{
horizontal = 1;
place = (749, 152);
place = (749, 152);
type = Stem;
},
{
place = (67, 71);
place = (67, 71);
type = Stem;
},
{
place = (634, 71);
place = (634, 71);
type = Stem;
}
);
layerId = m01;
shapes = (
{
closed = 1;
nodes = (
(274,749,l),
(327,749,l),
(445,901,l),
(382,901,l)
);
},
{
closed = 1;
nodes = (
(444,749,l),
(497,749,l),
(626,901,l),
(552,901,l)
);
},
{
closed = 1;
nodes = (
(577,-10,o),
(705,133,o),
(705,348,cs),
(705,564,o),
(577,707,o),
(386,707,cs),
(195,707,o),
(67,564,o),
(67,348,cs),
(67,133,o),
(195,-10,o),
(386,-10,cs)
);
},
{
closed = 1;
nodes = (
(235,58,o),
(138,171,o),
(138,348,cs),
(138,526,o),
(235,639,o),
(386,639,cs),
(537,639,o),
(634,526,o),
(634,348,cs),
(634,171,o),
(537,58,o),
(386,58,cs)
);
}
);
width = 772;
}
);
note = Ohungarumlaut;
unicode = 336;
},
{
glyphname = Omacron;
kernLeft = C;
kernRight = D;
layers = (
{
hints = (
{
horizontal = 1;
place = (-10, 68);
place = (-10, 68);
type = Stem;
},
{
horizontal = 1;
place = (639, 68);
place = (639, 68);
type = Stem;
},
{
horizontal = 1;
place = (803, 42);
place = (803, 42);
type = Stem;
},
{
place = (67, 71);
place = (67, 71);
type = Stem;
},
{
place = (634, 71);
place = (634, 71);
type = Stem;
}
);
layerId = m01;
shapes = (
{
closed = 1;
nodes = (
(250,803,l),
(520,803,l),
(520,845,l),
(250,845,l)
);
},
{
closed = 1;
nodes = (
(577,-10,o),
(705,133,o),
(705,348,cs),
(705,564,o),
(577,707,o),
(386,707,cs),
(195,707,o),
(67,564,o),
(67,348,cs),
(67,133,o),
(195,-10,o),
(386,-10,cs)
);
},
{
closed = 1;
nodes = (
(235,58,o),
(138,171,o),
(138,348,cs),
(138,526,o),
(235,639,o),
(386,639,cs),
(537,639,o),
(634,526,o),
(634,348,cs),
(634,171,o),
(537,58,o),
(386,58,cs)
);
}
);
width = 772;
}
);
note = Omacron;
unicode = 332;
},
{
glyphname = Oslash;
kernLeft = C;
kernRight = D;
layers = (
{
hints = (
{
horizontal = 1;
place = (-10, 68);
place = (-10, 68);
type = Stem;
},
{
horizontal = 1;
place = (627, 70);
place = (627, 70);
type = Stem;
},
{
place = (67, 71);
place = (67, 71);
type = Stem;
},
{
place = (634, 71);
place = (634, 71);
type = Stem;
},
{
horizontal = 1;
place = (0, 70);
place = (0, 70);
type = Stem;
},
{
horizontal = 1;
place = (639, 68);
place = (639, 68);
type = Stem;
}
);
layerId = m01;
shapes = (
{
closed = 1;
nodes = (
(645,697,l),
(576,697,l),
(553,662,l),
(506,691,o),
(450,707,o),
(386,707,cs),
(195,707,o),
(67,564,o),
(67,348,cs),
(67,230,o),
(106,133,o),
(172,70,c),
(127,0,l),
(196,0,l),
(219,35,l),
(266,6,o),
(322,-10,o),
(386,-10,cs),
(577,-10,o),
(705,133,o),
(705,348,cs),
(705,467,o),
(666,564,o),
(600,627,c)
);
},
{
closed = 1;
nodes = (
(138,526,o),
(235,639,o),
(386,639,cs),
(436,639,o),
(480,627,o),
(516,604,c),
(211,130,l),
(164,181,o),
(138,256,o),
(138,348,cs)
);
},
{
closed = 1;
nodes = (
(336,58,o),
(292,70,o),
(256,93,c),
(561,567,l),
(608,516,o),
(634,441,o),
(634,348,cs),
(634,171,o),
(537,58,o),
(386,58,cs)
);
}
);
width = 772;
}
);
note = Oslash;
unicode = 216;
},
{
glyphname = Otilde;
kernLeft = C;
kernRight = D;
layers = (
{
hints = (
{
horizontal = 1;
place = (-10, 68);
place = (-10, 68);
type = Stem;
},
{
horizontal = 1;
place = (639, 68);
place = (639, 68);
type = Stem;
},
{
horizontal = 1;
place = (774, 45);
place = (774, 45);
type = Stem;
},
{
horizontal = 1;
place = (861, 44);
place = (861, 44);
type = Stem;
},
{
place = (67, 71);
place = (67, 71);
type = Stem;
},
{
place = (227, 41);
place = (227, 41);
type = Stem;
},
{
place = (501, 43);
place = (501, 43);
type = Stem;
},
{
place = (634, 71);
place = (634, 71);
type = Stem;
}
);
layerId = m01;
shapes = (
{
closed = 1;
nodes = (
(508,774,o),
(544,822,o),
(544,901,c),
(501,901,l),
(501,850,o),
(481,819,o),
(455,819,cs),
(401,819,o),
(395,905,o),
(320,905,cs),
(263,905,o),
(227,860,o),
(227,783,c),
(268,783,l),
(268,832,o),
(287,861,o),
(318,861,cs),
(371,861,o),
(372,774,o),
(455,774,cs)
);
},
{
closed = 1;
nodes = (
(577,-10,o),
(705,133,o),
(705,348,cs),
(705,564,o),
(577,707,o),
(386,707,cs),
(195,707,o),
(67,564,o),
(67,348,cs),
(67,133,o),
(195,-10,o),
(386,-10,cs)
);
},
{
closed = 1;
nodes = (
(235,58,o),
(138,171,o),
(138,348,cs),
(138,526,o),
(235,639,o),
(386,639,cs),
(537,639,o),
(634,526,o),
(634,348,cs),
(634,171,o),
(537,58,o),
(386,58,cs)
);
}
);
width = 772;
}
);
note = Otilde;
unicode = 213;
},
{
glyphname = OE;
kernLeft = C;
layers = (
{
hints = (
{
horizontal = 1;
place = (0, 66);
place = (0, 66);
type = Stem;
},
{
horizontal = 1;
place = (322, 66);
place = (322, 66);
type = Stem;
},
{
horizontal = 1;
place = (631, 66);
place = (631, 66);
type = Stem;
},
{
place = (67, 71);
place = (67, 71);
type = Stem;
},
{
place = (634, 72);
place = (634, 72);
type = Stem;
},
{
place = (635, 71);
place = (635, 71);
type = Stem;
},
{
horizontal = 1;
place = (-10, 68);
place = (-10, 68);
type = Stem;
},
{
horizontal = 1;
place = (639, 68);
place = (639, 68);
type = Stem;
}
);
layerId = m01;
shapes = (
{
closed = 1;
nodes = (
(1092,631,l),
(1092,697,l),
(635,697,l),
(635,586,l),
(579,663,o),
(492,707,o),
(386,707,cs),
(195,707,o),
(67,564,o),
(67,348,cs),
(67,133,o),
(195,-10,o),
(386,-10,cs),
(492,-10,o),
(579,34,o),
(635,110,c),
(635,0,l),
(1092,0,l),
(1092,66,l),
(706,66,l),
(706,322,l),
(1053,322,l),
(1053,388,l),
(706,388,l),
(706,631,l)
);
},
{
closed = 1;
nodes = (
(235,58,o),
(138,171,o),
(138,348,cs),
(138,526,o),
(235,639,o),
(386,639,cs),
(537,639,o),
(634,526,o),
(634,348,cs),
(634,171,o),
(537,58,o),
(386,58,cs)
);
}
);
width = 1153;
}
);
note = OE;
unicode = 338;
},
{
glyphname = P;
kernLeft = B;
kernRight = P;
lastChange = "2022-12-21 09:08:10 +0000";
layers = (
{
hints = (
{
horizontal = 1;
place = (0, 21);
target = up;
type = BottomGhost;
},
{
horizontal = 1;
place = (304, 66);
place = (304, 66);
type = Stem;
},
{
horizontal = 1;
place = (631, 66);
place = (631, 66);
type = Stem;
},
{
place = (114, 71);
place = (114, 71);
type = Stem;
},
{
place = (471, 72);
place = (471, 72);
type = Stem;
}
);
layerId = m01;
shapes = (
{
closed = 1;
nodes = (
(114,0,l),
(150,0,l),
(185,50,l),
(185,304,l),
(313,304,ls),
(460,304,o),
(543,375,o),
(543,502,cs),
(543,627,o),
(461,697,o),
(313,697,cs),
(114,697,l)
);
},
{
closed = 1;
nodes = (
(185,370,l),
(185,631,l),
(306,631,ls),
(415,631,o),
(471,587,o),
(471,501,cs),
(471,415,o),
(415,370,o),
(306,370,cs)
);
}
);
width = 593;
}
);
note = P;
unicode = 80;
},
{
glyphname = Thorn;
kernLeft = B;
kernRight = Thorn;
layers = (
{
hints = (
{
horizontal = 1;
place = (0, 21);
target = up;
type = BottomGhost;
},
{
horizontal = 1;
place = (205, 60);
place = (205, 60);
type = Stem;
},
{
horizontal = 1;
place = (540, 57);
place = (540, 57);
type = Stem;
},
{
place = (114, 65);
place = (114, 65);
type = Stem;
},
{
place = (471, 66);
place = (471, 66);
type = Stem;
},
{
horizontal = 1;
place = (540, 157);
place = (540, 157);
type = Stem;
}
);
layerId = m01;
shapes = (
{
closed = 1;
nodes = (
(114,0,l),
(179,0,l),
(179,205,l),
(305,205,ls),
(451,205,o),
(537,279,o),
(537,404,cs),
(537,525,o),
(456,597,o),
(319,597,cs),
(179,597,l),
(179,697,l),
(114,697,l)
);
},
{
closed = 1;
nodes = (
(179,265,l),
(179,540,l),
(305,540,ls),
(411,540,o),
(471,490,o),
(471,401,cs),
(471,313,o),
(413,265,o),
(305,265,cs)
);
}
);
width = 587;
}
);
note = Thorn;
unicode = 222;
},
{
glyphname = Q;
kernLeft = C;
kernRight = Q;
lastChange = "2022-12-21 09:10:52 +0000";
layers = (
{
hints = (
{
horizontal = 1;
place = (-10, 68);
place = (-10, 68);
type = Stem;
},
{
horizontal = 1;
place = (639, 68);
place = (639, 68);
type = Stem;
},
{
place = (66, 71);
place = (66, 71);
type = Stem;
},
{
place = (633, 71);
place = (633, 71);
type = Stem;
}
);
layerId = m01;
shapes = (
{
closed = 1;
nodes = (
(689,-12,l),
(684,21,l),
(616,88,l),
(672,151,o),
(704,240,o),
(704,348,cs),
(704,564,o),
(576,707,o),
(385,707,cs),
(194,707,o),
(66,564,o),
(66,348,cs),
(66,133,o),
(194,-10,o),
(385,-10,cs),
(456,-10,o),
(518,10,o),
(569,46,c),
(666,-33,l)
);
},
{
closed = 1;
nodes = (
(234,39,o),
(137,171,o),
(137,348,cs),
(137,526,o),
(234,657,o),
(385,657,c),
(536,657,o),
(633,526,o),
(633,348,cs),
(633,260,o),
(609,187,o),
(566,137,c),
(453,248,l),
(405,205,l),
(518,95,l),
(481,71,o),
(436,39,o),
(385,39,cs)
);
}
);
width = 784;
}
);
note = Q;
unicode = 81;
},
{
glyphname = R;
kernLeft = B;
kernRight = R;
lastChange = "2022-12-21 09:09:20 +0000";
layers = (
{
hints = (
{
horizontal = 1;
place = (0, 21);
target = up;
type = BottomGhost;
},
{
horizontal = 1;
place = (309, 66);
place = (309, 66);
type = Stem;
},
{
horizontal = 1;
place = (631, 66);
place = (631, 66);
type = Stem;
},
{
place = (114, 71);
place = (114, 71);
type = Stem;
},
{
place = (471, 72);
place = (471, 72);
type = Stem;
}
);
layerId = m01;
shapes = (
{
closed = 1;
nodes = (
(528,0,ls),
(538,0,o),
(540,4,o),
(535,13,cs),
(353,318,l),
(484,318,o),
(543,406,o),
(543,504,cs),
(543,630,o),
(463,697,o),
(313,697,cs),
(114,697,l),
(114,0,l),
(150,0,l),
(185,50,l),
(185,309,l),
(251,309,l),
(282,309,l),
(460,0,l)
);
},
{
closed = 1;
nodes = (
(185,375,l),
(185,631,l),
(306,631,ls),
(416,631,o),
(471,588,o),
(471,503,cs),
(471,418,o),
(416,375,o),
(306,375,cs)
);
}
);
width = 633;
}
);
note = R;
unicode = 82;
},
{
glyphname = Racute;
kernLeft = B;
kernRight = R;
layers = (
{
hints = (
{
horizontal = 1;
place = (0, 21);
target = up;
type = BottomGhost;
},
{
horizontal = 1;
place = (309, 66);
place = (309, 66);
type = Stem;
},
{
horizontal = 1;
place = (631, 66);
place = (631, 66);
type = Stem;
},
{
horizontal = 1;
place = (760, 141);
place = (760, 141);
type = Stem;
},
{
place = (114, 71);
place = (114, 71);
type = Stem;
},
{
place = (471, 72);
place = (471, 72);
type = Stem;
}
);
layerId = m01;
shapes = (
{
closed = 1;
nodes = (
(473,901,l),
(399,901,l),
(291,760,l),
(344,760,l)
);
},
{
closed = 1;
nodes = (
(590,0,l),
(400,318,l),
(494,343,o),
(543,406,o),
(543,504,cs),
(543,630,o),
(463,697,o),
(313,697,cs),
(114,697,l),
(114,0,l),
(185,0,l),
(185,309,l),
(282,309,l),
(329,309,l),
(507,0,l)
);
},
{
closed = 1;
nodes = (
(185,375,l),
(185,631,l),
(306,631,ls),
(416,631,o),
(471,588,o),
(471,503,cs),
(471,418,o),
(416,375,o),
(306,375,cs)
);
}
);
width = 633;
}
);
note = Racute;
unicode = 340;
},
{
glyphname = Rcaron;
kernLeft = B;
kernRight = R;
layers = (
{
hints = (
{
horizontal = 1;
place = (0, 21);
target = up;
type = BottomGhost;
},
{
horizontal = 1;
place = (309, 66);
place = (309, 66);
type = Stem;
},
{
horizontal = 1;
place = (631, 66);
place = (631, 66);
type = Stem;
},
{
place = (114, 71);
place = (114, 71);
type = Stem;
},
{
place = (471, 72);
place = (471, 72);
type = Stem;
}
);
layerId = m01;
shapes = (
{
closed = 1;
nodes = (
(466,901,l),
(409,901,l),
(317,806,l),
(225,901,l),
(168,901,l),
(317,748,l)
);
},
{
closed = 1;
nodes = (
(590,0,l),
(400,318,l),
(494,343,o),
(543,406,o),
(543,504,cs),
(543,630,o),
(463,697,o),
(313,697,cs),
(114,697,l),
(114,0,l),
(185,0,l),
(185,309,l),
(282,309,l),
(329,309,l),
(507,0,l)
);
},
{
closed = 1;
nodes = (
(185,375,l),
(185,631,l),
(306,631,ls),
(416,631,o),
(471,588,o),
(471,503,cs),
(471,418,o),
(416,375,o),
(306,375,cs)
);
}
);
width = 633;
}
);
note = Rcaron;
unicode = 344;
},
{
glyphname = uni0156;
kernLeft = B;
kernRight = R;
layers = (
{
hints = (
{
horizontal = 1;
place = (-221, 165);
place = (-221, 165);
type = Stem;
},
{
horizontal = 1;
place = (0, 21);
target = up;
type = BottomGhost;
},
{
horizontal = 1;
place = (309, 66);
place = (309, 66);
type = Stem;
},
{
horizontal = 1;
place = (631, 66);
place = (631, 66);
type = Stem;
},
{
place = (114, 71);
place = (114, 71);
type = Stem;
},
{
place = (471, 72);
place = (471, 72);
type = Stem;
}
);
layerId = m01;
shapes = (
{
closed = 1;
nodes = (
(400,318,l),
(494,343,o),
(543,406,o),
(543,504,cs),
(543,630,o),
(463,697,o),
(313,697,cs),
(114,697,l),
(114,0,l),
(185,0,l),
(185,309,l),
(282,309,l),
(329,309,l),
(507,0,l),
(590,0,l)
);
},
{
closed = 1;
nodes = (
(185,375,l),
(185,631,l),
(306,631,ls),
(416,631,o),
(471,588,o),
(471,503,cs),
(471,418,o),
(416,375,o),
(306,375,cs)
);
},
{
closed = 1;
nodes = (
(192,-221,l),
(236,-221,l),
(353,-56,l),
(280,-56,l)
);
}
);
width = 633;
}
);
note = uni0156;
unicode = 342;
},
{
glyphname = S;
kernLeft = S;
kernRight = S;
layers = (
{
hints = (
{
horizontal = 1;
place = (-10, 64);
place = (-10, 64);
type = Stem;
},
{
horizontal = 1;
place = (643, 64);
place = (643, 64);
type = Stem;
},
{
place = (91, 71);
place = (91, 71);
type = Stem;
},
{
place = (447, 72);
place = (447, 72);
type = Stem;
}
);
layerId = m01;
shapes = (
{
closed = 1;
nodes = (
(438,-10,o),
(519,65,o),
(519,182,cs),
(519,279,o),
(475,335,o),
(320,394,cs),
(210,436,o),
(162,470,o),
(162,534,cs),
(162,593,o),
(214,643,o),
(287,643,cs),
(347,643,o),
(398,611,o),
(428,557,c),
(488,594,l),
(446,668,o),
(377,707,o),
(289,707,cs),
(171,707,o),
(91,637,o),
(91,531,cs),
(91,440,o),
(140,390,o),
(281,337,cs),
(404,290,o),
(447,251,o),
(447,176,cs),
(447,107,o),
(396,54,o),
(295,54,cs),
(201,54,o),
(133,111,o),
(120,201,c),
(49,184,l),
(68,67,o),
(165,-10,o),
(294,-10,cs)
);
}
);
width = 574;
}
);
note = S;
unicode = 83;
},
{
glyphname = Sacute;
kernLeft = S;
kernRight = S;
layers = (
{
hints = (
{
horizontal = 1;
place = (-10, 64);
place = (-10, 64);
type = Stem;
},
{
horizontal = 1;
place = (643, 64);
place = (643, 64);
type = Stem;
},
{
horizontal = 1;
place = (760, 141);
place = (760, 141);
type = Stem;
},
{
place = (91, 71);
place = (91, 71);
type = Stem;
},
{
place = (447, 72);
place = (447, 72);
type = Stem;
}
);
layerId = m01;
shapes = (
{
closed = 1;
nodes = (
(261,760,l),
(314,760,l),
(443,901,l),
(369,901,l)
);
},
{
closed = 1;
nodes = (
(438,-10,o),
(519,65,o),
(519,182,cs),
(519,279,o),
(475,335,o),
(320,394,cs),
(210,436,o),
(162,470,o),
(162,534,cs),
(162,593,o),
(214,643,o),
(287,643,cs),
(347,643,o),
(398,611,o),
(428,557,c),
(488,594,l),
(446,668,o),
(377,707,o),
(289,707,cs),
(171,707,o),
(91,637,o),
(91,531,cs),
(91,440,o),
(140,390,o),
(281,337,cs),
(404,290,o),
(447,251,o),
(447,176,cs),
(447,107,o),
(396,54,o),
(295,54,cs),
(201,54,o),
(133,111,o),
(120,201,c),
(49,184,l),
(68,67,o),
(165,-10,o),
(294,-10,cs)
);
}
);
width = 574;
}
);
note = Sacute;
unicode = 346;
},
{
glyphname = Scaron;
kernLeft = S;
kernRight = S;
layers = (
{
hints = (
{
horizontal = 1;
place = (-10, 64);
place = (-10, 64);
type = Stem;
},
{
horizontal = 1;
place = (643, 64);
place = (643, 64);
type = Stem;
},
{
place = (91, 71);
place = (91, 71);
type = Stem;
},
{
place = (447, 72);
place = (447, 72);
type = Stem;
}
);
layerId = m01;
shapes = (
{
closed = 1;
nodes = (
(287,748,l),
(436,901,l),
(379,901,l),
(287,806,l),
(195,901,l),
(138,901,l)
);
},
{
closed = 1;
nodes = (
(438,-10,o),
(519,65,o),
(519,182,cs),
(519,279,o),
(475,335,o),
(320,394,cs),
(210,436,o),
(162,470,o),
(162,534,cs),
(162,593,o),
(214,643,o),
(287,643,cs),
(347,643,o),
(398,611,o),
(428,557,c),
(488,594,l),
(446,668,o),
(377,707,o),
(289,707,cs),
(171,707,o),
(91,637,o),
(91,531,cs),
(91,440,o),
(140,390,o),
(281,337,cs),
(404,290,o),
(447,251,o),
(447,176,cs),
(447,107,o),
(396,54,o),
(295,54,cs),
(201,54,o),
(133,111,o),
(120,201,c),
(49,184,l),
(68,67,o),
(165,-10,o),
(294,-10,cs)
);
}
);
width = 574;
}
);
note = Scaron;
unicode = 352;
},
{
glyphname = Scedilla;
kernLeft = S;
kernRight = S;
layers = (
{
hints = (
{
horizontal = 1;
place = (-255, 42);
place = (-255, 42);
type = Stem;
},
{
horizontal = 1;
place = (-94, 30);
place = (-94, 30);
type = Stem;
},
{
horizontal = 1;
place = (-8, 62);
place = (-8, 62);
type = Stem;
},
{
horizontal = 1;
place = (643, 64);
place = (643, 64);
type = Stem;
},
{
place = (91, 71);
place = (91, 71);
type = Stem;
},
{
place = (342, 42);
place = (342, 42);
type = Stem;
},
{
place = (447, 72);
place = (447, 72);
type = Stem;
}
);
layerId = m01;
shapes = (
{
closed = 1;
nodes = (
(519,279,o),
(475,335,o),
(320,394,cs),
(210,436,o),
(162,470,o),
(162,534,cs),
(162,593,o),
(214,643,o),
(287,643,cs),
(347,643,o),
(398,611,o),
(428,557,c),
(488,594,l),
(446,668,o),
(377,707,o),
(289,707,cs),
(171,707,o),
(91,637,o),
(91,531,cs),
(91,440,o),
(140,390,o),
(281,337,cs),
(404,290,o),
(447,251,o),
(447,176,cs),
(447,107,o),
(396,54,o),
(295,54,cs),
(201,54,o),
(133,111,o),
(120,201,c),
(49,184,l),
(66,77,o),
(148,4,o),
(260,-8,c),
(211,-94,l),
(241,-94,o),
(267,-96,o),
(287,-101,cs),
(318,-109,o),
(342,-125,o),
(342,-158,cs),
(342,-193,o),
(320,-213,o),
(283,-213,cs),
(259,-213,o),
(233,-201,o),
(217,-175,c),
(192,-208,l),
(214,-239,o),
(250,-255,o),
(281,-255,cs),
(343,-255,o),
(384,-214,o),
(384,-157,cs),
(384,-119,o),
(365,-95,o),
(332,-80,cs),
(314,-72,o),
(294,-68,o),
(268,-64,c),
(302,-10,l),
(441,-7,o),
(519,67,o),
(519,182,cs)
);
}
);
width = 574;
}
);
note = Scedilla;
unicode = 350;
},
{
glyphname = uni0218;
kernLeft = S;
kernRight = S;
layers = (
{
hints = (
{
horizontal = 1;
place = (-221, 165);
place = (-221, 165);
type = Stem;
},
{
horizontal = 1;
place = (-10, 64);
place = (-10, 64);
type = Stem;
},
{
horizontal = 1;
place = (643, 64);
place = (643, 64);
type = Stem;
},
{
place = (91, 71);
place = (91, 71);
type = Stem;
},
{
place = (447, 72);
place = (447, 72);
type = Stem;
}
);
layerId = m01;
shapes = (
{
closed = 1;
nodes = (
(438,-10,o),
(519,65,o),
(519,182,cs),
(519,279,o),
(475,335,o),
(320,394,cs),
(210,436,o),
(162,470,o),
(162,534,cs),
(162,593,o),
(214,643,o),
(287,643,cs),
(347,643,o),
(398,611,o),
(428,557,c),
(488,594,l),
(446,668,o),
(377,707,o),
(289,707,cs),
(171,707,o),
(91,637,o),
(91,531,cs),
(91,440,o),
(140,390,o),
(281,337,cs),
(404,290,o),
(447,251,o),
(447,176,cs),
(447,107,o),
(396,54,o),
(295,54,cs),
(201,54,o),
(133,111,o),
(120,201,c),
(49,184,l),
(68,67,o),
(165,-10,o),
(294,-10,cs)
);
},
{
closed = 1;
nodes = (
(162,-221,l),
(206,-221,l),
(323,-56,l),
(250,-56,l)
);
}
);
width = 574;
}
);
note = uni0218;
unicode = 536;
},
{
glyphname = uni1E9E;
layers = (
{
hints = (
{
horizontal = 1;
place = (-8, 67);
place = (-8, 67);
type = Stem;
},
{
horizontal = 1;
place = (628, 69);
place = (628, 69);
type = Stem;
},
{
place = (100, 71);
place = (100, 71);
type = Stem;
},
{
place = (290, 72);
place = (290, 72);
type = Stem;
},
{
place = (568, 77);
place = (568, 77);
type = Stem;
},
{
horizontal = 1;
place = (0, 21);
target = up;
type = BottomGhost;
}
);
layerId = m01;
shapes = (
{
closed = 1;
nodes = (
(572,-8,o),
(645,53,o),
(645,142,cs),
(645,327,o),
(362,255,o),
(362,368,cs),
(362,393,o),
(376,411,o),
(390,427,cs),
(591,656,l),
(591,697,l),
(329,697,ls),
(118,697,o),
(100,546,o),
(100,441,cs),
(100,0,l),
(171,0,l),
(171,441,ls),
(171,566,o),
(213,628,o),
(329,628,cs),
(483,628,l),
(341,469,ls),
(317,442,o),
(290,416,o),
(290,363,cs),
(290,195,o),
(568,269,o),
(568,138,cs),
(568,89,o),
(530,59,o),
(467,59,cs),
(393,59,o),
(343,100,o),
(321,154,c),
(260,122,l),
(285,48,o),
(363,-8,o),
(465,-8,cs)
);
}
);
width = 694;
}
);
note = uni1E9E;
unicode = 7838;
},
{
glyphname = T;
kernLeft = T;
kernRight = T;
lastChange = "2022-12-21 09:11:21 +0000";
layers = (
{
hints = (
{
horizontal = 1;
place = (0, 21);
target = up;
type = BottomGhost;
},
{
horizontal = 1;
place = (631, 66);
place = (631, 66);
type = Stem;
},
{
place = (275, 72);
place = (275, 72);
type = Stem;
}
);
layerId = m01;
shapes = (
{
closed = 1;
nodes = (
(275,0,l),
(312,0,l),
(347,50,l),
(347,631,l),
(589,631,l),
(589,697,l),
(34,697,l),
(34,631,l),
(275,631,l)
);
}
);
width = 623;
}
);
note = T;
unicode = 84;
},
{
glyphname = Tbar;
kernLeft = T;
kernRight = T;
layers = (
{
hints = (
{
horizontal = 1;
place = (0, 21);
target = up;
type = BottomGhost;
},
{
horizontal = 1;
place = (325, 47);
place = (325, 47);
type = Stem;
},
{
horizontal = 1;
place = (631, 66);
place = (631, 66);
type = Stem;
},
{
place = (275, 72);
place = (275, 72);
type = Stem;
}
);
layerId = m01;
shapes = (
{
closed = 1;
nodes = (
(589,631,l),
(589,697,l),
(34,697,l),
(34,631,l),
(275,631,l),
(275,372,l),
(176,372,l),
(176,325,l),
(275,325,l),
(275,0,l),
(347,0,l),
(347,325,l),
(446,325,l),
(446,372,l),
(347,372,l),
(347,631,l)
);
}
);
width = 623;
}
);
note = Tbar;
unicode = 358;
},
{
glyphname = Tcaron;
kernLeft = T;
kernRight = T;
layers = (
{
hints = (
{
horizontal = 1;
place = (0, 21);
target = up;
type = BottomGhost;
},
{
horizontal = 1;
place = (631, 66);
place = (631, 66);
type = Stem;
},
{
place = (275, 72);
place = (275, 72);
type = Stem;
}
);
layerId = m01;
shapes = (
{
closed = 1;
nodes = (
(311,748,l),
(460,901,l),
(403,901,l),
(311,806,l),
(219,901,l),
(162,901,l)
);
},
{
closed = 1;
nodes = (
(275,0,l),
(347,0,l),
(347,631,l),
(589,631,l),
(589,697,l),
(34,697,l),
(34,631,l),
(275,631,l)
);
}
);
width = 623;
}
);
note = Tcaron;
unicode = 356;
},
{
glyphname = uni0162;
kernLeft = T;
kernRight = T;
layers = (
{
hints = (
{
horizontal = 1;
place = (-255, 42);
place = (-255, 42);
type = Stem;
},
{
horizontal = 1;
place = (-94, 30);
place = (-94, 30);
type = Stem;
},
{
horizontal = 1;
place = (0, 21);
target = up;
type = BottomGhost;
},
{
horizontal = 1;
place = (631, 66);
place = (631, 66);
type = Stem;
},
{
place = (275, 72);
place = (275, 72);
type = Stem;
},
{
place = (366, 42);
place = (366, 42);
type = Stem;
}
);
layerId = m01;
shapes = (
{
closed = 1;
nodes = (
(347,0,l),
(347,631,l),
(589,631,l),
(589,697,l),
(34,697,l),
(34,631,l),
(275,631,l),
(275,0,l),
(289,0,l),
(235,-94,l),
(265,-94,o),
(291,-96,o),
(311,-101,cs),
(342,-109,o),
(366,-125,o),
(366,-158,cs),
(366,-193,o),
(344,-213,o),
(307,-213,cs),
(283,-213,o),
(257,-201,o),
(241,-175,c),
(216,-208,l),
(238,-239,o),
(274,-255,o),
(305,-255,cs),
(367,-255,o),
(408,-214,o),
(408,-157,cs),
(408,-119,o),
(389,-95,o),
(356,-80,cs),
(338,-72,o),
(318,-68,o),
(292,-64,c),
(332,0,l)
);
}
);
width = 623;
}
);
note = uni0162;
unicode = 354;
},
{
glyphname = uni021A;
kernLeft = T;
kernRight = T;
layers = (
{
hints = (
{
horizontal = 1;
place = (-221, 165);
place = (-221, 165);
type = Stem;
},
{
horizontal = 1;
place = (0, 21);
target = up;
type = BottomGhost;
},
{
horizontal = 1;
place = (631, 66);
place = (631, 66);
type = Stem;
},
{
place = (275, 72);
place = (275, 72);
type = Stem;
}
);
layerId = m01;
shapes = (
{
closed = 1;
nodes = (
(275,0,l),
(347,0,l),
(347,631,l),
(589,631,l),
(589,697,l),
(34,697,l),
(34,631,l),
(275,631,l)
);
},
{
closed = 1;
nodes = (
(186,-221,l),
(230,-221,l),
(347,-56,l),
(274,-56,l)
);
}
);
width = 623;
}
);
note = uni021A;
unicode = 538;
},
{
glyphname = U;
kernLeft = U;
kernRight = J;
lastChange = "2022-12-21 09:11:42 +0000";
layers = (
{
hints = (
{
horizontal = 1;
place = (-10, 70);
place = (-10, 70);
type = Stem;
},
{
horizontal = 1;
place = (697, -20);
target = down;
type = TopGhost;
},
{
place = (99, 71);
place = (99, 71);
type = Stem;
},
{
place = (529, 71);
place = (529, 71);
type = Stem;
}
);
layerId = m01;
shapes = (
{
closed = 1;
nodes = (
(512,-10,o),
(600,82,o),
(600,257,cs),
(600,697,l),
(529,697,l),
(529,262,ls),
(529,125,o),
(471,60,o),
(349,60,cs),
(228,60,o),
(170,124,o),
(170,259,cs),
(170,682,ls),
(170,690,o),
(163,697,o),
(155,697,cs),
(99,697,l),
(99,252,ls),
(99,81,o),
(187,-10,o),
(349,-10,cs)
);
}
);
width = 699;
}
);
note = U;
unicode = 85;
},
{
glyphname = Uacute;
kernLeft = U;
kernRight = J;
layers = (
{
hints = (
{
horizontal = 1;
place = (-10, 70);
place = (-10, 70);
type = Stem;
},
{
horizontal = 1;
place = (697, -20);
target = down;
type = TopGhost;
},
{
horizontal = 1;
place = (760, 141);
place = (760, 141);
type = Stem;
},
{
place = (99, 71);
place = (99, 71);
type = Stem;
},
{
place = (529, 71);
place = (529, 71);
type = Stem;
}
);
layerId = m01;
shapes = (
{
closed = 1;
nodes = (
(324,760,l),
(377,760,l),
(506,901,l),
(432,901,l)
);
},
{
closed = 1;
nodes = (
(512,-10,o),
(600,82,o),
(600,257,cs),
(600,697,l),
(529,697,l),
(529,262,ls),
(529,125,o),
(471,60,o),
(349,60,cs),
(228,60,o),
(170,124,o),
(170,259,cs),
(170,697,l),
(99,697,l),
(99,252,ls),
(99,81,o),
(187,-10,o),
(349,-10,cs)
);
}
);
width = 699;
}
);
note = Uacute;
unicode = 218;
},
{
glyphname = uni01D3;
kernLeft = U;
kernRight = J;
layers = (
{
hints = (
{
horizontal = 1;
place = (-10, 70);
place = (-10, 70);
type = Stem;
},
{
horizontal = 1;
place = (697, -20);
target = down;
type = TopGhost;
},
{
place = (99, 71);
place = (99, 71);
type = Stem;
},
{
place = (529, 71);
place = (529, 71);
type = Stem;
}
);
layerId = m01;
shapes = (
{
closed = 1;
nodes = (
(350,748,l),
(499,901,l),
(442,901,l),
(350,806,l),
(258,901,l),
(201,901,l)
);
},
{
closed = 1;
nodes = (
(512,-10,o),
(600,82,o),
(600,257,cs),
(600,697,l),
(529,697,l),
(529,262,ls),
(529,125,o),
(471,60,o),
(349,60,cs),
(228,60,o),
(170,124,o),
(170,259,cs),
(170,697,l),
(99,697,l),
(99,252,ls),
(99,81,o),
(187,-10,o),
(349,-10,cs)
);
}
);
width = 699;
}
);
note = uni01D3;
unicode = 467;
},
{
glyphname = Ucircumflex;
kernLeft = U;
kernRight = J;
layers = (
{
hints = (
{
horizontal = 1;
place = (-10, 70);
place = (-10, 70);
type = Stem;
},
{
horizontal = 1;
place = (697, -20);
target = down;
type = TopGhost;
},
{
place = (99, 71);
place = (99, 71);
type = Stem;
},
{
place = (529, 71);
place = (529, 71);
type = Stem;
}
);
layerId = m01;
shapes = (
{
closed = 1;
nodes = (
(201,752,l),
(259,752,l),
(350,850,l),
(442,752,l),
(499,752,l),
(350,911,l)
);
},
{
closed = 1;
nodes = (
(512,-10,o),
(600,82,o),
(600,257,cs),
(600,697,l),
(529,697,l),
(529,262,ls),
(529,125,o),
(471,60,o),
(349,60,cs),
(228,60,o),
(170,124,o),
(170,259,cs),
(170,697,l),
(99,697,l),
(99,252,ls),
(99,81,o),
(187,-10,o),
(349,-10,cs)
);
}
);
width = 699;
}
);
note = Ucircumflex;
unicode = 219;
},
{
glyphname = Udieresis;
kernLeft = U;
kernRight = J;
layers = (
{
hints = (
{
horizontal = 1;
place = (-10, 70);
place = (-10, 70);
type = Stem;
},
{
horizontal = 1;
place = (697, -20);
target = down;
type = TopGhost;
},
{
horizontal = 1;
place = (799, 102);
place = (799, 102);
type = Stem;
},
{
place = (99, 71);
place = (99, 71);
type = Stem;
},
{
place = (220, 80);
place = (220, 80);
type = Stem;
},
{
place = (400, 80);
place = (400, 80);
type = Stem;
},
{
place = (529, 71);
place = (529, 71);
type = Stem;
}
);
layerId = m01;
shapes = (
{
closed = 1;
nodes = (
(220,799,l),
(300,799,l),
(300,901,l),
(220,901,l)
);
},
{
closed = 1;
nodes = (
(400,799,l),
(480,799,l),
(480,901,l),
(400,901,l)
);
},
{
closed = 1;
nodes = (
(512,-10,o),
(600,82,o),
(600,257,cs),
(600,697,l),
(529,697,l),
(529,262,ls),
(529,125,o),
(471,60,o),
(349,60,cs),
(228,60,o),
(170,124,o),
(170,259,cs),
(170,697,l),
(99,697,l),
(99,252,ls),
(99,81,o),
(187,-10,o),
(349,-10,cs)
);
}
);
width = 699;
}
);
note = Udieresis;
unicode = 220;
},
{
glyphname = uni01D7;
kernLeft = U;
kernRight = J;
layers = (
{
hints = (
{
horizontal = 1;
place = (-10, 70);
place = (-10, 70);
type = Stem;
},
{
horizontal = 1;
place = (697, -20);
target = down;
type = TopGhost;
},
{
horizontal = 1;
place = (799, 102);
place = (799, 102);
type = Stem;
},
{
horizontal = 1;
place = (964, 141);
place = (964, 141);
type = Stem;
},
{
place = (99, 71);
place = (99, 71);
type = Stem;
},
{
place = (220, 80);
place = (220, 80);
type = Stem;
},
{
place = (400, 80);
place = (400, 80);
type = Stem;
},
{
place = (529, 71);
place = (529, 71);
type = Stem;
}
);
layerId = m01;
shapes = (
{
closed = 1;
nodes = (
(324,964,l),
(377,964,l),
(506,1105,l),
(432,1105,l)
);
},
{
closed = 1;
nodes = (
(220,799,l),
(300,799,l),
(300,901,l),
(220,901,l)
);
},
{
closed = 1;
nodes = (
(400,799,l),
(480,799,l),
(480,901,l),
(400,901,l)
);
},
{
closed = 1;
nodes = (
(512,-10,o),
(600,82,o),
(600,257,cs),
(600,697,l),
(529,697,l),
(529,262,ls),
(529,125,o),
(471,60,o),
(349,60,cs),
(228,60,o),
(170,124,o),
(170,259,cs),
(170,697,l),
(99,697,l),
(99,252,ls),
(99,81,o),
(187,-10,o),
(349,-10,cs)
);
}
);
width = 699;
}
);
note = uni01D7;
unicode = 471;
},
{
glyphname = uni01D9;
kernLeft = U;
kernRight = J;
layers = (
{
hints = (
{
horizontal = 1;
place = (-10, 70);
place = (-10, 70);
type = Stem;
},
{
horizontal = 1;
place = (697, -20);
target = down;
type = TopGhost;
},
{
horizontal = 1;
place = (799, 102);
place = (799, 102);
type = Stem;
},
{
place = (99, 71);
place = (99, 71);
type = Stem;
},
{
place = (220, 80);
place = (220, 80);
type = Stem;
},
{
place = (400, 80);
place = (400, 80);
type = Stem;
},
{
place = (529, 71);
place = (529, 71);
type = Stem;
}
);
layerId = m01;
shapes = (
{
closed = 1;
nodes = (
(350,952,l),
(499,1105,l),
(442,1105,l),
(350,1010,l),
(258,1105,l),
(201,1105,l)
);
},
{
closed = 1;
nodes = (
(220,799,l),
(300,799,l),
(300,901,l),
(220,901,l)
);
},
{
closed = 1;
nodes = (
(400,799,l),
(480,799,l),
(480,901,l),
(400,901,l)
);
},
{
closed = 1;
nodes = (
(512,-10,o),
(600,82,o),
(600,257,cs),
(600,697,l),
(529,697,l),
(529,262,ls),
(529,125,o),
(471,60,o),
(349,60,cs),
(228,60,o),
(170,124,o),
(170,259,cs),
(170,697,l),
(99,697,l),
(99,252,ls),
(99,81,o),
(187,-10,o),
(349,-10,cs)
);
}
);
width = 699;
}
);
note = uni01D9;
unicode = 473;
},
{
glyphname = uni01DB;
kernLeft = U;
kernRight = J;
layers = (
{
hints = (
{
horizontal = 1;
place = (-10, 70);
place = (-10, 70);
type = Stem;
},
{
horizontal = 1;
place = (697, -20);
target = down;
type = TopGhost;
},
{
horizontal = 1;
place = (799, 102);
place = (799, 102);
type = Stem;
},
{
horizontal = 1;
place = (964, 141);
place = (964, 141);
type = Stem;
},
{
place = (99, 71);
place = (99, 71);
type = Stem;
},
{
place = (220, 80);
place = (220, 80);
type = Stem;
},
{
place = (400, 80);
place = (400, 80);
type = Stem;
},
{
place = (529, 71);
place = (529, 71);
type = Stem;
}
);
layerId = m01;
shapes = (
{
closed = 1;
nodes = (
(323,964,l),
(377,964,l),
(273,1105,l),
(199,1105,l)
);
},
{
closed = 1;
nodes = (
(220,799,l),
(300,799,l),
(300,901,l),
(220,901,l)
);
},
{
closed = 1;
nodes = (
(400,799,l),
(480,799,l),
(480,901,l),
(400,901,l)
);
},
{
closed = 1;
nodes = (
(512,-10,o),
(600,82,o),
(600,257,cs),
(600,697,l),
(529,697,l),
(529,262,ls),
(529,125,o),
(471,60,o),
(349,60,cs),
(228,60,o),
(170,124,o),
(170,259,cs),
(170,697,l),
(99,697,l),
(99,252,ls),
(99,81,o),
(187,-10,o),
(349,-10,cs)
);
}
);
width = 699;
}
);
note = uni01DB;
unicode = 475;
},
{
glyphname = uni01D5;
kernLeft = U;
kernRight = J;
layers = (
{
hints = (
{
horizontal = 1;
place = (-10, 70);
place = (-10, 70);
type = Stem;
},
{
horizontal = 1;
place = (697, -20);
target = down;
type = TopGhost;
},
{
horizontal = 1;
place = (799, 102);
place = (799, 102);
type = Stem;
},
{
horizontal = 1;
place = (1007, 42);
place = (1007, 42);
type = Stem;
},
{
place = (99, 71);
place = (99, 71);
type = Stem;
},
{
place = (220, 80);
place = (220, 80);
type = Stem;
},
{
place = (400, 80);
place = (400, 80);
type = Stem;
},
{
place = (529, 71);
place = (529, 71);
type = Stem;
}
);
layerId = m01;
shapes = (
{
closed = 1;
nodes = (
(214,1007,l),
(484,1007,l),
(484,1049,l),
(214,1049,l)
);
},
{
closed = 1;
nodes = (
(220,799,l),
(300,799,l),
(300,901,l),
(220,901,l)
);
},
{
closed = 1;
nodes = (
(400,799,l),
(480,799,l),
(480,901,l),
(400,901,l)
);
},
{
closed = 1;
nodes = (
(512,-10,o),
(600,82,o),
(600,257,cs),
(600,697,l),
(529,697,l),
(529,262,ls),
(529,125,o),
(471,60,o),
(349,60,cs),
(228,60,o),
(170,124,o),
(170,259,cs),
(170,697,l),
(99,697,l),
(99,252,ls),
(99,81,o),
(187,-10,o),
(349,-10,cs)
);
}
);
width = 699;
}
);
note = uni01D5;
unicode = 469;
},
{
glyphname = uni1EE4;
kernLeft = U;
kernRight = J;
layers = (
{
hints = (
{
horizontal = 1;
place = (-173, 101);
place = (-173, 101);
type = Stem;
},
{
horizontal = 1;
place = (-10, 70);
place = (-10, 70);
type = Stem;
},
{
horizontal = 1;
place = (697, -20);
target = down;
type = TopGhost;
},
{
place = (99, 71);
place = (99, 71);
type = Stem;
},
{
place = (310, 80);
place = (310, 80);
type = Stem;
},
{
place = (529, 71);
place = (529, 71);
type = Stem;
}
);
layerId = m01;
shapes = (
{
closed = 1;
nodes = (
(512,-10,o),
(600,82,o),
(600,257,cs),
(600,697,l),
(529,697,l),
(529,262,ls),
(529,125,o),
(471,60,o),
(349,60,cs),
(228,60,o),
(170,124,o),
(170,259,cs),
(170,697,l),
(99,697,l),
(99,252,ls),
(99,81,o),
(187,-10,o),
(349,-10,cs)
);
},
{
closed = 1;
nodes = (
(310,-173,l),
(390,-173,l),
(390,-72,l),
(310,-72,l)
);
}
);
width = 699;
}
);
note = uni1EE4;
unicode = 7908;
},
{
glyphname = Ugrave;
kernLeft = U;
kernRight = J;
layers = (
{
hints = (
{
horizontal = 1;
place = (-10, 70);
place = (-10, 70);
type = Stem;
},
{
horizontal = 1;
place = (697, -20);
target = down;
type = TopGhost;
},
{
horizontal = 1;
place = (760, 141);
place = (760, 141);
type = Stem;
},
{
place = (99, 71);
place = (99, 71);
type = Stem;
},
{
place = (529, 71);
place = (529, 71);
type = Stem;
}
);
layerId = m01;
shapes = (
{
closed = 1;
nodes = (
(323,760,l),
(377,760,l),
(273,901,l),
(199,901,l)
);
},
{
closed = 1;
nodes = (
(512,-10,o),
(600,82,o),
(600,257,cs),
(600,697,l),
(529,697,l),
(529,262,ls),
(529,125,o),
(471,60,o),
(349,60,cs),
(228,60,o),
(170,124,o),
(170,259,cs),
(170,697,l),
(99,697,l),
(99,252,ls),
(99,81,o),
(187,-10,o),
(349,-10,cs)
);
}
);
width = 699;
}
);
note = Ugrave;
unicode = 217;
},
{
glyphname = uni1EE6;
kernLeft = U;
kernRight = J;
layers = (
{
hints = (
{
horizontal = 1;
place = (-10, 70);
place = (-10, 70);
type = Stem;
},
{
horizontal = 1;
place = (697, -20);
target = down;
type = TopGhost;
},
{
horizontal = 1;
place = (882, 40);
place = (882, 40);
type = Stem;
},
{
place = (99, 71);
place = (99, 71);
type = Stem;
},
{
place = (412, 47);
place = (412, 47);
type = Stem;
},
{
place = (529, 71);
place = (529, 71);
type = Stem;
}
);
layerId = m01;
shapes = (
{
closed = 1;
nodes = (
(344,736,l),
(393,746,o),
(459,757,o),
(459,824,cs),
(459,888,o),
(400,922,o),
(320,922,cs),
(305,922,l),
(305,882,l),
(320,882,ls),
(367,882,o),
(412,867,o),
(412,826,cs),
(412,789,o),
(370,781,o),
(332,775,c)
);
},
{
closed = 1;
nodes = (
(512,-10,o),
(600,82,o),
(600,257,cs),
(600,697,l),
(529,697,l),
(529,262,ls),
(529,125,o),
(471,60,o),
(349,60,cs),
(228,60,o),
(170,124,o),
(170,259,cs),
(170,697,l),
(99,697,l),
(99,252,ls),
(99,81,o),
(187,-10,o),
(349,-10,cs)
);
}
);
width = 699;
}
);
note = uni1EE6;
unicode = 7910;
},
{
glyphname = Uhorn;
kernLeft = U;
kernRight = J;
layers = (
{
hints = (
{
horizontal = 1;
place = (-10, 70);
place = (-10, 70);
type = Stem;
},
{
horizontal = 1;
place = (697, -20);
target = down;
type = TopGhost;
},
{
place = (99, 71);
place = (99, 71);
type = Stem;
},
{
place = (529, 71);
place = (529, 71);
type = Stem;
},
{
place = (679, 53);
place = (679, 53);
type = Stem;
}
);
layerId = m01;
shapes = (
{
closed = 1;
nodes = (
(679,697,l),
(679,644,ls),
(679,589,o),
(658,547,o),
(600,544,c),
(600,697,l),
(529,697,l),
(529,262,ls),
(529,125,o),
(471,60,o),
(349,60,cs),
(228,60,o),
(170,124,o),
(170,259,cs),
(170,697,l),
(99,697,l),
(99,252,ls),
(99,81,o),
(187,-10,o),
(349,-10,cs),
(512,-10,o),
(600,82,o),
(600,257,cs),
(600,497,l),
(693,500,o),
(732,560,o),
(732,649,cs),
(732,697,l)
);
}
);
width = 699;
}
);
note = Uhorn;
unicode = 431;
},
{
glyphname = uni1EE8;
kernLeft = U;
kernRight = J;
layers = (
{
hints = (
{
horizontal = 1;
place = (-10, 70);
place = (-10, 70);
type = Stem;
},
{
horizontal = 1;
place = (697, -20);
target = down;
type = TopGhost;
},
{
horizontal = 1;
place = (760, 141);
place = (760, 141);
type = Stem;
},
{
place = (99, 71);
place = (99, 71);
type = Stem;
},
{
place = (529, 71);
place = (529, 71);
type = Stem;
},
{
place = (679, 53);
place = (679, 53);
type = Stem;
}
);
layerId = m01;
shapes = (
{
closed = 1;
nodes = (
(506,901,l),
(432,901,l),
(324,760,l),
(377,760,l)
);
},
{
closed = 1;
nodes = (
(679,697,l),
(679,644,ls),
(679,589,o),
(658,547,o),
(600,544,c),
(600,697,l),
(529,697,l),
(529,262,ls),
(529,125,o),
(471,60,o),
(349,60,cs),
(228,60,o),
(170,124,o),
(170,259,cs),
(170,697,l),
(99,697,l),
(99,252,ls),
(99,81,o),
(187,-10,o),
(349,-10,cs),
(512,-10,o),
(600,82,o),
(600,257,cs),
(600,497,l),
(693,500,o),
(732,560,o),
(732,649,cs),
(732,697,l)
);
}
);
width = 699;
}
);
note = uni1EE8;
unicode = 7912;
},
{
glyphname = uni1EF0;
kernLeft = U;
kernRight = J;
layers = (
{
hints = (
{
horizontal = 1;
place = (-173, 101);
place = (-173, 101);
type = Stem;
},
{
horizontal = 1;
place = (-10, 70);
place = (-10, 70);
type = Stem;
},
{
horizontal = 1;
place = (697, -20);
target = down;
type = TopGhost;
},
{
place = (99, 71);
place = (99, 71);
type = Stem;
},
{
place = (310, 80);
place = (310, 80);
type = Stem;
},
{
place = (529, 71);
place = (529, 71);
type = Stem;
},
{
place = (679, 53);
place = (679, 53);
type = Stem;
}
);
layerId = m01;
shapes = (
{
closed = 1;
nodes = (
(679,697,l),
(679,644,ls),
(679,589,o),
(658,547,o),
(600,544,c),
(600,697,l),
(529,697,l),
(529,262,ls),
(529,125,o),
(471,60,o),
(349,60,cs),
(228,60,o),
(170,124,o),
(170,259,cs),
(170,697,l),
(99,697,l),
(99,252,ls),
(99,81,o),
(187,-10,o),
(349,-10,cs),
(512,-10,o),
(600,82,o),
(600,257,cs),
(600,497,l),
(693,500,o),
(732,560,o),
(732,649,cs),
(732,697,l)
);
},
{
closed = 1;
nodes = (
(310,-173,l),
(390,-173,l),
(390,-72,l),
(310,-72,l)
);
}
);
width = 699;
}
);
note = uni1EF0;
unicode = 7920;
},
{
glyphname = uni1EEA;
kernLeft = U;
kernRight = J;
layers = (
{
hints = (
{
horizontal = 1;
place = (-10, 70);
place = (-10, 70);
type = Stem;
},
{
horizontal = 1;
place = (697, -20);
target = down;
type = TopGhost;
},
{
horizontal = 1;
place = (760, 141);
place = (760, 141);
type = Stem;
},
{
place = (99, 71);
place = (99, 71);
type = Stem;
},
{
place = (529, 71);
place = (529, 71);
type = Stem;
},
{
place = (679, 53);
place = (679, 53);
type = Stem;
}
);
layerId = m01;
shapes = (
{
closed = 1;
nodes = (
(377,760,l),
(273,901,l),
(199,901,l),
(323,760,l)
);
},
{
closed = 1;
nodes = (
(679,697,l),
(679,644,ls),
(679,589,o),
(658,547,o),
(600,544,c),
(600,697,l),
(529,697,l),
(529,262,ls),
(529,125,o),
(471,60,o),
(349,60,cs),
(228,60,o),
(170,124,o),
(170,259,cs),
(170,697,l),
(99,697,l),
(99,252,ls),
(99,81,o),
(187,-10,o),
(349,-10,cs),
(512,-10,o),
(600,82,o),
(600,257,cs),
(600,497,l),
(693,500,o),
(732,560,o),
(732,649,cs),
(732,697,l)
);
}
);
width = 699;
}
);
note = uni1EEA;
unicode = 7914;
},
{
glyphname = uni1EEC;
kernLeft = U;
kernRight = J;
layers = (
{
hints = (
{
horizontal = 1;
place = (-10, 70);
place = (-10, 70);
type = Stem;
},
{
horizontal = 1;
place = (697, -20);
target = down;
type = TopGhost;
},
{
horizontal = 1;
place = (882, 40);
place = (882, 40);
type = Stem;
},
{
place = (99, 71);
place = (99, 71);
type = Stem;
},
{
place = (412, 47);
place = (412, 47);
type = Stem;
},
{
place = (529, 71);
place = (529, 71);
type = Stem;
},
{
place = (679, 53);
place = (679, 53);
type = Stem;
}
);
layerId = m01;
shapes = (
{
closed = 1;
nodes = (
(412,789,o),
(370,781,o),
(332,775,c),
(344,736,l),
(393,746,o),
(459,757,o),
(459,824,cs),
(459,888,o),
(400,922,o),
(320,922,cs),
(305,922,l),
(305,882,l),
(320,882,ls),
(367,882,o),
(412,867,o),
(412,826,cs)
);
},
{
closed = 1;
nodes = (
(679,697,l),
(679,644,ls),
(679,589,o),
(658,547,o),
(600,544,c),
(600,697,l),
(529,697,l),
(529,262,ls),
(529,125,o),
(471,60,o),
(349,60,cs),
(228,60,o),
(170,124,o),
(170,259,cs),
(170,697,l),
(99,697,l),
(99,252,ls),
(99,81,o),
(187,-10,o),
(349,-10,cs),
(512,-10,o),
(600,82,o),
(600,257,cs),
(600,497,l),
(693,500,o),
(732,560,o),
(732,649,cs),
(732,697,l)
);
}
);
width = 699;
}
);
note = uni1EEC;
unicode = 7916;
},
{
glyphname = uni1EEE;
kernLeft = U;
kernRight = J;
layers = (
{
hints = (
{
horizontal = 1;
place = (-10, 70);
place = (-10, 70);
type = Stem;
},
{
horizontal = 1;
place = (697, -20);
target = down;
type = TopGhost;
},
{
horizontal = 1;
place = (774, 45);
place = (774, 45);
type = Stem;
},
{
horizontal = 1;
place = (861, 44);
place = (861, 44);
type = Stem;
},
{
place = (99, 71);
place = (99, 71);
type = Stem;
},
{
place = (191, 41);
place = (191, 41);
type = Stem;
},
{
place = (465, 43);
place = (465, 43);
type = Stem;
},
{
place = (529, 71);
place = (529, 71);
type = Stem;
},
{
place = (679, 53);
place = (679, 53);
type = Stem;
}
);
layerId = m01;
shapes = (
{
closed = 1;
nodes = (
(335,861,o),
(336,774,o),
(419,774,cs),
(472,774,o),
(508,822,o),
(508,901,c),
(465,901,l),
(465,850,o),
(445,819,o),
(419,819,cs),
(365,819,o),
(359,905,o),
(284,905,cs),
(227,905,o),
(191,860,o),
(191,783,c),
(232,783,l),
(232,832,o),
(251,861,o),
(282,861,cs)
);
},
{
closed = 1;
nodes = (
(679,697,l),
(679,644,ls),
(679,589,o),
(658,547,o),
(600,544,c),
(600,697,l),
(529,697,l),
(529,262,ls),
(529,125,o),
(471,60,o),
(349,60,cs),
(228,60,o),
(170,124,o),
(170,259,cs),
(170,697,l),
(99,697,l),
(99,252,ls),
(99,81,o),
(187,-10,o),
(349,-10,cs),
(512,-10,o),
(600,82,o),
(600,257,cs),
(600,497,l),
(693,500,o),
(732,560,o),
(732,649,cs),
(732,697,l)
);
}
);
width = 699;
}
);
note = uni1EEE;
unicode = 7918;
},
{
glyphname = Uhungarumlaut;
kernLeft = U;
kernRight = J;
layers = (
{
hints = (
{
horizontal = 1;
place = (-10, 70);
place = (-10, 70);
type = Stem;
},
{
horizontal = 1;
place = (697, -20);
target = down;
type = TopGhost;
},
{
horizontal = 1;
place = (749, 152);
place = (749, 152);
type = Stem;
},
{
place = (99, 71);
place = (99, 71);
type = Stem;
},
{
place = (529, 71);
place = (529, 71);
type = Stem;
}
);
layerId = m01;
shapes = (
{
closed = 1;
nodes = (
(238,749,l),
(291,749,l),
(409,901,l),
(346,901,l)
);
},
{
closed = 1;
nodes = (
(408,749,l),
(461,749,l),
(590,901,l),
(516,901,l)
);
},
{
closed = 1;
nodes = (
(512,-10,o),
(600,82,o),
(600,257,cs),
(600,697,l),
(529,697,l),
(529,262,ls),
(529,125,o),
(471,60,o),
(349,60,cs),
(228,60,o),
(170,124,o),
(170,259,cs),
(170,697,l),
(99,697,l),
(99,252,ls),
(99,81,o),
(187,-10,o),
(349,-10,cs)
);
}
);
width = 699;
}
);
note = Uhungarumlaut;
unicode = 368;
},
{
glyphname = Umacron;
kernLeft = U;
kernRight = J;
layers = (
{
hints = (
{
horizontal = 1;
place = (-10, 70);
place = (-10, 70);
type = Stem;
},
{
horizontal = 1;
place = (697, -20);
target = down;
type = TopGhost;
},
{
horizontal = 1;
place = (803, 42);
place = (803, 42);
type = Stem;
},
{
place = (99, 71);
place = (99, 71);
type = Stem;
},
{
place = (529, 71);
place = (529, 71);
type = Stem;
}
);
layerId = m01;
shapes = (
{
closed = 1;
nodes = (
(214,803,l),
(484,803,l),
(484,845,l),
(214,845,l)
);
},
{
closed = 1;
nodes = (
(512,-10,o),
(600,82,o),
(600,257,cs),
(600,697,l),
(529,697,l),
(529,262,ls),
(529,125,o),
(471,60,o),
(349,60,cs),
(228,60,o),
(170,124,o),
(170,259,cs),
(170,697,l),
(99,697,l),
(99,252,ls),
(99,81,o),
(187,-10,o),
(349,-10,cs)
);
}
);
width = 699;
}
);
note = Umacron;
unicode = 362;
},
{
glyphname = Uogonek;
kernLeft = U;
kernRight = J;
layers = (
{
hints = (
{
horizontal = 1;
place = (-214, 45);
place = (-214, 45);
type = Stem;
},
{
horizontal = 1;
place = (-10, 70);
place = (-10, 70);
type = Stem;
},
{
horizontal = 1;
place = (697, -20);
target = down;
type = TopGhost;
},
{
place = (99, 71);
place = (99, 71);
type = Stem;
},
{
place = (276, 43);
place = (276, 43);
type = Stem;
},
{
place = (529, 71);
place = (529, 71);
type = Stem;
}
);
layerId = m01;
shapes = (
{
closed = 1;
nodes = (
(529,697,l),
(529,262,ls),
(529,125,o),
(471,60,o),
(349,60,cs),
(228,60,o),
(170,124,o),
(170,259,cs),
(170,697,l),
(99,697,l),
(99,252,ls),
(99,82,o),
(186,-9,o),
(347,-10,c),
(311,-37,o),
(276,-79,o),
(276,-130,cs),
(276,-182,o),
(316,-214,o),
(367,-214,cs),
(404,-214,o),
(436,-196,o),
(460,-169,c),
(426,-142,l),
(408,-159,o),
(388,-169,o),
(365,-169,cs),
(341,-169,o),
(319,-157,o),
(319,-124,cs),
(319,-67,o),
(376,-27,o),
(412,-5,c),
(535,17,o),
(600,106,o),
(600,257,cs),
(600,697,l)
);
}
);
width = 699;
}
);
note = Uogonek;
unicode = 370;
},
{
glyphname = Uring;
kernLeft = U;
kernRight = J;
layers = (
{
hints = (
{
horizontal = 1;
place = (-10, 70);
place = (-10, 70);
type = Stem;
},
{
horizontal = 1;
place = (682, 39);
place = (682, 39);
type = Stem;
},
{
horizontal = 1;
place = (837, 39);
place = (837, 39);
type = Stem;
},
{
place = (99, 71);
place = (99, 71);
type = Stem;
},
{
place = (253, 39);
place = (253, 39);
type = Stem;
},
{
place = (408, 39);
place = (408, 39);
type = Stem;
},
{
place = (529, 71);
place = (529, 71);
type = Stem;
},
{
horizontal = 1;
place = (697, -20);
target = down;
type = TopGhost;
}
);
layerId = m01;
shapes = (
{
closed = 1;
nodes = (
(404,682,o),
(447,726,o),
(447,779,cs),
(447,833,o),
(402,876,o),
(350,876,cs),
(297,876,o),
(253,833,o),
(253,779,cs),
(253,726,o),
(296,682,o),
(350,682,cs)
);
},
{
closed = 1;
nodes = (
(317,721,o),
(292,747,o),
(292,779,cs),
(292,812,o),
(317,837,o),
(350,837,cs),
(384,837,o),
(408,812,o),
(408,779,cs),
(408,747,o),
(383,721,o),
(350,721,cs)
);
},
{
closed = 1;
nodes = (
(512,-10,o),
(600,82,o),
(600,257,cs),
(600,697,l),
(529,697,l),
(529,262,ls),
(529,125,o),
(471,60,o),
(349,60,cs),
(228,60,o),
(170,124,o),
(170,259,cs),
(170,697,l),
(99,697,l),
(99,252,ls),
(99,81,o),
(187,-10,o),
(349,-10,cs)
);
}
);
width = 699;
}
);
note = Uring;
unicode = 366;
},
{
glyphname = Utilde;
kernLeft = U;
kernRight = J;
layers = (
{
hints = (
{
horizontal = 1;
place = (-10, 70);
place = (-10, 70);
type = Stem;
},
{
horizontal = 1;
place = (697, -20);
target = down;
type = TopGhost;
},
{
horizontal = 1;
place = (774, 45);
place = (774, 45);
type = Stem;
},
{
horizontal = 1;
place = (861, 44);
place = (861, 44);
type = Stem;
},
{
place = (99, 71);
place = (99, 71);
type = Stem;
},
{
place = (191, 41);
place = (191, 41);
type = Stem;
},
{
place = (465, 43);
place = (465, 43);
type = Stem;
},
{
place = (529, 71);
place = (529, 71);
type = Stem;
}
);
layerId = m01;
shapes = (
{
closed = 1;
nodes = (
(472,774,o),
(508,822,o),
(508,901,c),
(465,901,l),
(465,850,o),
(445,819,o),
(419,819,cs),
(365,819,o),
(359,905,o),
(284,905,cs),
(227,905,o),
(191,860,o),
(191,783,c),
(232,783,l),
(232,832,o),
(251,861,o),
(282,861,cs),
(335,861,o),
(336,774,o),
(419,774,cs)
);
},
{
closed = 1;
nodes = (
(512,-10,o),
(600,82,o),
(600,257,cs),
(600,697,l),
(529,697,l),
(529,262,ls),
(529,125,o),
(471,60,o),
(349,60,cs),
(228,60,o),
(170,124,o),
(170,259,cs),
(170,697,l),
(99,697,l),
(99,252,ls),
(99,81,o),
(187,-10,o),
(349,-10,cs)
);
}
);
width = 699;
}
);
note = Utilde;
unicode = 360;
},
{
glyphname = V;
kernLeft = V;
kernRight = V;
lastChange = "2022-12-21 09:13:10 +0000";
layers = (
{
hints = (
{
horizontal = 1;
place = (0, 21);
target = up;
type = BottomGhost;
},
{
horizontal = 1;
place = (697, -20);
target = down;
type = TopGhost;
},
{
place = (36, 609);
place = (36, 609);
type = Stem;
}
);
layerId = m01;
shapes = (
{
closed = 1;
nodes = (
(576,697,ls),
(571,697,o),
(566,694,o),
(564,688,cs),
(341,111,l),
(115,697,l),
(36,697,l),
(312,0,l),
(370,0,l),
(645,697,l)
);
}
);
width = 681;
}
);
note = V;
unicode = 86;
},
{
glyphname = W;
kernLeft = W;
kernRight = W;
lastChange = "2022-12-26 08:08:13 +0000";
layers = (
{
hints = (
{
horizontal = 1;
place = (0, 21);
target = up;
type = BottomGhost;
},
{
horizontal = 1;
place = (697, -20);
target = down;
type = TopGhost;
},
{
place = (42, 903);
place = (42, 903);
type = Stem;
},
{
horizontal = 1;
place = (0, 106);
place = (0, 106);
type = Stem;
}
);
layerId = m01;
shapes = (
{
closed = 1;
nodes = (
(885,697,ls),
(875,697,o),
(869,693,o),
(866,683,cs),
(703,106,l),
(525,660,l),
(477,660,ls),
(467,660,o),
(460,655,o),
(457,646,cs),
(284,106,l),
(116,697,l),
(42,697,l),
(244,0,l),
(316,0,l),
(494,547,l),
(671,0,l),
(743,0,l),
(945,697,l)
);
}
);
width = 987;
}
);
note = W;
unicode = 87;
},
{
glyphname = Wacute;
kernLeft = W;
kernRight = W;
layers = (
{
hints = (
{
horizontal = 1;
place = (0, 21);
target = up;
type = BottomGhost;
},
{
horizontal = 1;
place = (697, -20);
target = down;
type = TopGhost;
},
{
horizontal = 1;
place = (760, 141);
place = (760, 141);
type = Stem;
},
{
place = (42, 903);
place = (42, 903);
type = Stem;
},
{
horizontal = 1;
place = (0, 106);
place = (0, 106);
type = Stem;
}
);
layerId = m01;
shapes = (
{
closed = 1;
nodes = (
(468,760,l),
(521,760,l),
(650,901,l),
(576,901,l)
);
},
{
closed = 1;
nodes = (
(244,0,l),
(316,0,l),
(494,547,l),
(671,0,l),
(743,0,l),
(945,697,l),
(870,697,l),
(703,106,l),
(525,660,l),
(462,660,l),
(284,106,l),
(116,697,l),
(42,697,l)
);
}
);
width = 987;
}
);
note = Wacute;
unicode = 7810;
},
{
glyphname = Wcircumflex;
kernLeft = W;
kernRight = W;
layers = (
{
hints = (
{
horizontal = 1;
place = (0, 21);
target = up;
type = BottomGhost;
},
{
horizontal = 1;
place = (697, -20);
target = down;
type = TopGhost;
},
{
place = (42, 903);
place = (42, 903);
type = Stem;
},
{
horizontal = 1;
place = (0, 106);
place = (0, 106);
type = Stem;
}
);
layerId = m01;
shapes = (
{
closed = 1;
nodes = (
(345,752,l),
(403,752,l),
(494,850,l),
(586,752,l),
(643,752,l),
(494,911,l)
);
},
{
closed = 1;
nodes = (
(244,0,l),
(316,0,l),
(494,547,l),
(671,0,l),
(743,0,l),
(945,697,l),
(870,697,l),
(703,106,l),
(525,660,l),
(462,660,l),
(284,106,l),
(116,697,l),
(42,697,l)
);
}
);
width = 987;
}
);
note = Wcircumflex;
unicode = 372;
},
{
glyphname = Wdieresis;
kernLeft = W;
kernRight = W;
layers = (
{
hints = (
{
horizontal = 1;
place = (0, 21);
target = up;
type = BottomGhost;
},
{
horizontal = 1;
place = (697, -20);
target = down;
type = TopGhost;
},
{
horizontal = 1;
place = (799, 102);
place = (799, 102);
type = Stem;
},
{
place = (364, 80);
place = (364, 80);
type = Stem;
},
{
place = (544, 80);
place = (544, 80);
type = Stem;
},
{
horizontal = 1;
place = (0, 106);
place = (0, 106);
type = Stem;
}
);
layerId = m01;
shapes = (
{
closed = 1;
nodes = (
(364,799,l),
(444,799,l),
(444,901,l),
(364,901,l)
);
},
{
closed = 1;
nodes = (
(544,799,l),
(624,799,l),
(624,901,l),
(544,901,l)
);
},
{
closed = 1;
nodes = (
(244,0,l),
(316,0,l),
(494,547,l),
(671,0,l),
(743,0,l),
(945,697,l),
(870,697,l),
(703,106,l),
(525,660,l),
(462,660,l),
(284,106,l),
(116,697,l),
(42,697,l)
);
}
);
width = 987;
}
);
note = Wdieresis;
unicode = 7812;
},
{
glyphname = Wgrave;
kernLeft = W;
kernRight = W;
layers = (
{
hints = (
{
horizontal = 1;
place = (0, 21);
target = up;
type = BottomGhost;
},
{
horizontal = 1;
place = (697, -20);
target = down;
type = TopGhost;
},
{
horizontal = 1;
place = (760, 141);
place = (760, 141);
type = Stem;
},
{
place = (42, 903);
place = (42, 903);
type = Stem;
},
{
horizontal = 1;
place = (0, 106);
place = (0, 106);
type = Stem;
}
);
layerId = m01;
shapes = (
{
closed = 1;
nodes = (
(467,760,l),
(521,760,l),
(417,901,l),
(343,901,l)
);
},
{
closed = 1;
nodes = (
(244,0,l),
(316,0,l),
(494,547,l),
(671,0,l),
(743,0,l),
(945,697,l),
(870,697,l),
(703,106,l),
(525,660,l),
(462,660,l),
(284,106,l),
(116,697,l),
(42,697,l)
);
}
);
width = 987;
}
);
note = Wgrave;
unicode = 7808;
},
{
glyphname = X;
kernLeft = X;
kernRight = X;
lastChange = "2022-12-21 09:14:00 +0000";
layers = (
{
hints = (
{
horizontal = 1;
place = (0, 21);
target = up;
type = BottomGhost;
},
{
horizontal = 1;
place = (697, -20);
target = down;
type = TopGhost;
},
{
place = (40, 583);
place = (40, 583);
type = Stem;
}
);
layerId = m01;
shapes = (
{
closed = 1;
nodes = (
(529,12,ls),
(535,4,o),
(542,0,o),
(552,0,cs),
(623,0,l),
(380,351,l),
(618,697,l),
(533,697,l),
(331,401,l),
(138,685,ls),
(132,693,o),
(125,697,o),
(115,697,cs),
(44,697,l),
(282,351,l),
(40,0,l),
(126,0,l),
(330,299,l)
);
}
);
width = 662;
}
);
note = X;
unicode = 88;
},
{
glyphname = Y;
kernLeft = Y;
kernRight = Y;
layers = (
{
hints = (
{
horizontal = 1;
place = (0, 21);
target = up;
type = BottomGhost;
},
{
horizontal = 1;
place = (697, -20);
target = down;
type = TopGhost;
},
{
place = (296, 72);
place = (296, 72);
type = Stem;
}
);
layerId = m01;
shapes = (
{
closed = 1;
nodes = (
(296,0,l),
(368,0,l),
(368,267,l),
(634,697,l),
(549,697,l),
(331,336,l),
(114,697,l),
(30,697,l),
(296,267,l)
);
}
);
width = 664;
}
);
note = Y;
unicode = 89;
},
{
glyphname = Yacute;
kernLeft = Y;
kernRight = Y;
layers = (
{
hints = (
{
horizontal = 1;
place = (0, 21);
target = up;
type = BottomGhost;
},
{
horizontal = 1;
place = (697, -20);
target = down;
type = TopGhost;
},
{
horizontal = 1;
place = (760, 141);
place = (760, 141);
type = Stem;
},
{
place = (296, 72);
place = (296, 72);
type = Stem;
}
);
layerId = m01;
shapes = (
{
closed = 1;
nodes = (
(306,760,l),
(359,760,l),
(488,901,l),
(414,901,l)
);
},
{
closed = 1;
nodes = (
(296,0,l),
(368,0,l),
(368,267,l),
(634,697,l),
(549,697,l),
(331,336,l),
(114,697,l),
(30,697,l),
(296,267,l)
);
}
);
width = 664;
}
);
note = Yacute;
unicode = 221;
},
{
glyphname = Ycircumflex;
kernLeft = Y;
kernRight = Y;
layers = (
{
hints = (
{
horizontal = 1;
place = (0, 21);
target = up;
type = BottomGhost;
},
{
horizontal = 1;
place = (697, -20);
target = down;
type = TopGhost;
},
{
place = (296, 72);
place = (296, 72);
type = Stem;
}
);
layerId = m01;
shapes = (
{
closed = 1;
nodes = (
(183,752,l),
(241,752,l),
(332,850,l),
(424,752,l),
(481,752,l),
(332,911,l)
);
},
{
closed = 1;
nodes = (
(296,0,l),
(368,0,l),
(368,267,l),
(634,697,l),
(549,697,l),
(331,336,l),
(114,697,l),
(30,697,l),
(296,267,l)
);
}
);
width = 664;
}
);
note = Ycircumflex;
unicode = 374;
},
{
glyphname = Ydieresis;
kernLeft = Y;
kernRight = Y;
layers = (
{
hints = (
{
horizontal = 1;
place = (0, 21);
target = up;
type = BottomGhost;
},
{
horizontal = 1;
place = (697, -20);
target = down;
type = TopGhost;
},
{
horizontal = 1;
place = (799, 102);
place = (799, 102);
type = Stem;
},
{
place = (202, 80);
place = (202, 80);
type = Stem;
},
{
place = (296, 72);
place = (296, 72);
type = Stem;
},
{
place = (382, 80);
place = (382, 80);
type = Stem;
}
);
layerId = m01;
shapes = (
{
closed = 1;
nodes = (
(202,799,l),
(282,799,l),
(282,901,l),
(202,901,l)
);
},
{
closed = 1;
nodes = (
(382,799,l),
(462,799,l),
(462,901,l),
(382,901,l)
);
},
{
closed = 1;
nodes = (
(296,0,l),
(368,0,l),
(368,267,l),
(634,697,l),
(549,697,l),
(331,336,l),
(114,697,l),
(30,697,l),
(296,267,l)
);
}
);
width = 664;
}
);
note = Ydieresis;
unicode = 376;
},
{
glyphname = uni1EF4;
kernLeft = Y;
kernRight = Y;
layers = (
{
hints = (
{
horizontal = 1;
place = (-173, 101);
place = (-173, 101);
type = Stem;
},
{
horizontal = 1;
place = (0, 21);
target = up;
type = BottomGhost;
},
{
horizontal = 1;
place = (697, -20);
target = down;
type = TopGhost;
},
{
place = (296, 72);
place = (296, 72);
type = Stem;
},
{
place = (292, 80);
place = (292, 80);
type = Stem;
}
);
layerId = m01;
shapes = (
{
closed = 1;
nodes = (
(296,0,l),
(368,0,l),
(368,267,l),
(634,697,l),
(549,697,l),
(331,336,l),
(114,697,l),
(30,697,l),
(296,267,l)
);
},
{
closed = 1;
nodes = (
(292,-173,l),
(372,-173,l),
(372,-72,l),
(292,-72,l)
);
}
);
width = 664;
}
);
note = uni1EF4;
unicode = 7924;
},
{
glyphname = Ygrave;
kernLeft = Y;
kernRight = Y;
layers = (
{
hints = (
{
horizontal = 1;
place = (0, 21);
target = up;
type = BottomGhost;
},
{
horizontal = 1;
place = (697, -20);
target = down;
type = TopGhost;
},
{
horizontal = 1;
place = (760, 141);
place = (760, 141);
type = Stem;
},
{
place = (296, 72);
place = (296, 72);
type = Stem;
}
);
layerId = m01;
shapes = (
{
closed = 1;
nodes = (
(305,760,l),
(359,760,l),
(255,901,l),
(181,901,l)
);
},
{
closed = 1;
nodes = (
(296,0,l),
(368,0,l),
(368,267,l),
(634,697,l),
(549,697,l),
(331,336,l),
(114,697,l),
(30,697,l),
(296,267,l)
);
}
);
width = 664;
}
);
note = Ygrave;
unicode = 7922;
},
{
glyphname = uni1EF6;
kernLeft = Y;
kernRight = Y;
layers = (
{
hints = (
{
horizontal = 1;
place = (0, 21);
target = up;
type = BottomGhost;
},
{
horizontal = 1;
place = (697, -20);
target = down;
type = TopGhost;
},
{
horizontal = 1;
place = (882, 40);
place = (882, 40);
type = Stem;
},
{
place = (296, 72);
place = (296, 72);
type = Stem;
},
{
place = (394, 47);
place = (394, 47);
type = Stem;
}
);
layerId = m01;
shapes = (
{
closed = 1;
nodes = (
(326,736,l),
(375,746,o),
(441,757,o),
(441,824,cs),
(441,888,o),
(382,922,o),
(302,922,cs),
(287,922,l),
(287,882,l),
(302,882,ls),
(349,882,o),
(394,867,o),
(394,826,cs),
(394,789,o),
(352,781,o),
(314,775,c)
);
},
{
closed = 1;
nodes = (
(296,0,l),
(368,0,l),
(368,267,l),
(634,697,l),
(549,697,l),
(331,336,l),
(114,697,l),
(30,697,l),
(296,267,l)
);
}
);
width = 664;
}
);
note = uni1EF6;
unicode = 7926;
},
{
glyphname = uni1EF8;
kernLeft = Y;
kernRight = Y;
layers = (
{
hints = (
{
horizontal = 1;
place = (0, 21);
target = up;
type = BottomGhost;
},
{
horizontal = 1;
place = (697, -20);
target = down;
type = TopGhost;
},
{
horizontal = 1;
place = (774, 45);
place = (774, 45);
type = Stem;
},
{
horizontal = 1;
place = (861, 44);
place = (861, 44);
type = Stem;
},
{
place = (173, 41);
place = (173, 41);
type = Stem;
},
{
place = (296, 72);
place = (296, 72);
type = Stem;
},
{
place = (447, 43);
place = (447, 43);
type = Stem;
}
);
layerId = m01;
shapes = (
{
closed = 1;
nodes = (
(454,774,o),
(490,822,o),
(490,901,c),
(447,901,l),
(447,850,o),
(427,819,o),
(401,819,cs),
(347,819,o),
(341,905,o),
(266,905,cs),
(209,905,o),
(173,860,o),
(173,783,c),
(214,783,l),
(214,832,o),
(233,861,o),
(264,861,cs),
(317,861,o),
(318,774,o),
(401,774,cs)
);
},
{
closed = 1;
nodes = (
(296,0,l),
(368,0,l),
(368,267,l),
(634,697,l),
(549,697,l),
(331,336,l),
(114,697,l),
(30,697,l),
(296,267,l)
);
}
);
width = 664;
}
);
note = uni1EF8;
unicode = 7928;
},
{
glyphname = Z;
kernLeft = Z;
kernRight = Z;
lastChange = "2022-12-21 09:17:30 +0000";
layers = (
{
hints = (
{
horizontal = 1;
place = (0, 66);
place = (0, 66);
type = Stem;
},
{
horizontal = 1;
place = (631, 66);
place = (631, 66);
type = Stem;
},
{
place = (46, 550);
place = (46, 550);
type = Stem;
}
);
layerId = m01;
shapes = (
{
closed = 1;
nodes = (
(594,51,ls),
(594,61,o),
(589,66,o),
(579,66,cs),
(141,66,l),
(596,641,l),
(596,697,l),
(69,697,l),
(69,631,l),
(504,631,l),
(46,54,l),
(46,0,l),
(594,0,l)
);
}
);
width = 648;
}
);
note = Z;
unicode = 90;
},
{
glyphname = Zacute;
kernLeft = Z;
kernRight = Z;
layers = (
{
hints = (
{
horizontal = 1;
place = (0, 66);
place = (0, 66);
type = Stem;
},
{
horizontal = 1;
place = (631, 66);
place = (631, 66);
type = Stem;
},
{
horizontal = 1;
place = (760, 141);
place = (760, 141);
type = Stem;
},
{
place = (46, 550);
place = (46, 550);
type = Stem;
}
);
layerId = m01;
shapes = (
{
closed = 1;
nodes = (
(480,901,l),
(406,901,l),
(298,760,l),
(351,760,l)
);
},
{
closed = 1;
nodes = (
(596,697,l),
(69,697,l),
(69,631,l),
(504,631,l),
(46,54,l),
(46,0,l),
(594,0,l),
(594,66,l),
(141,66,l),
(596,641,l)
);
}
);
width = 648;
}
);
note = Zacute;
unicode = 377;
},
{
glyphname = Zcaron;
kernLeft = Z;
kernRight = Z;
layers = (
{
hints = (
{
horizontal = 1;
place = (0, 66);
place = (0, 66);
type = Stem;
},
{
horizontal = 1;
place = (631, 66);
place = (631, 66);
type = Stem;
},
{
place = (46, 550);
place = (46, 550);
type = Stem;
}
);
layerId = m01;
shapes = (
{
closed = 1;
nodes = (
(473,901,l),
(416,901,l),
(324,806,l),
(232,901,l),
(175,901,l),
(324,748,l)
);
},
{
closed = 1;
nodes = (
(596,697,l),
(69,697,l),
(69,631,l),
(504,631,l),
(46,54,l),
(46,0,l),
(594,0,l),
(594,66,l),
(141,66,l),
(596,641,l)
);
}
);
width = 648;
}
);
note = Zcaron;
unicode = 381;
},
{
glyphname = Zdotaccent;
kernLeft = Z;
kernRight = Z;
layers = (
{
hints = (
{
horizontal = 1;
place = (0, 66);
place = (0, 66);
type = Stem;
},
{
horizontal = 1;
place = (631, 66);
place = (631, 66);
type = Stem;
},
{
horizontal = 1;
place = (799, 102);
place = (799, 102);
type = Stem;
},
{
place = (284, 80);
place = (284, 80);
type = Stem;
}
);
layerId = m01;
shapes = (
{
closed = 1;
nodes = (
(364,901,l),
(284,901,l),
(284,799,l),
(364,799,l)
);
},
{
closed = 1;
nodes = (
(596,697,l),
(69,697,l),
(69,631,l),
(504,631,l),
(46,54,l),
(46,0,l),
(594,0,l),
(594,66,l),
(141,66,l),
(596,641,l)
);
}
);
width = 648;
}
);
note = Zdotaccent;
unicode = 379;
},
{
glyphname = uni1EB6.ss03;
kernLeft = A;
kernRight = A;
layers = (
{
hints = (
{
horizontal = 1;
place = (-172, 111);
place = (-172, 111);
type = Stem;
},
{
horizontal = 1;
place = (0, 21);
target = up;
type = BottomGhost;
},
{
horizontal = 1;
place = (187, 61);
place = (187, 61);
type = Stem;
},
{
horizontal = 1;
place = (697, -20);
target = down;
type = TopGhost;
},
{
horizontal = 1;
place = (770, 42);
place = (770, 42);
type = Stem;
},
{
place = (175, 50);
place = (175, 50);
type = Stem;
},
{
place = (271, 110);
place = (271, 110);
type = Stem;
},
{
place = (427, 50);
place = (427, 50);
type = Stem;
}
);
layerId = m01;
shapes = (
{
closed = 1;
nodes = (
(423,770,o),
(477,814,o),
(477,901,c),
(427,901,l),
(427,844,o),
(389,812,o),
(326,812,cs),
(265,812,o),
(225,842,o),
(225,901,c),
(175,901,l),
(175,816,o),
(225,770,o),
(326,770,cs)
);
},
{
closed = 1;
nodes = (
(616,0,l),
(355,697,l),
(296,697,l),
(36,0,l),
(114,0,l),
(181,187,l),
(471,187,l),
(537,0,l)
);
},
{
closed = 1;
nodes = (
(202,248,l),
(326,596,l),
(449,248,l)
);
},
{
closed = 1;
nodes = (
(295,-61,o),
(271,-85,o),
(271,-116,cs),
(271,-147,o),
(296,-172,o),
(326,-172,cs),
(357,-172,o),
(381,-147,o),
(381,-116,cs),
(381,-85,o),
(357,-61,o),
(326,-61,cs)
);
}
);
width = 652;
}
);
note = uni1EB6.ss03;
},
{
glyphname = uni1EAC.ss03;
kernLeft = A;
kernRight = A;
layers = (
{
hints = (
{
horizontal = 1;
place = (-172, 111);
place = (-172, 111);
type = Stem;
},
{
horizontal = 1;
place = (0, 21);
target = up;
type = BottomGhost;
},
{
horizontal = 1;
place = (187, 61);
place = (187, 61);
type = Stem;
},
{
horizontal = 1;
place = (697, -20);
target = down;
type = TopGhost;
},
{
place = (271, 110);
place = (271, 110);
type = Stem;
}
);
layerId = m01;
shapes = (
{
closed = 1;
nodes = (
(326,850,l),
(418,752,l),
(475,752,l),
(326,911,l),
(177,752,l),
(235,752,l)
);
},
{
closed = 1;
nodes = (
(616,0,l),
(355,697,l),
(296,697,l),
(36,0,l),
(114,0,l),
(181,187,l),
(471,187,l),
(537,0,l)
);
},
{
closed = 1;
nodes = (
(202,248,l),
(326,596,l),
(449,248,l)
);
},
{
closed = 1;
nodes = (
(295,-61,o),
(271,-85,o),
(271,-116,cs),
(271,-147,o),
(296,-172,o),
(326,-172,cs),
(357,-172,o),
(381,-147,o),
(381,-116,cs),
(381,-85,o),
(357,-61,o),
(326,-61,cs)
);
}
);
width = 652;
}
);
note = uni1EAC.ss03;
},
{
glyphname = Adieresis.ss03;
kernLeft = A;
kernRight = A;
layers = (
{
hints = (
{
horizontal = 1;
place = (0, 21);
target = up;
type = BottomGhost;
},
{
horizontal = 1;
place = (187, 61);
place = (187, 61);
type = Stem;
},
{
horizontal = 1;
place = (697, -20);
target = down;
type = TopGhost;
},
{
horizontal = 1;
place = (797, 111);
place = (797, 111);
type = Stem;
},
{
place = (184, 110);
place = (184, 110);
type = Stem;
},
{
place = (358, 110);
place = (358, 110);
type = Stem;
}
);
layerId = m01;
shapes = (
{
closed = 1;
nodes = (
(270,797,o),
(294,822,o),
(294,853,cs),
(294,884,o),
(270,908,o),
(239,908,cs),
(208,908,o),
(184,884,o),
(184,853,cs),
(184,822,o),
(209,797,o),
(239,797,cs)
);
},
{
closed = 1;
nodes = (
(444,797,o),
(468,822,o),
(468,853,cs),
(468,884,o),
(444,908,o),
(413,908,cs),
(382,908,o),
(358,884,o),
(358,853,cs),
(358,822,o),
(383,797,o),
(413,797,cs)
);
},
{
closed = 1;
nodes = (
(537,0,l),
(616,0,l),
(355,697,l),
(296,697,l),
(36,0,l),
(114,0,l),
(181,187,l),
(471,187,l)
);
},
{
closed = 1;
nodes = (
(202,248,l),
(326,596,l),
(449,248,l)
);
}
);
width = 652;
}
);
note = Adieresis.ss03;
},
{
glyphname = uni1EA0.ss03;
kernLeft = A;
kernRight = A;
layers = (
{
hints = (
{
horizontal = 1;
place = (-172, 111);
place = (-172, 111);
type = Stem;
},
{
horizontal = 1;
place = (0, 21);
target = up;
type = BottomGhost;
},
{
horizontal = 1;
place = (187, 61);
place = (187, 61);
type = Stem;
},
{
horizontal = 1;
place = (697, -20);
target = down;
type = TopGhost;
},
{
place = (271, 110);
place = (271, 110);
type = Stem;
}
);
layerId = m01;
shapes = (
{
closed = 1;
nodes = (
(616,0,l),
(355,697,l),
(296,697,l),
(36,0,l),
(114,0,l),
(181,187,l),
(471,187,l),
(537,0,l)
);
},
{
closed = 1;
nodes = (
(202,248,l),
(326,596,l),
(449,248,l)
);
},
{
closed = 1;
nodes = (
(295,-61,o),
(271,-85,o),
(271,-116,cs),
(271,-147,o),
(296,-172,o),
(326,-172,cs),
(357,-172,o),
(381,-147,o),
(381,-116,cs),
(381,-85,o),
(357,-61,o),
(326,-61,cs)
);
}
);
width = 652;
}
);
note = uni1EA0.ss03;
},
{
glyphname = Cdotaccent.ss03;
kernLeft = C;
kernRight = C;
layers = (
{
hints = (
{
horizontal = 1;
place = (-10, 68);
place = (-10, 68);
type = Stem;
},
{
horizontal = 1;
place = (639, 68);
place = (639, 68);
type = Stem;
},
{
horizontal = 1;
place = (797, 111);
place = (797, 111);
type = Stem;
},
{
place = (68, 71);
place = (68, 71);
type = Stem;
},
{
place = (338, 110);
place = (338, 110);
type = Stem;
}
);
layerId = m01;
shapes = (
{
closed = 1;
nodes = (
(424,797,o),
(448,822,o),
(448,853,cs),
(448,884,o),
(424,908,o),
(393,908,cs),
(362,908,o),
(338,884,o),
(338,853,cs),
(338,822,o),
(363,797,o),
(393,797,cs)
);
},
{
closed = 1;
nodes = (
(524,-10,o),
(627,57,o),
(679,184,c),
(611,209,l),
(572,109,o),
(494,58,o),
(385,58,cs),
(229,58,o),
(139,164,o),
(139,350,cs),
(139,535,o),
(230,639,o),
(390,639,cs),
(500,639,o),
(574,591,o),
(611,491,c),
(677,516,l),
(628,643,o),
(530,707,o),
(390,707,cs),
(189,707,o),
(68,574,o),
(68,350,cs),
(68,125,o),
(187,-10,o),
(385,-10,cs)
);
}
);
width = 729;
}
);
note = Cdotaccent.ss03;
},
{
glyphname = uni1EC6.ss03;
layers = (
{
hints = (
{
horizontal = 1;
place = (-172, 111);
place = (-172, 111);
type = Stem;
},
{
horizontal = 1;
place = (0, 66);
place = (0, 66);
type = Stem;
},
{
horizontal = 1;
place = (322, 66);
place = (322, 66);
type = Stem;
},
{
horizontal = 1;
place = (631, 66);
place = (631, 66);
type = Stem;
},
{
place = (114, 71);
place = (114, 71);
type = Stem;
},
{
place = (287, 110);
place = (287, 110);
type = Stem;
}
);
layerId = m01;
shapes = (
{
closed = 1;
nodes = (
(193,752,l),
(251,752,l),
(342,850,l),
(434,752,l),
(491,752,l),
(342,911,l)
);
},
{
closed = 1;
nodes = (
(114,0,l),
(571,0,l),
(571,66,l),
(185,66,l),
(185,322,l),
(532,322,l),
(532,388,l),
(185,388,l),
(185,631,l),
(571,631,l),
(571,697,l),
(114,697,l)
);
},
{
closed = 1;
nodes = (
(373,-172,o),
(397,-147,o),
(397,-116,cs),
(397,-85,o),
(373,-61,o),
(342,-61,cs),
(311,-61,o),
(287,-85,o),
(287,-116,cs),
(287,-147,o),
(312,-172,o),
(342,-172,cs)
);
}
);
width = 632;
}
);
note = uni1EC6.ss03;
},
{
glyphname = Edieresis.ss03;
layers = (
{
hints = (
{
horizontal = 1;
place = (0, 66);
place = (0, 66);
type = Stem;
},
{
horizontal = 1;
place = (322, 66);
place = (322, 66);
type = Stem;
},
{
horizontal = 1;
place = (631, 66);
place = (631, 66);
type = Stem;
},
{
horizontal = 1;
place = (797, 111);
place = (797, 111);
type = Stem;
},
{
place = (114, 71);
place = (114, 71);
type = Stem;
},
{
place = (200, 110);
place = (200, 110);
type = Stem;
},
{
place = (374, 110);
place = (374, 110);
type = Stem;
}
);
layerId = m01;
shapes = (
{
closed = 1;
nodes = (
(286,797,o),
(310,822,o),
(310,853,cs),
(310,884,o),
(286,908,o),
(255,908,cs),
(224,908,o),
(200,884,o),
(200,853,cs),
(200,822,o),
(225,797,o),
(255,797,cs)
);
},
{
closed = 1;
nodes = (
(460,797,o),
(484,822,o),
(484,853,cs),
(484,884,o),
(460,908,o),
(429,908,cs),
(398,908,o),
(374,884,o),
(374,853,cs),
(374,822,o),
(399,797,o),
(429,797,cs)
);
},
{
closed = 1;
nodes = (
(114,0,l),
(571,0,l),
(571,66,l),
(185,66,l),
(185,322,l),
(532,322,l),
(532,388,l),
(185,388,l),
(185,631,l),
(571,631,l),
(571,697,l),
(114,697,l)
);
}
);
width = 632;
}
);
note = Edieresis.ss03;
},
{
glyphname = Edotaccent.ss03;
layers = (
{
hints = (
{
horizontal = 1;
place = (0, 66);
place = (0, 66);
type = Stem;
},
{
horizontal = 1;
place = (322, 66);
place = (322, 66);
type = Stem;
},
{
horizontal = 1;
place = (631, 66);
place = (631, 66);
type = Stem;
},
{
horizontal = 1;
place = (797, 111);
place = (797, 111);
type = Stem;
},
{
place = (114, 71);
place = (114, 71);
type = Stem;
},
{
place = (287, 110);
place = (287, 110);
type = Stem;
}
);
layerId = m01;
shapes = (
{
closed = 1;
nodes = (
(373,797,o),
(397,822,o),
(397,853,cs),
(397,884,o),
(373,908,o),
(342,908,cs),
(311,908,o),
(287,884,o),
(287,853,cs),
(287,822,o),
(312,797,o),
(342,797,cs)
);
},
{
closed = 1;
nodes = (
(114,0,l),
(571,0,l),
(571,66,l),
(185,66,l),
(185,322,l),
(532,322,l),
(532,388,l),
(185,388,l),
(185,631,l),
(571,631,l),
(571,697,l),
(114,697,l)
);
}
);
width = 632;
}
);
note = Edotaccent.ss03;
},
{
glyphname = uni1EB8.ss03;
layers = (
{
hints = (
{
horizontal = 1;
place = (-172, 111);
place = (-172, 111);
type = Stem;
},
{
horizontal = 1;
place = (0, 66);
place = (0, 66);
type = Stem;
},
{
horizontal = 1;
place = (322, 66);
place = (322, 66);
type = Stem;
},
{
horizontal = 1;
place = (631, 66);
place = (631, 66);
type = Stem;
},
{
place = (114, 71);
place = (114, 71);
type = Stem;
},
{
place = (287, 110);
place = (287, 110);
type = Stem;
}
);
layerId = m01;
shapes = (
{
closed = 1;
nodes = (
(114,0,l),
(571,0,l),
(571,66,l),
(185,66,l),
(185,322,l),
(532,322,l),
(532,388,l),
(185,388,l),
(185,631,l),
(571,631,l),
(571,697,l),
(114,697,l)
);
},
{
closed = 1;
nodes = (
(373,-172,o),
(397,-147,o),
(397,-116,cs),
(397,-85,o),
(373,-61,o),
(342,-61,cs),
(311,-61,o),
(287,-85,o),
(287,-116,cs),
(287,-147,o),
(312,-172,o),
(342,-172,cs)
);
}
);
width = 632;
}
);
note = uni1EB8.ss03;
},
{
glyphname = Gdotaccent.ss03;
kernRight = G;
layers = (
{
hints = (
{
horizontal = 1;
place = (-10, 68);
place = (-10, 68);
type = Stem;
},
{
horizontal = 1;
place = (302, 58);
place = (302, 58);
type = Stem;
},
{
horizontal = 1;
place = (639, 68);
place = (639, 68);
type = Stem;
},
{
horizontal = 1;
place = (797, 111);
place = (797, 111);
type = Stem;
},
{
place = (68, 71);
place = (68, 71);
type = Stem;
},
{
place = (330, 110);
place = (330, 110);
type = Stem;
},
{
place = (610, 67);
place = (610, 67);
type = Stem;
},
{
horizontal = 1;
place = (0, 21);
target = up;
type = BottomGhost;
}
);
layerId = m01;
shapes = (
{
closed = 1;
nodes = (
(416,797,o),
(440,822,o),
(440,853,cs),
(440,884,o),
(416,908,o),
(385,908,cs),
(354,908,o),
(330,884,o),
(330,853,cs),
(330,822,o),
(355,797,o),
(385,797,cs)
);
},
{
closed = 1;
nodes = (
(442,302,l),
(610,302,l),
(610,280,ls),
(610,121,o),
(505,58,o),
(385,58,cs),
(212,58,o),
(139,187,o),
(139,353,cs),
(139,525,o),
(222,639,o),
(390,639,cs),
(506,639,o),
(576,586,o),
(611,491,c),
(677,516,l),
(631,636,o),
(537,707,o),
(390,707,cs),
(176,707,o),
(68,557,o),
(68,350,cs),
(68,142,o),
(177,-10,o),
(380,-10,cs),
(487,-10,o),
(572,32,o),
(610,109,c),
(620,0,l),
(677,0,l),
(677,360,l),
(442,360,l)
);
}
);
width = 766;
}
);
note = Gdotaccent.ss03;
},
{
glyphname = Idieresis.ss03;
layers = (
{
hints = (
{
horizontal = 1;
place = (0, 21);
target = up;
type = BottomGhost;
},
{
horizontal = 1;
place = (697, -20);
target = down;
type = TopGhost;
},
{
horizontal = 1;
place = (797, 111);
place = (797, 111);
type = Stem;
},
{
place = (8, 110);
place = (8, 110);
type = Stem;
},
{
place = (182, 110);
place = (182, 110);
type = Stem;
},
{
place = (114, 71);
place = (114, 71);
type = Stem;
}
);
layerId = m01;
shapes = (
{
closed = 1;
nodes = (
(94,797,o),
(118,822,o),
(118,853,cs),
(118,884,o),
(94,908,o),
(63,908,cs),
(32,908,o),
(8,884,o),
(8,853,cs),
(8,822,o),
(33,797,o),
(63,797,cs)
);
},
{
closed = 1;
nodes = (
(268,797,o),
(292,822,o),
(292,853,cs),
(292,884,o),
(268,908,o),
(237,908,cs),
(206,908,o),
(182,884,o),
(182,853,cs),
(182,822,o),
(207,797,o),
(237,797,cs)
);
},
{
closed = 1;
nodes = (
(114,0,l),
(185,0,l),
(185,697,l),
(114,697,l)
);
}
);
width = 299;
}
);
note = Idieresis.ss03;
},
{
glyphname = uni1ECA.ss03;
layers = (
{
hints = (
{
horizontal = 1;
place = (-172, 111);
place = (-172, 111);
type = Stem;
},
{
horizontal = 1;
place = (0, 21);
target = up;
type = BottomGhost;
},
{
horizontal = 1;
place = (697, -20);
target = down;
type = TopGhost;
},
{
place = (114, 71);
place = (114, 71);
type = Stem;
}
);
layerId = m01;
shapes = (
{
closed = 1;
nodes = (
(114,0,l),
(185,0,l),
(185,697,l),
(114,697,l)
);
},
{
closed = 1;
nodes = (
(181,-172,o),
(205,-147,o),
(205,-116,cs),
(205,-85,o),
(181,-61,o),
(150,-61,cs),
(119,-61,o),
(95,-85,o),
(95,-116,cs),
(95,-147,o),
(120,-172,o),
(150,-172,cs)
);
}
);
width = 299;
}
);
note = uni1ECA.ss03;
},
{
glyphname = uni1ED8.ss03;
layers = (
{
hints = (
{
horizontal = 1;
place = (-172, 111);
place = (-172, 111);
type = Stem;
},
{
horizontal = 1;
place = (-10, 68);
place = (-10, 68);
type = Stem;
},
{
horizontal = 1;
place = (639, 68);
place = (639, 68);
type = Stem;
},
{
place = (67, 71);
place = (67, 71);
type = Stem;
},
{
place = (331, 110);
place = (331, 110);
type = Stem;
},
{
place = (634, 71);
place = (634, 71);
type = Stem;
}
);
layerId = m01;
shapes = (
{
closed = 1;
nodes = (
(237,752,l),
(295,752,l),
(386,850,l),
(478,752,l),
(535,752,l),
(386,911,l)
);
},
{
closed = 1;
nodes = (
(577,-10,o),
(705,133,o),
(705,348,cs),
(705,564,o),
(577,707,o),
(386,707,cs),
(195,707,o),
(67,564,o),
(67,348,cs),
(67,133,o),
(195,-10,o),
(386,-10,cs)
);
},
{
closed = 1;
nodes = (
(235,58,o),
(138,171,o),
(138,348,cs),
(138,526,o),
(235,639,o),
(386,639,cs),
(537,639,o),
(634,526,o),
(634,348,cs),
(634,171,o),
(537,58,o),
(386,58,cs)
);
},
{
closed = 1;
nodes = (
(417,-172,o),
(441,-147,o),
(441,-116,cs),
(441,-85,o),
(417,-61,o),
(386,-61,cs),
(355,-61,o),
(331,-85,o),
(331,-116,cs),
(331,-147,o),
(356,-172,o),
(386,-172,cs)
);
}
);
width = 772;
}
);
note = uni1ED8.ss03;
},
{
glyphname = Odieresis.ss03;
layers = (
{
hints = (
{
horizontal = 1;
place = (-10, 68);
place = (-10, 68);
type = Stem;
},
{
horizontal = 1;
place = (639, 68);
place = (639, 68);
type = Stem;
},
{
horizontal = 1;
place = (797, 111);
place = (797, 111);
type = Stem;
},
{
place = (67, 71);
place = (67, 71);
type = Stem;
},
{
place = (244, 110);
place = (244, 110);
type = Stem;
},
{
place = (418, 110);
place = (418, 110);
type = Stem;
},
{
place = (634, 71);
place = (634, 71);
type = Stem;
}
);
layerId = m01;
shapes = (
{
closed = 1;
nodes = (
(330,797,o),
(354,822,o),
(354,853,cs),
(354,884,o),
(330,908,o),
(299,908,cs),
(268,908,o),
(244,884,o),
(244,853,cs),
(244,822,o),
(269,797,o),
(299,797,cs)
);
},
{
closed = 1;
nodes = (
(504,797,o),
(528,822,o),
(528,853,cs),
(528,884,o),
(504,908,o),
(473,908,cs),
(442,908,o),
(418,884,o),
(418,853,cs),
(418,822,o),
(443,797,o),
(473,797,cs)
);
},
{
closed = 1;
nodes = (
(577,-10,o),
(705,133,o),
(705,348,cs),
(705,564,o),
(577,707,o),
(386,707,cs),
(195,707,o),
(67,564,o),
(67,348,cs),
(67,133,o),
(195,-10,o),
(386,-10,cs)
);
},
{
closed = 1;
nodes = (
(235,58,o),
(138,171,o),
(138,348,cs),
(138,526,o),
(235,639,o),
(386,639,cs),
(537,639,o),
(634,526,o),
(634,348,cs),
(634,171,o),
(537,58,o),
(386,58,cs)
);
}
);
width = 772;
}
);
note = Odieresis.ss03;
},
{
glyphname = uni1ECC.ss03;
layers = (
{
hints = (
{
horizontal = 1;
place = (-172, 111);
place = (-172, 111);
type = Stem;
},
{
horizontal = 1;
place = (-10, 68);
place = (-10, 68);
type = Stem;
},
{
horizontal = 1;
place = (639, 68);
place = (639, 68);
type = Stem;
},
{
place = (67, 71);
place = (67, 71);
type = Stem;
},
{
place = (331, 110);
place = (331, 110);
type = Stem;
},
{
place = (634, 71);
place = (634, 71);
type = Stem;
}
);
layerId = m01;
shapes = (
{
closed = 1;
nodes = (
(577,-10,o),
(705,133,o),
(705,348,cs),
(705,564,o),
(577,707,o),
(386,707,cs),
(195,707,o),
(67,564,o),
(67,348,cs),
(67,133,o),
(195,-10,o),
(386,-10,cs)
);
},
{
closed = 1;
nodes = (
(235,58,o),
(138,171,o),
(138,348,cs),
(138,526,o),
(235,639,o),
(386,639,cs),
(537,639,o),
(634,526,o),
(634,348,cs),
(634,171,o),
(537,58,o),
(386,58,cs)
);
},
{
closed = 1;
nodes = (
(417,-172,o),
(441,-147,o),
(441,-116,cs),
(441,-85,o),
(417,-61,o),
(386,-61,cs),
(355,-61,o),
(331,-85,o),
(331,-116,cs),
(331,-147,o),
(356,-172,o),
(386,-172,cs)
);
}
);
width = 772;
}
);
note = uni1ECC.ss03;
},
{
glyphname = uni1EE2.ss03;
layers = (
{
hints = (
{
horizontal = 1;
place = (-172, 111);
place = (-172, 111);
type = Stem;
},
{
horizontal = 1;
place = (-10, 68);
place = (-10, 68);
type = Stem;
},
{
horizontal = 1;
place = (501, -20);
target = down;
type = TopGhost;
},
{
horizontal = 1;
place = (697, -20);
target = down;
type = TopGhost;
},
{
place = (67, 71);
place = (67, 71);
type = Stem;
},
{
place = (634, 71);
place = (634, 71);
type = Stem;
},
{
place = (724, 53);
place = (724, 53);
type = Stem;
},
{
horizontal = 1;
place = (639, 68);
place = (639, 68);
type = Stem;
},
{
place = (331, 110);
place = (331, 110);
type = Stem;
}
);
layerId = m01;
shapes = (
{
closed = 1;
nodes = (
(724,697,l),
(724,644,ls),
(724,594,o),
(707,555,o),
(660,546,c),
(607,647,o),
(510,707,o),
(386,707,cs),
(195,707,o),
(67,564,o),
(67,348,cs),
(67,133,o),
(195,-10,o),
(386,-10,cs),
(577,-10,o),
(705,133,o),
(705,348,cs),
(705,404,o),
(696,456,o),
(680,501,c),
(748,517,o),
(777,572,o),
(777,649,cs),
(777,697,l)
);
},
{
closed = 1;
nodes = (
(235,58,o),
(138,171,o),
(138,348,cs),
(138,526,o),
(235,639,o),
(386,639,cs),
(537,639,o),
(634,526,o),
(634,348,cs),
(634,171,o),
(537,58,o),
(386,58,cs)
);
},
{
closed = 1;
nodes = (
(355,-61,o),
(331,-85,o),
(331,-116,cs),
(331,-147,o),
(356,-172,o),
(386,-172,cs),
(417,-172,o),
(441,-147,o),
(441,-116,cs),
(441,-85,o),
(417,-61,o),
(386,-61,cs)
);
}
);
width = 772;
}
);
note = uni1EE2.ss03;
},
{
glyphname = Udieresis.ss03;
kernLeft = U;
layers = (
{
hints = (
{
horizontal = 1;
place = (-10, 70);
place = (-10, 70);
type = Stem;
},
{
horizontal = 1;
place = (697, -20);
target = down;
type = TopGhost;
},
{
horizontal = 1;
place = (797, 111);
place = (797, 111);
type = Stem;
},
{
place = (99, 71);
place = (99, 71);
type = Stem;
},
{
place = (208, 110);
place = (208, 110);
type = Stem;
},
{
place = (382, 110);
place = (382, 110);
type = Stem;
},
{
place = (529, 71);
place = (529, 71);
type = Stem;
}
);
layerId = m01;
shapes = (
{
closed = 1;
nodes = (
(294,797,o),
(318,822,o),
(318,853,cs),
(318,884,o),
(294,908,o),
(263,908,cs),
(232,908,o),
(208,884,o),
(208,853,cs),
(208,822,o),
(233,797,o),
(263,797,cs)
);
},
{
closed = 1;
nodes = (
(468,797,o),
(492,822,o),
(492,853,cs),
(492,884,o),
(468,908,o),
(437,908,cs),
(406,908,o),
(382,884,o),
(382,853,cs),
(382,822,o),
(407,797,o),
(437,797,cs)
);
},
{
closed = 1;
nodes = (
(512,-10,o),
(600,82,o),
(600,257,cs),
(600,697,l),
(529,697,l),
(529,262,ls),
(529,125,o),
(471,60,o),
(349,60,cs),
(228,60,o),
(170,124,o),
(170,259,cs),
(170,697,l),
(99,697,l),
(99,252,ls),
(99,81,o),
(187,-10,o),
(349,-10,cs)
);
}
);
width = 699;
}
);
note = Udieresis.ss03;
},
{
glyphname = uni01D7.ss03;
kernLeft = U;
layers = (
{
hints = (
{
horizontal = 1;
place = (-10, 70);
place = (-10, 70);
type = Stem;
},
{
horizontal = 1;
place = (697, -20);
target = down;
type = TopGhost;
},
{
horizontal = 1;
place = (797, 111);
place = (797, 111);
type = Stem;
},
{
horizontal = 1;
place = (971, 141);
place = (971, 141);
type = Stem;
},
{
place = (99, 71);
place = (99, 71);
type = Stem;
},
{
place = (208, 110);
place = (208, 110);
type = Stem;
},
{
place = (382, 110);
place = (382, 110);
type = Stem;
},
{
place = (529, 71);
place = (529, 71);
type = Stem;
}
);
layerId = m01;
shapes = (
{
closed = 1;
nodes = (
(324,971,l),
(377,971,l),
(506,1112,l),
(432,1112,l)
);
},
{
closed = 1;
nodes = (
(294,797,o),
(318,822,o),
(318,853,cs),
(318,884,o),
(294,908,o),
(263,908,cs),
(232,908,o),
(208,884,o),
(208,853,cs),
(208,822,o),
(233,797,o),
(263,797,cs)
);
},
{
closed = 1;
nodes = (
(468,797,o),
(492,822,o),
(492,853,cs),
(492,884,o),
(468,908,o),
(437,908,cs),
(406,908,o),
(382,884,o),
(382,853,cs),
(382,822,o),
(407,797,o),
(437,797,cs)
);
},
{
closed = 1;
nodes = (
(512,-10,o),
(600,82,o),
(600,257,cs),
(600,697,l),
(529,697,l),
(529,262,ls),
(529,125,o),
(471,60,o),
(349,60,cs),
(228,60,o),
(170,124,o),
(170,259,cs),
(170,697,l),
(99,697,l),
(99,252,ls),
(99,81,o),
(187,-10,o),
(349,-10,cs)
);
}
);
width = 699;
}
);
note = uni01D7.ss03;
},
{
glyphname = uni01D9.ss03;
kernLeft = U;
layers = (
{
hints = (
{
horizontal = 1;
place = (-10, 70);
place = (-10, 70);
type = Stem;
},
{
horizontal = 1;
place = (697, -20);
target = down;
type = TopGhost;
},
{
horizontal = 1;
place = (797, 111);
place = (797, 111);
type = Stem;
},
{
place = (99, 71);
place = (99, 71);
type = Stem;
},
{
place = (208, 110);
place = (208, 110);
type = Stem;
},
{
place = (382, 110);
place = (382, 110);
type = Stem;
},
{
place = (529, 71);
place = (529, 71);
type = Stem;
}
);
layerId = m01;
shapes = (
{
closed = 1;
nodes = (
(350,959,l),
(499,1112,l),
(442,1112,l),
(350,1017,l),
(258,1112,l),
(201,1112,l)
);
},
{
closed = 1;
nodes = (
(294,797,o),
(318,822,o),
(318,853,cs),
(318,884,o),
(294,908,o),
(263,908,cs),
(232,908,o),
(208,884,o),
(208,853,cs),
(208,822,o),
(233,797,o),
(263,797,cs)
);
},
{
closed = 1;
nodes = (
(468,797,o),
(492,822,o),
(492,853,cs),
(492,884,o),
(468,908,o),
(437,908,cs),
(406,908,o),
(382,884,o),
(382,853,cs),
(382,822,o),
(407,797,o),
(437,797,cs)
);
},
{
closed = 1;
nodes = (
(512,-10,o),
(600,82,o),
(600,257,cs),
(600,697,l),
(529,697,l),
(529,262,ls),
(529,125,o),
(471,60,o),
(349,60,cs),
(228,60,o),
(170,124,o),
(170,259,cs),
(170,697,l),
(99,697,l),
(99,252,ls),
(99,81,o),
(187,-10,o),
(349,-10,cs)
);
}
);
width = 699;
}
);
note = uni01D9.ss03;
},
{
glyphname = uni01DB.ss03;
kernLeft = U;
layers = (
{
hints = (
{
horizontal = 1;
place = (-10, 70);
place = (-10, 70);
type = Stem;
},
{
horizontal = 1;
place = (697, -20);
target = down;
type = TopGhost;
},
{
horizontal = 1;
place = (797, 111);
place = (797, 111);
type = Stem;
},
{
horizontal = 1;
place = (971, 141);
place = (971, 141);
type = Stem;
},
{
place = (99, 71);
place = (99, 71);
type = Stem;
},
{
place = (208, 110);
place = (208, 110);
type = Stem;
},
{
place = (382, 110);
place = (382, 110);
type = Stem;
},
{
place = (529, 71);
place = (529, 71);
type = Stem;
}
);
layerId = m01;
shapes = (
{
closed = 1;
nodes = (
(323,971,l),
(377,971,l),
(273,1112,l),
(199,1112,l)
);
},
{
closed = 1;
nodes = (
(294,797,o),
(318,822,o),
(318,853,cs),
(318,884,o),
(294,908,o),
(263,908,cs),
(232,908,o),
(208,884,o),
(208,853,cs),
(208,822,o),
(233,797,o),
(263,797,cs)
);
},
{
closed = 1;
nodes = (
(468,797,o),
(492,822,o),
(492,853,cs),
(492,884,o),
(468,908,o),
(437,908,cs),
(406,908,o),
(382,884,o),
(382,853,cs),
(382,822,o),
(407,797,o),
(437,797,cs)
);
},
{
closed = 1;
nodes = (
(512,-10,o),
(600,82,o),
(600,257,cs),
(600,697,l),
(529,697,l),
(529,262,ls),
(529,125,o),
(471,60,o),
(349,60,cs),
(228,60,o),
(170,124,o),
(170,259,cs),
(170,697,l),
(99,697,l),
(99,252,ls),
(99,81,o),
(187,-10,o),
(349,-10,cs)
);
}
);
width = 699;
}
);
note = uni01DB.ss03;
},
{
glyphname = uni01D5.ss03;
kernLeft = U;
layers = (
{
hints = (
{
horizontal = 1;
place = (-10, 70);
place = (-10, 70);
type = Stem;
},
{
horizontal = 1;
place = (697, -20);
target = down;
type = TopGhost;
},
{
horizontal = 1;
place = (797, 111);
place = (797, 111);
type = Stem;
},
{
horizontal = 1;
place = (1014, 42);
place = (1014, 42);
type = Stem;
},
{
place = (99, 71);
place = (99, 71);
type = Stem;
},
{
place = (208, 110);
place = (208, 110);
type = Stem;
},
{
place = (382, 110);
place = (382, 110);
type = Stem;
},
{
place = (529, 71);
place = (529, 71);
type = Stem;
}
);
layerId = m01;
shapes = (
{
closed = 1;
nodes = (
(214,1014,l),
(484,1014,l),
(484,1056,l),
(214,1056,l)
);
},
{
closed = 1;
nodes = (
(294,797,o),
(318,822,o),
(318,853,cs),
(318,884,o),
(294,908,o),
(263,908,cs),
(232,908,o),
(208,884,o),
(208,853,cs),
(208,822,o),
(233,797,o),
(263,797,cs)
);
},
{
closed = 1;
nodes = (
(468,797,o),
(492,822,o),
(492,853,cs),
(492,884,o),
(468,908,o),
(437,908,cs),
(406,908,o),
(382,884,o),
(382,853,cs),
(382,822,o),
(407,797,o),
(437,797,cs)
);
},
{
closed = 1;
nodes = (
(512,-10,o),
(600,82,o),
(600,257,cs),
(600,697,l),
(529,697,l),
(529,262,ls),
(529,125,o),
(471,60,o),
(349,60,cs),
(228,60,o),
(170,124,o),
(170,259,cs),
(170,697,l),
(99,697,l),
(99,252,ls),
(99,81,o),
(187,-10,o),
(349,-10,cs)
);
}
);
width = 699;
}
);
note = uni01D5.ss03;
},
{
glyphname = uni1EE4.ss03;
kernLeft = U;
layers = (
{
hints = (
{
horizontal = 1;
place = (-172, 111);
place = (-172, 111);
type = Stem;
},
{
horizontal = 1;
place = (-10, 70);
place = (-10, 70);
type = Stem;
},
{
horizontal = 1;
place = (697, -20);
target = down;
type = TopGhost;
},
{
place = (99, 71);
place = (99, 71);
type = Stem;
},
{
place = (295, 110);
place = (295, 110);
type = Stem;
},
{
place = (529, 71);
place = (529, 71);
type = Stem;
}
);
layerId = m01;
shapes = (
{
closed = 1;
nodes = (
(512,-10,o),
(600,82,o),
(600,257,cs),
(600,697,l),
(529,697,l),
(529,262,ls),
(529,125,o),
(471,60,o),
(349,60,cs),
(228,60,o),
(170,124,o),
(170,259,cs),
(170,697,l),
(99,697,l),
(99,252,ls),
(99,81,o),
(187,-10,o),
(349,-10,cs)
);
},
{
closed = 1;
nodes = (
(381,-172,o),
(405,-147,o),
(405,-116,cs),
(405,-85,o),
(381,-61,o),
(350,-61,cs),
(319,-61,o),
(295,-85,o),
(295,-116,cs),
(295,-147,o),
(320,-172,o),
(350,-172,cs)
);
}
);
width = 699;
}
);
note = uni1EE4.ss03;
},
{
glyphname = uni1EF0.ss03;
kernLeft = U;
layers = (
{
hints = (
{
horizontal = 1;
place = (-172, 111);
place = (-172, 111);
type = Stem;
},
{
horizontal = 1;
place = (-10, 70);
place = (-10, 70);
type = Stem;
},
{
horizontal = 1;
place = (697, -20);
target = down;
type = TopGhost;
},
{
place = (99, 71);
place = (99, 71);
type = Stem;
},
{
place = (295, 110);
place = (295, 110);
type = Stem;
},
{
place = (529, 71);
place = (529, 71);
type = Stem;
},
{
place = (679, 53);
place = (679, 53);
type = Stem;
}
);
layerId = m01;
shapes = (
{
closed = 1;
nodes = (
(679,697,l),
(679,644,ls),
(679,589,o),
(658,547,o),
(600,544,c),
(600,697,l),
(529,697,l),
(529,262,ls),
(529,125,o),
(471,60,o),
(349,60,cs),
(228,60,o),
(170,124,o),
(170,259,cs),
(170,697,l),
(99,697,l),
(99,252,ls),
(99,81,o),
(187,-10,o),
(349,-10,cs),
(512,-10,o),
(600,82,o),
(600,257,cs),
(600,497,l),
(693,500,o),
(732,560,o),
(732,649,cs),
(732,697,l)
);
},
{
closed = 1;
nodes = (
(319,-61,o),
(295,-85,o),
(295,-116,cs),
(295,-147,o),
(320,-172,o),
(350,-172,cs),
(381,-172,o),
(405,-147,o),
(405,-116,cs),
(405,-85,o),
(381,-61,o),
(350,-61,cs)
);
}
);
width = 699;
}
);
note = uni1EF0.ss03;
},
{
glyphname = Wdieresis.ss03;
kernLeft = W;
kernRight = W;
layers = (
{
hints = (
{
horizontal = 1;
place = (0, 21);
target = up;
type = BottomGhost;
},
{
horizontal = 1;
place = (697, -20);
target = down;
type = TopGhost;
},
{
horizontal = 1;
place = (797, 111);
place = (797, 111);
type = Stem;
},
{
place = (352, 110);
place = (352, 110);
type = Stem;
},
{
place = (526, 110);
place = (526, 110);
type = Stem;
},
{
horizontal = 1;
place = (0, 106);
place = (0, 106);
type = Stem;
}
);
layerId = m01;
shapes = (
{
closed = 1;
nodes = (
(438,797,o),
(462,822,o),
(462,853,cs),
(462,884,o),
(438,908,o),
(407,908,cs),
(376,908,o),
(352,884,o),
(352,853,cs),
(352,822,o),
(377,797,o),
(407,797,cs)
);
},
{
closed = 1;
nodes = (
(612,797,o),
(636,822,o),
(636,853,cs),
(636,884,o),
(612,908,o),
(581,908,cs),
(550,908,o),
(526,884,o),
(526,853,cs),
(526,822,o),
(551,797,o),
(581,797,cs)
);
},
{
closed = 1;
nodes = (
(244,0,l),
(316,0,l),
(494,547,l),
(671,0,l),
(743,0,l),
(945,697,l),
(870,697,l),
(703,106,l),
(525,660,l),
(462,660,l),
(284,106,l),
(116,697,l),
(42,697,l)
);
}
);
width = 987;
}
);
note = Wdieresis.ss03;
},
{
glyphname = Ydieresis.ss03;
kernLeft = Y;
kernRight = Y;
layers = (
{
hints = (
{
horizontal = 1;
place = (0, 21);
target = up;
type = BottomGhost;
},
{
horizontal = 1;
place = (697, -20);
target = down;
type = TopGhost;
},
{
horizontal = 1;
place = (797, 111);
place = (797, 111);
type = Stem;
},
{
place = (190, 110);
place = (190, 110);
type = Stem;
},
{
place = (364, 110);
place = (364, 110);
type = Stem;
},
{
place = (296, 72);
place = (296, 72);
type = Stem;
}
);
layerId = m01;
shapes = (
{
closed = 1;
nodes = (
(276,797,o),
(300,822,o),
(300,853,cs),
(300,884,o),
(276,908,o),
(245,908,cs),
(214,908,o),
(190,884,o),
(190,853,cs),
(190,822,o),
(215,797,o),
(245,797,cs)
);
},
{
closed = 1;
nodes = (
(450,797,o),
(474,822,o),
(474,853,cs),
(474,884,o),
(450,908,o),
(419,908,cs),
(388,908,o),
(364,884,o),
(364,853,cs),
(364,822,o),
(389,797,o),
(419,797,cs)
);
},
{
closed = 1;
nodes = (
(296,0,l),
(368,0,l),
(368,267,l),
(634,697,l),
(549,697,l),
(331,336,l),
(114,697,l),
(30,697,l),
(296,267,l)
);
}
);
width = 664;
}
);
note = Ydieresis.ss03;
},
{
glyphname = uni1EF4.ss03;
kernLeft = Y;
kernRight = Y;
layers = (
{
hints = (
{
horizontal = 1;
place = (-172, 111);
place = (-172, 111);
type = Stem;
},
{
horizontal = 1;
place = (0, 21);
target = up;
type = BottomGhost;
},
{
horizontal = 1;
place = (697, -20);
target = down;
type = TopGhost;
},
{
place = (296, 72);
place = (296, 72);
type = Stem;
},
{
place = (277, 110);
place = (277, 110);
type = Stem;
}
);
layerId = m01;
shapes = (
{
closed = 1;
nodes = (
(296,0,l),
(368,0,l),
(368,267,l),
(634,697,l),
(549,697,l),
(331,336,l),
(114,697,l),
(30,697,l),
(296,267,l)
);
},
{
closed = 1;
nodes = (
(363,-172,o),
(387,-147,o),
(387,-116,cs),
(387,-85,o),
(363,-61,o),
(332,-61,cs),
(301,-61,o),
(277,-85,o),
(277,-116,cs),
(277,-147,o),
(302,-172,o),
(332,-172,cs)
);
}
);
width = 664;
}
);
note = uni1EF4.ss03;
},
{
glyphname = Zdotaccent.ss03;
kernLeft = Z;
kernRight = Z;
layers = (
{
hints = (
{
horizontal = 1;
place = (0, 66);
place = (0, 66);
type = Stem;
},
{
horizontal = 1;
place = (631, 66);
place = (631, 66);
type = Stem;
},
{
horizontal = 1;
place = (797, 111);
place = (797, 111);
type = Stem;
},
{
place = (269, 110);
place = (269, 110);
type = Stem;
}
);
layerId = m01;
shapes = (
{
closed = 1;
nodes = (
(355,797,o),
(379,822,o),
(379,853,cs),
(379,884,o),
(355,908,o),
(324,908,cs),
(293,908,o),
(269,884,o),
(269,853,cs),
(269,822,o),
(294,797,o),
(324,797,cs)
);
},
{
closed = 1;
nodes = (
(596,697,l),
(69,697,l),
(69,631,l),
(504,631,l),
(46,54,l),
(46,0,l),
(594,0,l),
(594,66,l),
(141,66,l),
(596,641,l)
);
}
);
width = 648;
}
);
note = Zdotaccent.ss03;
},
{
glyphname = a;
kernLeft = a;
kernRight = a;
lastChange = "2022-12-21 02:14:10 +0000";
layers = (
{
hints = (
{
horizontal = 1;
place = (-8, 57);
place = (-8, 57);
type = Stem;
},
{
horizontal = 1;
place = (228, 56);
place = (228, 56);
type = Stem;
},
{
horizontal = 1;
place = (440, 61);
place = (440, 61);
type = Stem;
},
{
place = (44, 69);
place = (44, 69);
type = Stem;
},
{
place = (389, 69);
place = (389, 69);
type = Stem;
},
{
place = (393, 65);
place = (393, 65);
type = Stem;
},
{
horizontal = 1;
place = (0, 21);
target = up;
type = BottomGhost;
}
);
layerId = m01;
shapes = (
{
closed = 1;
nodes = (
(183,501,o),
(122,473,o),
(71,412,cs),
(65,405,o),
(66,395,o),
(72,390,cs),
(111,358,l),
(151,413,o),
(199,440,o),
(261,440,cs),
(344,440,o),
(389,393,o),
(389,307,cs),
(389,284,l),
(288,284,ls),
(191,284,o),
(138,275,o),
(100,253,cs),
(64,231,o),
(44,193,o),
(44,143,cs),
(44,48,o),
(107,-8,o),
(214,-8,cs),
(292,-8,o),
(352,21,o),
(391,76,c),
(401,0,l),
(437,0,l),
(459,50,l),
(458,307,ls),
(458,430,o),
(386,501,o),
(262,501,cs)
);
},
{
closed = 1;
nodes = (
(160,49,o),
(113,84,o),
(113,139,cs),
(113,167,o),
(122,189,o),
(140,203,cs),
(164,222,o),
(203,228,o),
(294,228,cs),
(389,228,l),
(389,221,ls),
(389,116,o),
(329,49,o),
(234,49,cs)
);
}
);
width = 535;
}
);
note = a;
unicode = 97;
},
{
glyphname = aacute;
kernLeft = a;
kernRight = a;
layers = (
{
hints = (
{
horizontal = 1;
place = (-8, 57);
place = (-8, 57);
type = Stem;
},
{
horizontal = 1;
place = (228, 56);
place = (228, 56);
type = Stem;
},
{
horizontal = 1;
place = (440, 61);
place = (440, 61);
type = Stem;
},
{
horizontal = 1;
place = (556, 141);
place = (556, 141);
type = Stem;
},
{
place = (44, 69);
place = (44, 69);
type = Stem;
},
{
place = (389, 69);
place = (389, 69);
type = Stem;
},
{
place = (393, 65);
place = (393, 65);
type = Stem;
},
{
horizontal = 1;
place = (0, 21);
target = up;
type = BottomGhost;
}
);
layerId = m01;
shapes = (
{
closed = 1;
nodes = (
(420,697,l),
(346,697,l),
(238,556,l),
(291,556,l)
);
},
{
closed = 1;
nodes = (
(178,501,o),
(114,469,o),
(61,400,c),
(111,358,l),
(151,413,o),
(199,440,o),
(261,440,cs),
(344,440,o),
(389,393,o),
(389,307,cs),
(389,284,l),
(288,284,ls),
(191,284,o),
(138,275,o),
(100,253,cs),
(64,231,o),
(44,193,o),
(44,143,cs),
(44,48,o),
(107,-8,o),
(214,-8,cs),
(292,-8,o),
(352,21,o),
(391,76,c),
(395,0,l),
(458,0,l),
(458,307,ls),
(458,430,o),
(386,501,o),
(262,501,cs)
);
},
{
closed = 1;
nodes = (
(160,49,o),
(113,84,o),
(113,139,cs),
(113,167,o),
(122,189,o),
(140,203,cs),
(164,222,o),
(203,228,o),
(294,228,cs),
(389,228,l),
(389,221,ls),
(389,116,o),
(329,49,o),
(234,49,cs)
);
}
);
width = 535;
}
);
note = aacute;
unicode = 225;
},
{
glyphname = abreve;
kernLeft = a;
kernRight = a;
layers = (
{
hints = (
{
horizontal = 1;
place = (-8, 57);
place = (-8, 57);
type = Stem;
},
{
horizontal = 1;
place = (228, 56);
place = (228, 56);
type = Stem;
},
{
horizontal = 1;
place = (440, 61);
place = (440, 61);
type = Stem;
},
{
horizontal = 1;
place = (566, 42);
place = (566, 42);
type = Stem;
},
{
horizontal = 1;
place = (697, -20);
target = down;
type = TopGhost;
},
{
place = (113, 50);
place = (113, 50);
type = Stem;
},
{
place = (365, 50);
place = (365, 50);
type = Stem;
},
{
place = (44, 69);
place = (44, 69);
type = Stem;
},
{
place = (389, 69);
place = (389, 69);
type = Stem;
},
{
place = (393, 65);
place = (393, 65);
type = Stem;
},
{
horizontal = 1;
place = (0, 21);
target = up;
type = BottomGhost;
}
);
layerId = m01;
shapes = (
{
closed = 1;
nodes = (
(361,566,o),
(415,610,o),
(415,697,c),
(365,697,l),
(365,640,o),
(327,608,o),
(264,608,cs),
(203,608,o),
(163,638,o),
(163,697,c),
(113,697,l),
(113,612,o),
(163,566,o),
(264,566,cs)
);
},
{
closed = 1;
nodes = (
(178,501,o),
(114,469,o),
(61,400,c),
(111,358,l),
(151,413,o),
(199,440,o),
(261,440,cs),
(344,440,o),
(389,393,o),
(389,307,cs),
(389,284,l),
(288,284,ls),
(191,284,o),
(138,275,o),
(100,253,cs),
(64,231,o),
(44,193,o),
(44,143,cs),
(44,48,o),
(107,-8,o),
(214,-8,cs),
(292,-8,o),
(352,21,o),
(391,76,c),
(395,0,l),
(458,0,l),
(458,307,ls),
(458,430,o),
(386,501,o),
(262,501,cs)
);
},
{
closed = 1;
nodes = (
(160,49,o),
(113,84,o),
(113,139,cs),
(113,167,o),
(122,189,o),
(140,203,cs),
(164,222,o),
(203,228,o),
(294,228,cs),
(389,228,l),
(389,221,ls),
(389,116,o),
(329,49,o),
(234,49,cs)
);
}
);
width = 535;
}
);
note = abreve;
unicode = 259;
},
{
glyphname = uni1EAF;
kernLeft = a;
kernRight = a;
layers = (
{
hints = (
{
horizontal = 1;
place = (-8, 57);
place = (-8, 57);
type = Stem;
},
{
horizontal = 1;
place = (228, 56);
place = (228, 56);
type = Stem;
},
{
horizontal = 1;
place = (440, 61);
place = (440, 61);
type = Stem;
},
{
horizontal = 1;
place = (566, 42);
place = (566, 42);
type = Stem;
},
{
horizontal = 1;
place = (697, -20);
target = down;
type = TopGhost;
},
{
horizontal = 1;
place = (760, 141);
place = (760, 141);
type = Stem;
},
{
place = (44, 69);
place = (44, 69);
type = Stem;
},
{
place = (389, 69);
place = (389, 69);
type = Stem;
},
{
place = (113, 50);
place = (113, 50);
type = Stem;
},
{
place = (365, 50);
place = (365, 50);
type = Stem;
},
{
place = (393, 65);
place = (393, 65);
type = Stem;
},
{
horizontal = 1;
place = (0, 21);
target = up;
type = BottomGhost;
}
);
layerId = m01;
shapes = (
{
closed = 1;
nodes = (
(420,901,l),
(346,901,l),
(238,760,l),
(291,760,l)
);
},
{
closed = 1;
nodes = (
(361,566,o),
(415,610,o),
(415,697,c),
(365,697,l),
(365,640,o),
(327,608,o),
(264,608,cs),
(203,608,o),
(163,638,o),
(163,697,c),
(113,697,l),
(113,612,o),
(163,566,o),
(264,566,cs)
);
},
{
closed = 1;
nodes = (
(178,501,o),
(114,469,o),
(61,400,c),
(111,358,l),
(151,413,o),
(199,440,o),
(261,440,cs),
(344,440,o),
(389,393,o),
(389,307,cs),
(389,284,l),
(288,284,ls),
(191,284,o),
(138,275,o),
(100,253,cs),
(64,231,o),
(44,193,o),
(44,143,cs),
(44,48,o),
(107,-8,o),
(214,-8,cs),
(292,-8,o),
(352,21,o),
(391,76,c),
(395,0,l),
(458,0,l),
(458,307,ls),
(458,430,o),
(386,501,o),
(262,501,cs)
);
},
{
closed = 1;
nodes = (
(160,49,o),
(113,84,o),
(113,139,cs),
(113,167,o),
(122,189,o),
(140,203,cs),
(164,222,o),
(203,228,o),
(294,228,cs),
(389,228,l),
(389,221,ls),
(389,116,o),
(329,49,o),
(234,49,cs)
);
}
);
width = 535;
}
);
note = uni1EAF;
unicode = 7855;
},
{
glyphname = uni1EB7;
kernLeft = a;
kernRight = a;
layers = (
{
hints = (
{
horizontal = 1;
place = (-173, 101);
place = (-173, 101);
type = Stem;
},
{
horizontal = 1;
place = (-8, 57);
place = (-8, 57);
type = Stem;
},
{
horizontal = 1;
place = (228, 56);
place = (228, 56);
type = Stem;
},
{
horizontal = 1;
place = (440, 61);
place = (440, 61);
type = Stem;
},
{
horizontal = 1;
place = (566, 42);
place = (566, 42);
type = Stem;
},
{
horizontal = 1;
place = (697, -20);
target = down;
type = TopGhost;
},
{
place = (113, 50);
place = (113, 50);
type = Stem;
},
{
place = (224, 80);
place = (224, 80);
type = Stem;
},
{
place = (365, 50);
place = (365, 50);
type = Stem;
},
{
place = (44, 69);
place = (44, 69);
type = Stem;
},
{
place = (389, 69);
place = (389, 69);
type = Stem;
},
{
place = (393, 65);
place = (393, 65);
type = Stem;
},
{
horizontal = 1;
place = (0, 21);
target = up;
type = BottomGhost;
}
);
layerId = m01;
shapes = (
{
closed = 1;
nodes = (
(361,566,o),
(415,610,o),
(415,697,c),
(365,697,l),
(365,640,o),
(327,608,o),
(264,608,cs),
(203,608,o),
(163,638,o),
(163,697,c),
(113,697,l),
(113,612,o),
(163,566,o),
(264,566,cs)
);
},
{
closed = 1;
nodes = (
(178,501,o),
(114,469,o),
(61,400,c),
(111,358,l),
(151,413,o),
(199,440,o),
(261,440,cs),
(344,440,o),
(389,393,o),
(389,307,cs),
(389,284,l),
(288,284,ls),
(191,284,o),
(138,275,o),
(100,253,cs),
(64,231,o),
(44,193,o),
(44,143,cs),
(44,48,o),
(107,-8,o),
(214,-8,cs),
(292,-8,o),
(352,21,o),
(391,76,c),
(395,0,l),
(458,0,l),
(458,307,ls),
(458,430,o),
(386,501,o),
(262,501,cs)
);
},
{
closed = 1;
nodes = (
(160,49,o),
(113,84,o),
(113,139,cs),
(113,167,o),
(122,189,o),
(140,203,cs),
(164,222,o),
(203,228,o),
(294,228,cs),
(389,228,l),
(389,221,ls),
(389,116,o),
(329,49,o),
(234,49,cs)
);
},
{
closed = 1;
nodes = (
(224,-173,l),
(304,-173,l),
(304,-72,l),
(224,-72,l)
);
}
);
width = 535;
}
);
note = uni1EB7;
unicode = 7863;
},
{
glyphname = uni1EB1;
kernLeft = a;
kernRight = a;
layers = (
{
hints = (
{
horizontal = 1;
place = (-8, 57);
place = (-8, 57);
type = Stem;
},
{
horizontal = 1;
place = (228, 56);
place = (228, 56);
type = Stem;
},
{
horizontal = 1;
place = (440, 61);
place = (440, 61);
type = Stem;
},
{
horizontal = 1;
place = (566, 42);
place = (566, 42);
type = Stem;
},
{
horizontal = 1;
place = (697, -20);
target = down;
type = TopGhost;
},
{
horizontal = 1;
place = (760, 141);
place = (760, 141);
type = Stem;
},
{
place = (44, 69);
place = (44, 69);
type = Stem;
},
{
place = (389, 69);
place = (389, 69);
type = Stem;
},
{
place = (113, 50);
place = (113, 50);
type = Stem;
},
{
place = (365, 50);
place = (365, 50);
type = Stem;
},
{
place = (393, 65);
place = (393, 65);
type = Stem;
},
{
horizontal = 1;
place = (0, 21);
target = up;
type = BottomGhost;
}
);
layerId = m01;
shapes = (
{
closed = 1;
nodes = (
(291,760,l),
(187,901,l),
(113,901,l),
(237,760,l)
);
},
{
closed = 1;
nodes = (
(361,566,o),
(415,610,o),
(415,697,c),
(365,697,l),
(365,640,o),
(327,608,o),
(264,608,cs),
(203,608,o),
(163,638,o),
(163,697,c),
(113,697,l),
(113,612,o),
(163,566,o),
(264,566,cs)
);
},
{
closed = 1;
nodes = (
(178,501,o),
(114,469,o),
(61,400,c),
(111,358,l),
(151,413,o),
(199,440,o),
(261,440,cs),
(344,440,o),
(389,393,o),
(389,307,cs),
(389,284,l),
(288,284,ls),
(191,284,o),
(138,275,o),
(100,253,cs),
(64,231,o),
(44,193,o),
(44,143,cs),
(44,48,o),
(107,-8,o),
(214,-8,cs),
(292,-8,o),
(352,21,o),
(391,76,c),
(395,0,l),
(458,0,l),
(458,307,ls),
(458,430,o),
(386,501,o),
(262,501,cs)
);
},
{
closed = 1;
nodes = (
(160,49,o),
(113,84,o),
(113,139,cs),
(113,167,o),
(122,189,o),
(140,203,cs),
(164,222,o),
(203,228,o),
(294,228,cs),
(389,228,l),
(389,221,ls),
(389,116,o),
(329,49,o),
(234,49,cs)
);
}
);
width = 535;
}
);
note = uni1EB1;
unicode = 7857;
},
{
glyphname = uni1EB3;
kernLeft = a;
kernRight = a;
layers = (
{
hints = (
{
horizontal = 1;
place = (-8, 57);
place = (-8, 57);
type = Stem;
},
{
horizontal = 1;
place = (228, 56);
place = (228, 56);
type = Stem;
},
{
horizontal = 1;
place = (440, 61);
place = (440, 61);
type = Stem;
},
{
horizontal = 1;
place = (566, 42);
place = (566, 42);
type = Stem;
},
{
horizontal = 1;
place = (697, -20);
target = down;
type = TopGhost;
},
{
horizontal = 1;
place = (882, 40);
place = (882, 40);
type = Stem;
},
{
place = (113, 50);
place = (113, 50);
type = Stem;
},
{
place = (326, 47);
place = (326, 47);
type = Stem;
},
{
place = (389, 69);
place = (389, 69);
type = Stem;
},
{
place = (365, 50);
place = (365, 50);
type = Stem;
},
{
place = (44, 69);
place = (44, 69);
type = Stem;
},
{
place = (393, 65);
place = (393, 65);
type = Stem;
},
{
horizontal = 1;
place = (0, 21);
target = up;
type = BottomGhost;
}
);
layerId = m01;
shapes = (
{
closed = 1;
nodes = (
(326,789,o),
(284,781,o),
(246,775,c),
(258,736,l),
(307,746,o),
(373,757,o),
(373,824,cs),
(373,888,o),
(314,922,o),
(234,922,cs),
(219,922,l),
(219,882,l),
(234,882,ls),
(281,882,o),
(326,867,o),
(326,826,cs)
);
},
{
closed = 1;
nodes = (
(361,566,o),
(415,610,o),
(415,697,c),
(365,697,l),
(365,640,o),
(327,608,o),
(264,608,cs),
(203,608,o),
(163,638,o),
(163,697,c),
(113,697,l),
(113,612,o),
(163,566,o),
(264,566,cs)
);
},
{
closed = 1;
nodes = (
(178,501,o),
(114,469,o),
(61,400,c),
(111,358,l),
(151,413,o),
(199,440,o),
(261,440,cs),
(344,440,o),
(389,393,o),
(389,307,cs),
(389,284,l),
(288,284,ls),
(191,284,o),
(138,275,o),
(100,253,cs),
(64,231,o),
(44,193,o),
(44,143,cs),
(44,48,o),
(107,-8,o),
(214,-8,cs),
(292,-8,o),
(352,21,o),
(391,76,c),
(395,0,l),
(458,0,l),
(458,307,ls),
(458,430,o),
(386,501,o),
(262,501,cs)
);
},
{
closed = 1;
nodes = (
(160,49,o),
(113,84,o),
(113,139,cs),
(113,167,o),
(122,189,o),
(140,203,cs),
(164,222,o),
(203,228,o),
(294,228,cs),
(389,228,l),
(389,221,ls),
(389,116,o),
(329,49,o),
(234,49,cs)
);
}
);
width = 535;
}
);
note = uni1EB3;
unicode = 7859;
},
